<svg width="111" height="12" viewBox="0 0 111 12" fill="none" xmlns="http://www.w3.org/2000/svg">
<path d="M2.24996 11.6364H-4.43757e-05L4.09655 -1.14441e-05H6.69882L10.8011 11.6364H8.55109L5.44314 2.38635H5.35223L2.24996 11.6364ZM2.32382 7.07385H8.46018V8.76703H2.32382V7.07385ZM15.2159 11.7898C14.5303 11.7898 13.9166 11.6136 13.375 11.2614C12.8333 10.9091 12.4053 10.3977 12.0909 9.72726C11.7765 9.05681 11.6193 8.24241 11.6193 7.28408C11.6193 6.31438 11.7784 5.4962 12.0965 4.82953C12.4185 4.15908 12.8522 3.6534 13.3977 3.31249C13.9431 2.96779 14.5511 2.79544 15.2215 2.79544C15.7329 2.79544 16.1534 2.88256 16.4829 3.05681C16.8125 3.22726 17.0738 3.4337 17.267 3.67613C17.4602 3.91476 17.6098 4.14014 17.7159 4.35226H17.8011V-1.14441e-05H19.8636V11.6364H17.8409V10.2614H17.7159C17.6098 10.4735 17.4564 10.6989 17.2556 10.9375C17.0549 11.1723 16.7897 11.3731 16.4602 11.5398C16.1306 11.7064 15.7159 11.7898 15.2159 11.7898ZM15.7897 10.1023C16.2253 10.1023 16.5965 9.98484 16.9034 9.74999C17.2102 9.51135 17.4431 9.17991 17.6022 8.75567C17.7613 8.33143 17.8409 7.83711 17.8409 7.27272C17.8409 6.70832 17.7613 6.21779 17.6022 5.80113C17.4469 5.38446 17.2159 5.06059 16.909 4.82953C16.606 4.59847 16.2329 4.48294 15.7897 4.48294C15.3314 4.48294 14.9488 4.60226 14.642 4.8409C14.3352 5.07953 14.1041 5.40908 13.9488 5.82953C13.7935 6.24999 13.7159 6.73105 13.7159 7.27272C13.7159 7.81817 13.7935 8.30491 13.9488 8.73294C14.1079 9.15719 14.3409 9.49241 14.6477 9.73863C14.9583 9.98105 15.339 10.1023 15.7897 10.1023ZM25.294 11.7898C24.6084 11.7898 23.9947 11.6136 23.4531 11.2614C22.9114 10.9091 22.4834 10.3977 22.169 9.72726C21.8546 9.05681 21.6974 8.24241 21.6974 7.28408C21.6974 6.31438 21.8565 5.4962 22.1747 4.82953C22.4966 4.15908 22.9304 3.6534 23.4758 3.31249C24.0213 2.96779 24.6292 2.79544 25.2997 2.79544C25.811 2.79544 26.2315 2.88256 26.561 3.05681C26.8906 3.22726 27.1519 3.4337 27.3451 3.67613C27.5383 3.91476 27.6879 4.14014 27.794 4.35226H27.8792V-1.14441e-05H29.9417V11.6364H27.919V10.2614H27.794C27.6879 10.4735 27.5345 10.6989 27.3338 10.9375C27.133 11.1723 26.8679 11.3731 26.5383 11.5398C26.2088 11.7064 25.794 11.7898 25.294 11.7898ZM25.8679 10.1023C26.3035 10.1023 26.6747 9.98484 26.9815 9.74999C27.2883 9.51135 27.5213 9.17991 27.6804 8.75567C27.8394 8.33143 27.919 7.83711 27.919 7.27272C27.919 6.70832 27.8394 6.21779 27.6804 5.80113C27.5251 5.38446 27.294 5.06059 26.9872 4.82953C26.6841 4.59847 26.311 4.48294 25.8679 4.48294C25.4095 4.48294 25.0269 4.60226 24.7201 4.8409C24.4133 5.07953 24.1822 5.40908 24.0269 5.82953C23.8716 6.24999 23.794 6.73105 23.794 7.27272C23.794 7.81817 23.8716 8.30491 24.0269 8.73294C24.186 9.15719 24.419 9.49241 24.7258 9.73863C25.0364 9.98105 25.4171 10.1023 25.8679 10.1023ZM45.7556 -1.14441e-05V11.6364H43.8806L38.3977 3.71022H38.3011V11.6364H36.1931V-1.14441e-05H38.0795L43.5568 7.93181H43.659V-1.14441e-05H45.7556ZM51.8252 11.8068C50.9502 11.8068 50.1946 11.625 49.5582 11.2614C48.9256 10.8939 48.4389 10.375 48.098 9.70453C47.7571 9.03029 47.5866 8.23673 47.5866 7.32385C47.5866 6.42613 47.7571 5.63825 48.098 4.96022C48.4427 4.2784 48.9237 3.74809 49.5411 3.36931C50.1586 2.98673 50.884 2.79544 51.7173 2.79544C52.2552 2.79544 52.7627 2.88256 53.24 3.05681C53.7211 3.22726 54.1453 3.49241 54.5127 3.85226C54.884 4.21211 55.1756 4.67044 55.3877 5.22726C55.5999 5.78029 55.7059 6.43938 55.7059 7.20453V7.83522H48.5525V6.44885H53.7343C53.7305 6.05491 53.6453 5.70453 53.4786 5.39772C53.312 5.08711 53.079 4.84279 52.7798 4.66476C52.4843 4.48673 52.1396 4.39772 51.7457 4.39772C51.3252 4.39772 50.9559 4.49999 50.6377 4.70453C50.3196 4.90529 50.0715 5.17044 49.8934 5.49999C49.7192 5.82575 49.6302 6.1837 49.6264 6.57385V7.78408C49.6264 8.29166 49.7192 8.72726 49.9048 9.0909C50.0904 9.45075 50.3499 9.72726 50.6832 9.92044C51.0165 10.1098 51.4067 10.2045 51.8536 10.2045C52.1529 10.2045 52.4237 10.1629 52.6661 10.0795C52.9086 9.99241 53.1188 9.86552 53.2968 9.69885C53.4749 9.53219 53.6093 9.32575 53.7002 9.07953L55.6207 9.29544C55.4995 9.80302 55.2684 10.2462 54.9275 10.625C54.5904 11 54.1586 11.2917 53.6321 11.5C53.1055 11.7045 52.5033 11.8068 51.8252 11.8068ZM59.2002 11.6364L56.7343 2.90908H58.8309L60.365 9.04544H60.4446L62.0127 2.90908H64.0866L65.6548 9.01135H65.74L67.2514 2.90908H69.3536L66.8821 11.6364H64.74L63.1036 5.73863H62.9843L61.348 11.6364H59.2002ZM74.338 1.76703V-1.14441e-05H83.6221V1.76703H80.0255V11.6364H77.9346V1.76703H74.338ZM86.6448 11.8125C86.0918 11.8125 85.5937 11.714 85.1505 11.517C84.7111 11.3163 84.3626 11.0208 84.1051 10.6307C83.8513 10.2405 83.7244 9.75946 83.7244 9.18749C83.7244 8.69506 83.8153 8.28787 83.9971 7.9659C84.1789 7.64393 84.427 7.38635 84.7414 7.19317C85.0558 6.99999 85.41 6.85416 85.8039 6.75567C86.2017 6.6534 86.6126 6.57953 87.0369 6.53408C87.5483 6.48105 87.963 6.4337 88.2812 6.39203C88.5994 6.34658 88.8304 6.2784 88.9744 6.18749C89.1221 6.09279 89.196 5.94696 89.196 5.74999V5.7159C89.196 5.28787 89.0691 4.95643 88.8153 4.72158C88.5615 4.48673 88.196 4.36931 87.7187 4.36931C87.2149 4.36931 86.8153 4.47916 86.5198 4.69885C86.2282 4.91855 86.0312 5.17802 85.9289 5.47726L84.0085 5.20453C84.16 4.67423 84.41 4.23105 84.7585 3.87499C85.107 3.51514 85.5331 3.2462 86.0369 3.06817C86.5407 2.88635 87.0975 2.79544 87.7073 2.79544C88.1278 2.79544 88.5464 2.84469 88.963 2.94317C89.3797 3.04166 89.7604 3.20453 90.1051 3.43181C90.4498 3.65529 90.7263 3.96022 90.9346 4.34658C91.1467 4.73294 91.2528 5.2159 91.2528 5.79544V11.6364H89.2755V10.4375H89.2073C89.0823 10.6799 88.9062 10.9072 88.6789 11.1193C88.4554 11.3276 88.1733 11.4962 87.8323 11.625C87.4952 11.75 87.0994 11.8125 86.6448 11.8125ZM87.1789 10.3011C87.5918 10.3011 87.9498 10.2197 88.2528 10.0568C88.5558 9.89014 88.7888 9.67044 88.9517 9.39772C89.1183 9.12499 89.2017 8.82764 89.2017 8.50567V7.47726C89.1373 7.53029 89.0274 7.57953 88.8721 7.62499C88.7206 7.67044 88.5501 7.71022 88.3608 7.74431C88.1714 7.7784 87.9839 7.8087 87.7983 7.83522C87.6126 7.86173 87.4517 7.88446 87.3153 7.9034C87.0085 7.94506 86.7339 8.01325 86.4914 8.10794C86.249 8.20264 86.0577 8.33522 85.9176 8.50567C85.7774 8.67234 85.7073 8.88825 85.7073 9.1534C85.7073 9.53219 85.8456 9.81817 86.1221 10.0114C86.3986 10.2045 86.7509 10.3011 87.1789 10.3011ZM100.219 5.2159L98.3437 5.42044C98.2907 5.23105 98.1979 5.05302 98.0653 4.88635C97.9365 4.71969 97.7623 4.58522 97.5426 4.48294C97.3229 4.38067 97.0539 4.32953 96.7358 4.32953C96.3077 4.32953 95.9479 4.42234 95.6562 4.60794C95.3683 4.79355 95.2263 5.03408 95.2301 5.32953C95.2263 5.58332 95.3191 5.78976 95.5085 5.94885C95.7017 6.10794 96.0198 6.23863 96.463 6.3409L97.9517 6.65908C98.7774 6.83711 99.3911 7.11931 99.7926 7.50567C100.198 7.89203 100.402 8.39772 100.406 9.02272C100.402 9.57196 100.241 10.0568 99.9233 10.4773C99.6089 10.8939 99.1714 11.2197 98.6108 11.4545C98.0501 11.6894 97.4062 11.8068 96.6789 11.8068C95.6108 11.8068 94.7509 11.5833 94.0994 11.1364C93.4479 10.6856 93.0596 10.0587 92.9346 9.25567L94.9403 9.06249C95.0312 9.45643 95.2244 9.75378 95.5198 9.95453C95.8153 10.1553 96.1998 10.2557 96.6733 10.2557C97.1619 10.2557 97.5539 10.1553 97.8494 9.95453C98.1486 9.75378 98.2983 9.50567 98.2983 9.21022C98.2983 8.96022 98.2017 8.75378 98.0085 8.5909C97.8191 8.42802 97.5236 8.30302 97.1221 8.2159L95.6335 7.9034C94.7964 7.72916 94.177 7.43559 93.7755 7.02272C93.374 6.60605 93.1751 6.07953 93.1789 5.44317C93.1751 4.90529 93.321 4.43938 93.6164 4.04544C93.9157 3.64772 94.3304 3.3409 94.8608 3.12499C95.3948 2.90529 96.0104 2.79544 96.7073 2.79544C97.7301 2.79544 98.535 3.01325 99.1221 3.44885C99.713 3.88446 100.079 4.47347 100.219 5.2159ZM103.977 8.89772L103.972 6.41476H104.301L107.437 2.90908H109.841L105.983 7.20453H105.557L103.977 8.89772ZM102.102 11.6364V-1.14441e-05H104.159V11.6364H102.102ZM107.58 11.6364L104.739 7.66476L106.125 6.2159L110.04 11.6364H107.58Z" fill="white"/>
</svg>
