<svg width="284" height="340" viewBox="0 0 284 340" fill="none" xmlns="http://www.w3.org/2000/svg">
<path d="M49.4355 103.794C62.4644 99.1043 76.5792 78.7199 82.008 69.1137C89.7441 52.5065 64.9074 69.1137 52.6927 76.9289C40.478 84.744 33.1492 109.655 49.4355 103.794Z" fill="#E7E8FF"/>
<path d="M266.043 246.202C266.043 262.796 258.335 278.873 250.651 290.382C244.396 299.749 234.486 303.839 224.48 303.839H45.5818C35.5417 303.839 28.5301 286.791 26.7978 274.927C23.7238 253.873 7.57165 230.394 10.3478 194.427C14.4193 141.675 42.1061 125.555 71.0142 105.529C99.9225 85.5027 81.1931 56.1959 130.866 38.6118C180.54 21.0278 233.063 79.1529 231.434 133.371C229.805 187.588 266.043 195.404 266.043 246.202Z" fill="#E7E8FF"/>
<path d="M102.799 236.103C94.5177 246.862 124.33 276.446 124.33 303.839H146.068H167.806C165.598 302.178 161.844 296.767 164.494 288.399C167.806 277.94 188.095 273.955 183.954 262.998C179.814 252.041 170.29 262.998 161.181 256.523C152.072 250.048 162.01 244.072 174.017 229.628C186.025 215.185 164.494 216.679 155.385 222.157C146.275 227.636 146.689 217.675 147.932 196.757C149.174 175.838 141.721 158.905 135.51 162.888C129.299 166.873 139.65 212.695 133.026 207.714C126.4 202.733 119.775 184.804 117.705 201.737C115.634 218.671 130.955 245.067 124.33 247.06C117.705 249.052 113.15 222.656 102.799 236.103Z" fill="white"/>
<path d="M113.82 303.631L110.231 268.78L34.0645 264.961L32.0707 303.631H113.82Z" fill="#032068"/>
<path d="M61.2527 129.046L59.6575 139.071L61.2527 149.574C65.3733 150.211 73.7741 151.484 74.4122 151.484C75.0502 151.484 79.7291 146.71 81.9889 144.323L79.5962 129.046C86.2957 126.372 88.5022 114.564 88.7681 108.995C90.3632 86.0793 77.6024 83.2149 75.2098 83.2149C72.8171 83.2149 57.6637 83.2149 55.6698 102.311C54.0748 117.588 58.7271 126.499 61.2527 129.046Z" fill="white"/>
<path fill-rule="evenodd" clip-rule="evenodd" d="M65.6308 86.4887C61.5189 88.752 57.4367 93.2584 56.4788 102.432C54.9113 117.445 59.5019 126.005 61.7778 128.299L62.1428 128.667L60.4869 139.076L61.9482 148.698C63.9855 149.011 66.7916 149.438 69.2382 149.799C70.5849 149.998 71.821 150.177 72.7592 150.305C73.2287 150.37 73.621 150.422 73.9144 150.457C74.0612 150.475 74.1804 150.487 74.2705 150.496C74.2855 150.498 74.2996 150.499 74.3125 150.501C74.3394 150.484 74.3741 150.461 74.4171 150.431C74.5781 150.319 74.7982 150.143 75.0717 149.908C75.6156 149.44 76.3162 148.783 77.0779 148.042C78.4495 146.705 79.9881 145.126 81.102 143.957L78.6639 128.389L79.3384 128.12C82.362 126.913 84.4594 123.602 85.845 119.723C87.2229 115.865 87.8253 111.635 87.9541 108.939L87.9547 108.926L87.9555 108.914C88.7364 97.6955 86.0024 91.5713 82.9358 88.2337C79.8247 84.8478 76.2456 84.1909 75.2098 84.1909C74.0303 84.1909 69.7966 84.1958 65.6308 86.4887ZM74.2429 150.538C74.2429 150.538 74.2469 150.536 74.2544 150.534C74.2465 150.537 74.2429 150.538 74.2429 150.538ZM75.2027 82.2387H75.2098C76.5664 82.2387 80.5641 83.0142 84.0327 86.7892C87.5447 90.6115 90.3927 97.3736 89.5814 109.063C89.443 111.937 88.8089 116.39 87.3444 120.49C85.976 124.321 83.819 128.017 80.5236 129.67L82.8756 144.688L82.5284 145.054C81.3936 146.253 79.6501 148.053 78.107 149.556C77.3368 150.306 76.6067 150.992 76.0232 151.494C75.7331 151.743 75.4652 151.96 75.2394 152.117C75.1272 152.195 75.0103 152.27 74.8965 152.328C74.8063 152.374 74.6242 152.461 74.4122 152.461C74.1923 152.461 73.4813 152.37 72.5734 152.245C71.6283 152.115 70.3869 151.936 69.0386 151.736C66.3416 151.339 63.2095 150.86 61.1483 150.542L60.5571 150.451L58.8282 139.067L60.3659 129.403C57.5651 126.2 53.3068 117.074 54.8608 102.19C55.8968 92.2676 60.3882 87.2257 64.9496 84.715C69.4486 82.2387 73.979 82.2387 75.2027 82.2387Z" fill="#032068"/>
<path d="M155.983 155.806C154.317 158.745 147.694 166.856 146.935 168.306L149.919 176.639L158.089 178.909C159.927 175.788 165.185 172.543 166.436 167.672C167.436 163.775 163.61 158.482 161.736 157.623L167.456 148.241C168.22 146.989 168.004 145.236 166.972 144.299C165.962 143.385 164.531 143.579 163.718 144.741L155.983 155.806Z" fill="white"/>
<path fill-rule="evenodd" clip-rule="evenodd" d="M167.464 143.522C166.108 142.292 164.185 142.553 163.094 144.115L155.332 155.218L155.308 155.259C154.517 156.655 152.495 159.355 150.516 161.958C150.272 162.279 150.03 162.597 149.791 162.91C149.074 163.851 148.395 164.744 147.827 165.504C147.094 166.486 146.48 167.338 146.244 167.788L146.018 168.221L149.333 177.478L158.439 180.008L158.755 179.472C159.157 178.79 159.77 178.064 160.534 177.252C160.899 176.863 161.288 176.467 161.694 176.052L161.737 176.01C162.156 175.582 162.592 175.136 163.024 174.676C164.73 172.861 166.518 170.675 167.215 167.959C167.827 165.578 166.946 162.954 165.843 160.967C165.275 159.945 164.61 159.024 163.958 158.294C163.625 157.921 163.279 157.583 162.939 157.304L168.115 148.817C169.14 147.135 168.851 144.779 167.464 143.522ZM164.343 145.368C164.877 144.605 165.817 144.477 166.48 145.078C167.158 145.692 167.299 146.844 166.798 147.665L160.45 158.077L161.444 158.534C161.77 158.684 162.271 159.079 162.846 159.721C163.406 160.347 163.987 161.153 164.485 162.049C165.512 163.897 166.045 165.869 165.656 167.384C165.103 169.539 163.637 171.412 161.941 173.218C161.523 173.662 161.1 174.095 160.68 174.523L160.632 174.572C160.23 174.982 159.829 175.39 159.452 175.791C158.831 176.451 158.239 177.125 157.762 177.817L150.506 175.8L147.868 168.435C148.114 168.067 148.514 167.513 149.043 166.805C149.605 166.051 150.276 165.17 150.99 164.231C151.23 163.917 151.475 163.597 151.721 163.271C153.643 160.744 155.746 157.946 156.634 156.397L164.343 145.368Z" fill="#032068"/>
<path d="M65.6392 119.498C64.044 130.574 61.7843 131.751 60.8539 130.956C49.6882 122.363 49.9575 94.9066 56.8661 85.6019C63.2465 77.0085 68.0318 80.3505 81.1914 76.5312C94.3509 72.712 98.7374 79.3956 96.3451 87.989C92.9005 100.359 81.9888 93.7178 79.1974 95.15C76.4061 96.5822 72.8171 100.402 71.2219 108.04C69.6269 115.678 68.8293 114.246 67.633 109.95C66.4367 105.653 63.2465 99.4466 60.8539 107.085C58.9397 113.196 63.2465 117.906 65.6392 119.498Z" fill="#032068"/>
<path fill-rule="evenodd" clip-rule="evenodd" d="M78.3284 280.715C64.6371 281.034 36.0583 281.097 31.273 278.806C29.5343 277.974 28.8063 269.839 28.6877 258.448C23.9065 252.653 19.0883 246.205 15.3223 240.136C7.02778 226.769 8.9419 211.333 10.9358 205.285C21.3032 169.96 34.3286 150.864 40.8425 145.611C40.8429 145.611 40.8432 145.611 40.8436 145.61C44.4326 142.268 54.0032 137.971 59.1873 137.017C60.2507 140.517 63.5737 147.519 71.5492 147.519C79.5248 147.519 80.9869 140.517 81.5187 137.017C87.2343 137.175 102.255 140.931 110.231 154.681C116.324 165.186 118.842 174.442 120.516 180.596C121.581 184.511 122.305 187.171 123.39 188.099C124.852 189.349 130.47 182.743 136.062 176.166C141.149 170.185 146.215 164.229 148.114 164.229C152.102 164.229 161.273 173.776 161.273 179.505C161.273 185.234 139.341 233.93 132.96 239.181C126.58 244.433 119.402 241.569 115.813 236.317C116.61 246.661 117.488 272.981 114.617 276.419C111.745 279.856 89.2282 280.715 78.3284 280.715Z" fill="white"/>
<path fill-rule="evenodd" clip-rule="evenodd" d="M59.7248 135.93L59.9535 136.683C60.969 140.026 64.0826 146.543 71.5493 146.543C75.3049 146.543 77.4198 144.914 78.6831 142.979C79.9824 140.99 80.4545 138.567 80.7165 136.842L80.8412 136.022L81.5376 136.041C84.497 136.124 89.7791 137.128 95.336 139.849C100.897 142.572 106.795 147.048 110.9 154.124C117.062 164.746 119.609 174.113 121.289 180.285L121.292 180.294C121.827 182.266 122.263 183.864 122.697 185.087C123.127 186.305 123.497 186.969 123.833 187.277C123.854 187.277 123.895 187.274 123.963 187.258C124.15 187.213 124.427 187.085 124.804 186.833C125.552 186.335 126.517 185.471 127.65 184.323C129.908 182.034 132.688 178.767 135.492 175.469L135.505 175.454C138.038 172.475 140.589 169.475 142.747 167.219C143.827 166.09 144.829 165.127 145.695 164.439C146.127 164.095 146.543 163.807 146.93 163.603C147.307 163.404 147.714 163.252 148.114 163.252C149.333 163.252 150.809 163.959 152.261 164.966C153.742 165.993 155.311 167.41 156.744 169.004C158.176 170.595 159.495 172.387 160.462 174.171C161.416 175.93 162.089 177.794 162.089 179.505C162.089 180.008 161.975 180.644 161.809 181.333C161.638 182.044 161.39 182.893 161.079 183.852C160.456 185.773 159.565 188.189 158.483 190.926C156.318 196.402 153.369 203.21 150.223 209.996C147.076 216.782 143.726 223.562 140.758 228.982C139.275 231.691 137.88 234.072 136.65 235.948C135.437 237.797 134.331 239.238 133.422 239.986C127.494 244.865 120.92 243.146 116.812 238.927C117.145 244.27 117.44 251.924 117.407 258.963C117.386 263.129 117.251 267.107 116.937 270.273C116.78 271.854 116.575 273.259 116.31 274.396C116.055 275.492 115.71 276.49 115.193 277.109C114.689 277.714 113.86 278.16 112.931 278.519C111.969 278.892 110.77 279.216 109.409 279.502C106.685 280.074 103.229 280.507 99.5429 280.83C92.1699 281.476 83.7993 281.691 78.3366 281.692C71.4836 281.851 60.9091 281.946 51.4444 281.715C46.7113 281.599 42.2463 281.402 38.6597 281.089C36.8669 280.933 35.2839 280.747 33.9919 280.525C32.7188 280.307 31.6655 280.046 30.9703 279.712C30.5502 279.511 30.2344 279.128 29.9961 278.713C29.7551 278.293 29.5551 277.778 29.3841 277.203C29.0423 276.054 28.7753 274.527 28.5653 272.721C28.1537 269.181 27.9418 264.394 27.8769 258.853C23.1547 253.111 18.4029 246.738 14.6678 240.718C6.16283 227.011 8.11174 211.21 10.1716 204.945C15.3739 187.223 21.248 173.552 26.6514 163.637C32.0322 153.765 36.9776 147.561 40.364 144.82C42.2618 143.062 45.6343 141.119 49.1239 139.508C52.6403 137.884 56.3901 136.544 59.0634 136.052L59.7248 135.93ZM82.1849 138.026C81.8769 139.779 81.3 142.142 79.9678 144.182C78.3731 146.624 75.7693 148.495 71.5493 148.495C63.6185 148.495 60.0143 141.953 58.6701 138.111C56.2051 138.658 52.8883 139.861 49.7108 141.329C46.2349 142.934 43.0396 144.801 41.3445 146.38C41.3444 146.38 41.3447 146.38 41.3445 146.38L41.3217 146.402L41.298 146.421C38.1711 148.943 33.3572 154.906 28.0171 164.704C22.6892 174.48 16.8689 188.014 11.7051 205.609L11.6999 205.626L11.6942 205.643C9.76846 211.485 7.90077 226.539 15.9768 239.554C19.7128 245.575 24.5033 251.986 29.2679 257.762L29.499 258.042L29.5031 258.436C29.5622 264.119 29.7734 268.951 30.1804 272.452C30.3845 274.207 30.6329 275.582 30.9203 276.548C31.064 277.031 31.2071 277.377 31.3392 277.605C31.4739 277.84 31.5613 277.892 31.5759 277.9C32.0769 278.139 32.9635 278.377 34.2228 278.593C35.4631 278.806 37.0049 278.987 38.7782 279.142C42.3238 279.452 46.7564 279.649 51.4776 279.763C60.9179 279.995 71.4741 279.898 78.3126 279.74H78.3205H78.3284C83.7658 279.74 92.0991 279.525 99.4237 278.883C103.088 278.562 106.482 278.135 109.128 277.579C110.451 277.301 111.568 276.995 112.43 276.661C113.325 276.316 113.828 275.984 114.04 275.729C114.242 275.487 114.497 274.913 114.74 273.871C114.974 272.869 115.166 271.574 115.317 270.043C115.621 266.983 115.756 263.089 115.775 258.952C115.815 250.683 115.398 241.55 115.001 236.407L114.757 233.229L116.445 235.698C119.816 240.632 126.531 243.289 132.498 238.377C133.185 237.812 134.161 236.582 135.368 234.742C136.559 232.926 137.925 230.596 139.395 227.912C142.333 222.545 145.663 215.809 148.797 209.049C151.931 202.289 154.863 195.52 157.01 190.091C158.084 187.375 158.957 185.005 159.559 183.147C159.86 182.216 160.089 181.426 160.242 180.792C160.4 180.134 160.458 179.718 160.458 179.505C160.458 178.354 159.985 176.875 159.094 175.233C158.217 173.615 156.993 171.945 155.634 170.434C154.275 168.923 152.803 167.597 151.444 166.654C150.054 165.692 148.889 165.205 148.114 165.205C148.039 165.205 147.872 165.239 147.589 165.39C147.316 165.534 146.984 165.758 146.595 166.066C145.818 166.683 144.88 167.581 143.819 168.69C141.702 170.903 139.183 173.866 136.634 176.862L136.615 176.885C133.833 180.157 131.013 183.472 128.704 185.812C127.551 186.981 126.488 187.945 125.597 188.539C125.154 188.835 124.709 189.069 124.287 189.171C123.868 189.273 123.355 189.269 122.916 188.893C122.173 188.258 121.649 187.131 121.195 185.849C120.731 184.54 120.275 182.863 119.751 180.937L119.741 180.898C118.071 174.761 115.582 165.619 109.561 155.237C105.69 148.564 100.091 144.287 94.7187 141.655C89.7607 139.228 85.0498 138.228 82.1849 138.026Z" fill="#032068"/>
<path d="M56.9952 232.079C58.1164 231.177 59.6362 231.534 60.3898 232.876L78.1586 264.523C78.9122 265.865 78.6143 267.685 77.4931 268.588L41.4182 297.618C40.2971 298.52 38.7773 298.163 38.0237 296.821L20.2548 265.174C19.5013 263.832 19.7992 262.013 20.9203 261.111L56.9952 232.079Z" fill="white"/>
<path fill-rule="evenodd" clip-rule="evenodd" d="M56.5404 231.27C58.0352 230.067 60.0617 230.543 61.0664 232.332L78.8353 263.979C79.8401 265.769 79.4429 268.194 77.948 269.398L41.8731 298.428C40.3782 299.631 38.3518 299.156 37.347 297.365L19.5782 265.719C18.5733 263.93 18.9706 261.503 20.4654 260.301L56.5404 231.27ZM59.7131 233.421C59.2107 232.526 58.1975 232.288 57.4501 232.89L21.3752 261.92C20.6277 262.522 20.4291 263.735 20.9315 264.63L38.7003 296.277C39.2027 297.171 40.2159 297.409 40.9633 296.808L77.0383 267.777C77.7857 267.175 77.9843 265.963 77.4819 265.067L59.7131 233.421Z" fill="#032068"/>
<path d="M63.1753 267.349C60.6232 265.821 59.1876 264.165 58.7888 263.529C56.795 266.235 52.5679 272.6 51.6108 276.419C50.4145 281.192 56.795 288.354 58.7888 288.831C60.7827 289.309 66.7643 285.012 67.9606 282.625C68.9177 280.715 66.7643 277.214 65.568 275.942C66.2326 274.828 68.5987 273.555 67.9606 271.645C67.163 269.257 66.3655 269.257 63.1753 267.349Z" fill="white"/>
<path fill-rule="evenodd" clip-rule="evenodd" d="M58.8401 261.984L59.4411 262.944C59.7452 263.429 61.0695 264.996 63.5399 266.475C64.134 266.831 64.64 267.116 65.0868 267.369C65.233 267.452 65.373 267.531 65.5076 267.608C66.0418 267.913 66.5086 268.191 66.9061 268.497C67.7744 269.164 68.2694 269.941 68.7176 271.283C69.2377 272.839 68.4512 274.054 67.8227 274.789C67.5549 275.103 67.2542 275.401 66.9976 275.656C66.941 275.712 66.8866 275.766 66.8352 275.817C66.7934 275.859 66.754 275.899 66.7167 275.937C67.2607 276.652 67.8491 277.594 68.2909 278.585C68.5994 279.276 68.8574 280.036 68.9629 280.794C69.0687 281.553 69.031 282.387 68.6598 283.127C68.2838 283.877 67.5919 284.682 66.8138 285.43C66.0169 286.196 65.0597 286.97 64.0823 287.647C63.1064 288.323 62.0898 288.918 61.1726 289.316C60.3004 289.695 59.3657 289.966 58.6289 289.789C58.2518 289.698 57.844 289.474 57.4513 289.202C57.0461 288.922 56.6051 288.556 56.1525 288.128C55.2473 287.272 54.2594 286.135 53.3759 284.86C52.4949 283.587 51.6948 282.144 51.1927 280.675C50.6936 279.214 50.4569 277.627 50.8299 276.139C51.3505 274.062 52.7192 271.4 54.146 268.992C55.5907 266.552 57.1644 264.258 58.1774 262.883L58.8401 261.984ZM55.4761 270.121C54.0517 272.526 52.8283 274.958 52.3918 276.7C52.1667 277.598 52.2789 278.697 52.702 279.936C53.122 281.166 53.8174 282.439 54.6311 283.613C55.4424 284.785 56.3487 285.826 57.1632 286.596C57.5704 286.982 57.9457 287.29 58.2664 287.512C58.5996 287.742 58.8274 287.845 58.9487 287.875C59.2088 287.937 59.7695 287.849 60.6171 287.481C61.4195 287.133 62.347 286.594 63.2653 285.958C64.182 285.322 65.0692 284.604 65.7926 283.908C66.5348 283.194 67.0393 282.566 67.2615 282.123C67.3688 281.909 67.4207 281.589 67.3545 281.115C67.2882 280.639 67.1125 280.086 66.8527 279.505C66.331 278.335 65.5542 277.233 65.0263 276.672L64.4785 276.088L64.9045 275.374C65.1406 274.978 65.4947 274.615 65.7887 274.32C65.8529 274.255 65.9161 274.193 65.9782 274.132C66.2316 273.88 66.4677 273.646 66.6828 273.394C67.244 272.737 67.3216 272.36 67.2036 272.008C66.8543 270.962 66.5517 270.545 66.0243 270.139C65.724 269.908 65.3433 269.678 64.8058 269.371C64.6789 269.298 64.5439 269.222 64.4008 269.141C63.9515 268.887 63.4225 268.588 62.8107 268.221C60.9241 267.092 59.5951 265.878 58.8116 264.99C57.8626 266.328 56.6259 268.18 55.4761 270.121Z" fill="#032068"/>
<path d="M15.3223 240.136C7.02778 226.769 8.9419 211.333 10.9358 205.285L40.8438 216.743C40.8438 224.859 61.9789 256.845 60.7826 263.529C59.5863 270.213 51.212 278.329 47.623 277.374C44.0341 276.419 25.6904 256.845 15.3223 240.136Z" fill="white"/>
<path fill-rule="evenodd" clip-rule="evenodd" d="M14.6678 240.718C6.15488 226.999 8.11539 211.181 10.1774 204.927L11.6942 205.643C9.76846 211.485 7.90077 226.539 15.9768 239.554C21.1222 247.846 28.2631 256.873 34.5724 263.951C37.7254 267.487 40.6598 270.526 43.0217 272.733C44.2036 273.837 45.2325 274.725 46.0677 275.361C46.9322 276.02 47.5048 276.342 47.7999 276.421C48.4289 276.588 49.4199 276.372 50.6803 275.669C51.9081 274.983 53.2677 273.902 54.5714 272.572C57.2087 269.883 59.4424 266.358 59.9853 263.324C60.0824 262.783 59.9628 261.784 59.5028 260.265C59.0587 258.799 58.352 257.016 57.4526 255C55.655 250.97 53.1409 246.12 50.5703 241.19C50.4392 240.939 50.3081 240.687 50.1769 240.436C47.7417 235.767 45.2887 231.064 43.4142 227.01C42.4263 224.874 41.5889 222.896 40.9963 221.182C40.414 219.498 40.0286 217.962 40.0286 216.743H41.6592C41.6592 217.555 41.9342 218.791 42.5031 220.437C43.0617 222.052 43.8661 223.957 44.8408 226.065C46.6938 230.071 49.1257 234.734 51.5697 239.42C51.6977 239.666 51.8255 239.911 51.9535 240.157C54.517 245.073 57.0624 249.98 58.8911 254.081C59.805 256.13 60.5531 258.006 61.0359 259.6C61.5028 261.142 61.7819 262.605 61.5798 263.733C60.9264 267.384 58.375 271.259 55.6288 274.059C54.2408 275.475 52.7591 276.661 51.3699 277.438C50.0133 278.196 48.6117 278.637 47.4462 278.326C46.8441 278.166 46.0584 277.668 45.1923 277.008C44.2969 276.326 43.2229 275.398 42.0183 274.271C39.6073 272.018 36.635 268.94 33.4574 265.375C27.1055 258.249 19.8906 249.135 14.6678 240.718Z" fill="#032068"/>
<path d="M112.623 189.054L115.813 236.794C117.089 237.94 119.535 240.136 120.599 240.613C120.28 236.794 115.149 204.649 112.623 189.054ZM11.335 204.331C14.2593 209.741 19.2307 224.669 15.7215 241.091C11.9995 236.317 5.91162 222.281 11.335 204.331Z" fill="#032068"/>
<path d="M115.813 236.317C125.384 230.97 133.36 233.135 136.151 234.884C135.22 237.113 131.924 241.664 126.181 242.046C120.439 242.428 116.876 238.385 115.813 236.317ZM46.0281 217.697C45.7092 210.06 48.2879 196.692 49.6171 190.963C48.8196 192.396 46.5865 196.883 44.0343 203.376C40.8441 211.491 40.0465 216.743 42.0404 221.517C42.904 223.585 46.2216 230.409 49.8424 237.75L51.611 235.971C48.7998 229.138 46.2349 222.648 46.0281 217.697Z" fill="#032068"/>
<path d="M73.1445 292.173L70.3531 304.109H73.1445V292.173Z" fill="white"/>
<path d="M71.1509 128.901C74.9791 130.429 78.1959 129.537 79.5251 128.901L80.7214 135.584C75.6172 134.82 72.2143 130.651 71.1509 128.901Z" fill="#032068"/>
<path d="M107.868 71.5267C107.868 68.8313 109.693 66.6462 111.945 66.6462H261.965C264.217 66.6462 266.043 68.8313 266.043 71.5267V209.048C266.043 211.744 264.217 213.929 261.965 213.929H111.945C109.693 213.929 107.868 211.744 107.868 209.048V71.5267Z" fill="white"/>
<path fill-rule="evenodd" clip-rule="evenodd" d="M107.053 71.5267C107.053 68.2923 109.243 65.6701 111.945 65.6701H261.965C264.667 65.6701 266.858 68.2922 266.858 71.5267V209.049C266.858 212.282 264.667 214.905 261.965 214.905H111.945C109.243 214.905 107.053 212.282 107.053 209.049V71.5267ZM111.945 67.6224C110.144 67.6224 108.684 69.3704 108.684 71.5267V209.049C108.684 211.205 110.144 212.953 111.945 212.953H261.965C263.767 212.953 265.227 211.205 265.227 209.049V71.5267C265.227 69.3704 263.767 67.6224 261.965 67.6224H111.945Z" fill="#032068"/>
<path d="M107.868 71.5267C107.868 68.8313 109.693 66.6462 111.945 66.6462H261.965C264.217 66.6462 266.043 68.8313 266.043 71.5267V90.5887H107.868V71.5267Z" fill="#032068"/>
<path d="M127.774 78.199C127.774 80.973 125.895 83.2218 123.579 83.2218C121.261 83.2218 119.383 80.973 119.383 78.199C119.383 75.4249 121.261 73.1761 123.579 73.1761C125.895 73.1761 127.774 75.4249 127.774 78.199ZM141.759 78.199C141.759 80.973 139.88 83.2218 137.563 83.2218C135.246 83.2218 133.367 80.973 133.367 78.199C133.367 75.4249 135.246 73.1761 137.563 73.1761C139.88 73.1761 141.759 75.4249 141.759 78.199ZM155.745 78.199C155.745 80.973 153.866 83.2218 151.549 83.2218C149.232 83.2218 147.353 80.973 147.353 78.199C147.353 75.4249 149.232 73.1761 151.549 73.1761C153.866 73.1761 155.745 75.4249 155.745 78.199Z" fill="white"/>
<path fill-rule="evenodd" clip-rule="evenodd" d="M127.023 113.993C127.092 110.777 129.252 108.114 131.98 108.114H151.238C153.85 108.114 156.033 110.583 156.081 113.744C156.252 125.164 155.132 132.343 150.339 140.963C149.455 142.554 147.954 143.44 146.394 143.44H128.265C124.457 143.44 122.23 138.557 123.681 134.557C125.857 128.564 126.832 122.757 127.023 113.993ZM131.98 110.066C130.177 110.066 128.7 111.836 128.653 114.044C128.459 122.989 127.456 129.056 125.177 135.336C124.126 138.229 125.795 141.488 128.265 141.488H146.394C147.446 141.488 148.42 140.891 148.983 139.881C153.533 131.697 154.618 124.95 154.451 113.779C154.419 111.717 152.99 110.066 151.238 110.066H131.98ZM167.395 138.997C167.465 135.781 169.625 133.117 172.353 133.117H191.611C194.223 133.117 196.406 135.586 196.453 138.747C196.625 150.168 195.505 157.346 190.713 165.965C189.827 167.557 188.326 168.444 186.767 168.444H168.638C164.83 168.444 162.602 163.56 164.054 159.561C166.23 153.567 167.205 147.759 167.395 138.997ZM172.353 135.07C170.55 135.07 169.073 136.84 169.025 139.046C168.831 147.992 167.829 154.06 165.549 160.339C164.498 163.233 166.167 166.491 168.638 166.491H186.767C187.819 166.491 188.793 165.895 189.355 164.884C193.906 156.699 194.991 149.954 194.823 138.782C194.792 136.72 193.362 135.07 191.611 135.07H172.353Z" fill="#032068"/>
<path fill-rule="evenodd" clip-rule="evenodd" d="M220.351 121.249C220.421 118.033 222.58 115.369 225.309 115.369H244.567C247.178 115.369 249.361 117.838 249.409 120.999C249.581 132.42 248.46 139.598 243.668 148.217C242.783 149.809 241.282 150.696 239.723 150.696H221.594C217.785 150.696 215.558 145.812 217.009 141.813C219.186 135.819 220.162 130.011 220.351 121.249ZM225.309 117.322C223.505 117.322 222.028 119.092 221.981 121.298C221.787 130.244 220.784 136.312 218.505 142.591C217.454 145.485 219.123 148.743 221.594 148.743H239.723C240.774 148.743 241.748 148.147 242.311 147.136C246.861 138.951 247.946 132.206 247.779 121.034C247.747 118.972 246.318 117.322 244.567 117.322H225.309Z" fill="#E7E8FF"/>
<path d="M137.261 109.254C137.261 106.559 139.086 104.374 141.337 104.374H141.669C143.92 104.374 145.745 106.559 145.745 109.254V109.651C145.745 112.346 143.92 114.531 141.669 114.531H141.337C139.086 114.531 137.261 112.346 137.261 109.651V109.254ZM177.634 134.258C177.634 131.562 179.46 129.377 181.711 129.377H182.042C184.293 129.377 186.118 131.562 186.118 134.258V134.654C186.118 137.35 184.293 139.535 182.042 139.535H181.711C179.46 139.535 177.634 137.35 177.634 134.654V134.258Z" fill="#032068"/>
<path d="M230.59 116.51C230.59 113.814 232.415 111.629 234.666 111.629H234.998C237.249 111.629 239.074 113.814 239.074 116.51V116.906C239.074 119.602 237.249 121.787 234.998 121.787H234.666C232.415 121.787 230.59 119.602 230.59 116.906V116.51Z" fill="#E7E8FF"/>
<path fill-rule="evenodd" clip-rule="evenodd" d="M147.261 124.94H134.534V122.987H147.261V124.94ZM145.139 133.646H132.412V131.693H145.139V133.646ZM187.633 149.942H174.906V147.991H187.633V149.942ZM185.512 158.649H172.786V156.697H185.512V158.649Z" fill="#032068"/>
<path fill-rule="evenodd" clip-rule="evenodd" d="M180.592 182.256H128.473V180.304H180.592V182.256ZM154.059 193.865H128.473V191.913H154.059V193.865Z" fill="#E7E8FF"/>
<path d="M192.688 251.615C196.204 280.227 214.403 296.763 223.853 301.851C224.156 302.014 224.476 302.09 224.809 302.09H227.473C229.055 302.09 230.223 300.312 229.795 298.487C222.511 267.453 205.623 253.22 195.502 248.777C193.946 248.095 192.447 249.651 192.688 251.615Z" fill="white"/>
<path fill-rule="evenodd" clip-rule="evenodd" d="M195.222 249.694C194.29 249.285 193.337 250.184 193.495 251.472C196.958 279.65 214.898 295.96 224.188 300.961C224.376 301.063 224.582 301.113 224.809 301.113H227.473C228.537 301.113 229.286 299.929 229.009 298.751C221.803 268.044 205.117 254.037 195.222 249.694ZM191.882 251.756C191.557 249.117 193.602 246.903 195.783 247.861C206.129 252.402 223.22 266.864 230.58 298.223C231.16 300.695 229.575 303.066 227.473 303.066H224.809C224.371 303.066 223.936 302.966 223.518 302.742C213.909 297.568 195.451 280.805 191.882 251.756Z" fill="#032068"/>
<path fill-rule="evenodd" clip-rule="evenodd" d="M207.338 268.083C204.818 264.981 202.541 262.496 200.545 260.372L201.628 258.912C203.981 261.417 206.744 264.443 209.839 268.391C212.138 271.325 214.616 274.764 217.245 278.877V274.668H218.876V281.485C221.121 285.155 223.467 289.316 225.896 294.067C227.049 296.32 228.22 298.707 229.409 301.235L227.988 302.192C226.875 299.826 225.779 297.586 224.7 295.466L219.464 294.413L219.734 292.487L223.559 293.257C221.433 289.197 219.378 285.596 217.404 282.384C214.358 277.426 211.505 273.395 208.891 270.035H203.596V268.083H207.338Z" fill="#032068"/>
<path d="M221.218 201.929C205.986 240.449 216.916 282.69 225.189 300.991C225.607 301.914 226.415 302.465 227.292 302.465H231.121C232.407 302.465 233.474 301.258 233.554 299.722C236.048 251.139 229.857 217.266 225.179 202.091C224.493 199.868 222.065 199.787 221.218 201.929Z" fill="#032068"/>
<path d="M256.498 223.884C236.973 239.672 227.495 278.24 224.705 299.18C224.473 300.926 225.615 302.465 227.092 302.465H232.732C233.365 302.465 233.974 302.174 234.423 301.639C252.241 280.393 258.562 245.327 259.841 226.298C259.991 224.069 258.046 222.633 256.498 223.884Z" fill="white"/>
<path fill-rule="evenodd" clip-rule="evenodd" d="M259.029 226.22C259.127 224.752 257.899 223.93 256.955 224.694C247.381 232.434 240.208 245.825 235.074 259.989C229.947 274.133 226.896 288.929 225.51 299.334C225.36 300.461 226.094 301.489 227.092 301.489H232.732C233.157 301.489 233.557 301.293 233.848 300.948C242.637 290.467 248.619 276.539 252.563 262.82C256.506 249.107 258.394 235.664 259.029 226.22ZM256.042 223.075C258.194 221.335 260.855 223.386 260.654 226.377C260.01 235.961 258.098 249.567 254.105 263.455C250.114 277.338 244.026 291.566 234.998 302.331C234.392 303.053 233.573 303.441 232.732 303.441H227.092C225.135 303.441 223.585 301.391 223.9 299.027C225.304 288.491 228.387 273.533 233.579 259.211C238.763 244.91 246.092 231.122 256.042 223.075Z" fill="#032068"/>
<path d="M272.906 265.152C253.541 266.021 238.927 285.28 232.24 298.293C231.281 300.16 232.444 302.465 234.274 302.465H241.048C241.387 302.465 241.721 302.382 242.03 302.215C254.735 295.293 267.656 279.422 274.582 269.424C275.81 267.65 274.83 265.066 272.906 265.152Z" fill="#032068"/>
<path fill-rule="evenodd" clip-rule="evenodd" d="M223.865 208.211C223.65 215.999 223.616 223.519 223.722 230.7C223.804 236.259 223.969 241.614 224.198 246.73L227.69 239.971L229.077 240.998L224.361 250.126C224.691 256.58 225.119 262.624 225.603 268.181C226.177 274.776 226.827 280.684 227.485 285.78L230.51 279.797L231.906 280.808L227.883 288.764C228.684 294.584 229.473 299.147 230.117 302.228L228.535 302.702C227.864 299.491 227.049 294.749 226.224 288.725C225.458 283.123 224.685 276.405 224.014 268.765L218.122 262.633L219.192 261.16L223.773 265.929C223.365 260.942 223.003 255.594 222.718 249.934C222.416 243.959 222.197 237.637 222.097 231.025L217.982 223.752L219.332 222.658L222.054 227.468C222 221.252 222.051 214.796 222.235 208.147L223.865 208.211Z" fill="white"/>
<path fill-rule="evenodd" clip-rule="evenodd" d="M246.192 254.364C249.269 246.121 252.441 238.393 255.442 232.344L254.04 231.346C250.747 237.985 247.272 246.568 243.954 255.589C242.148 260.498 240.386 265.545 238.723 270.486L237.343 262.083L235.742 262.46L237.61 273.824C235.889 279.023 234.293 284.047 232.889 288.604C231.257 293.897 229.882 298.564 228.867 302.152L230.411 302.778C231.4 299.283 232.735 294.751 234.318 289.606L242.603 283.773L241.777 282.09L235.215 286.71C236.438 282.794 237.783 278.595 239.214 274.277C241.122 268.52 243.18 262.554 245.3 256.773L252.801 253.808L252.289 251.954L246.192 254.364Z" fill="#032068"/>
<path fill-rule="evenodd" clip-rule="evenodd" d="M270.127 270.68C265.652 273.002 261.105 276.174 256.767 279.692C254.034 281.909 251.388 284.259 248.9 286.614H253.172V288.566H246.874C241.108 294.218 236.384 299.677 233.687 303.132L232.495 301.799C235.279 298.232 240.145 292.616 246.068 286.834C249.041 283.932 252.283 280.983 255.665 278.228L258.08 272.002L259.559 272.825L258.259 276.178C261.922 273.368 265.714 270.842 269.478 268.889L270.127 270.68Z" fill="white"/>
</svg>
