<svg width="480" height="417" viewBox="0 0 480 417" fill="none" xmlns="http://www.w3.org/2000/svg">
<path d="M90.7873 414.545H262.649H412.859C452.277 414.545 475.201 370.104 452.283 338.118C443.33 325.622 440.865 309.624 445.643 295.023L472.288 213.605C489.574 160.785 477.344 102.78 440.191 61.378L421.672 40.7401C381.339 -4.20672 313.594 -12.9561 262.589 19.4567C234.437 37.347 199.755 43.0226 167.425 34.7367L157.315 32.1458C104.217 18.5376 49.2646 46.4736 29.1072 97.3226L28.3591 99.2099C17.8999 125.594 18.7323 155.1 30.6623 180.856L35.7321 191.801C49.0269 220.504 44.9025 254.406 25.2916 279.247C-1.42925 313.095 1.8697 361.944 33.1887 391.612C48.7321 406.336 69.3505 414.545 90.7873 414.545Z" fill="#E7E8FF"/>
<path d="M387.883 414.728H375.776C387.201 380.532 401.339 364.663 409.378 359.305C410.891 358.296 412.655 359.513 412.496 361.322C410.24 387.01 395.375 407.456 387.883 414.728Z" fill="white"/>
<path fill-rule="evenodd" clip-rule="evenodd" d="M410.859 360.316C411.067 360.454 411.266 360.754 411.226 361.211C409.04 386.102 394.809 406.032 387.361 413.457H377.552C388.821 380.573 402.495 365.422 410.086 360.362C410.411 360.146 410.673 360.192 410.859 360.316ZM412.269 358.197C411.235 357.513 409.859 357.455 408.67 358.247C400.311 363.819 386.042 379.978 374.567 414.326L374.008 416H388.401L388.772 415.64C396.418 408.217 411.476 387.503 413.765 361.433C413.884 360.081 413.281 358.868 412.269 358.197Z" fill="#032068"/>
<path d="M415.186 291.25C421.276 339.236 391.722 394.097 375.776 416H357.934C366.436 325.522 394.919 294.276 411.054 288.485C413.005 287.785 414.925 289.197 415.186 291.25Z" fill="#032068"/>
<path fill-rule="evenodd" clip-rule="evenodd" d="M395.939 325.139L401.966 306.882L404.387 307.678L389.343 353.244L400.738 348.084L401.791 350.4L388.259 356.527L375.847 394.124L386.659 388.793L387.788 391.073L374.728 397.512L368.703 415.762L366.282 414.966L378.521 377.896L372.045 361.796L374.41 360.848L379.759 374.146L394.686 328.933L389.882 316.643L392.257 315.719L395.939 325.139Z" fill="white"/>
<path d="M385.634 259.392C404.716 306.526 380.487 382.091 365.581 414.728H344.553C345.023 312.031 367.194 269.177 380.806 257.965C382.472 256.592 384.825 257.393 385.634 259.392Z" fill="white"/>
<path fill-rule="evenodd" clip-rule="evenodd" d="M381.617 258.946C382.503 258.215 383.907 258.522 384.452 259.868C393.853 283.09 392.622 313.467 387.101 342.257C381.671 370.573 372.132 397.146 364.759 413.457H345.834C346.156 362.867 351.774 326.999 358.975 302.396C366.249 277.543 375.099 264.314 381.617 258.946ZM386.816 258.916C385.742 256.264 382.44 254.969 379.994 256.984C372.9 262.828 363.86 276.632 356.528 301.683C349.183 326.778 343.514 363.289 343.278 414.723L343.273 416H366.4L366.74 415.256C374.23 398.857 384.048 371.71 389.604 342.735C395.153 313.801 396.496 282.829 386.816 258.916Z" fill="#032068"/>
<path fill-rule="evenodd" clip-rule="evenodd" d="M372.636 309.061L377.068 282.908L379.581 283.332L370.682 335.848L381.471 329.091L382.826 331.245L370.113 339.208L362.651 383.242L370.752 379.255L371.879 381.536L362.127 386.335L357.279 414.941L354.766 414.517L362.778 367.235L354.877 351.071L357.168 349.956L363.508 362.927L371.933 313.212L363.814 297.696L366.073 296.519L372.636 309.061Z" fill="#032068"/>
<path d="M405.149 77.4835C405.149 103.407 384.134 124.422 358.211 124.422C332.288 124.422 311.273 103.407 311.273 77.4835C311.273 51.5604 332.288 30.5455 358.211 30.5455C384.134 30.5455 405.149 51.5604 405.149 77.4835Z" fill="white"/>
<path fill-rule="evenodd" clip-rule="evenodd" d="M358.211 32C333.091 32 312.727 52.3637 312.727 77.4835C312.727 102.603 333.091 122.967 358.211 122.967C383.331 122.967 403.694 102.603 403.694 77.4835C403.694 52.3637 383.331 32 358.211 32ZM309.818 77.4835C309.818 50.757 331.484 29.0909 358.211 29.0909C384.937 29.0909 406.603 50.757 406.603 77.4835C406.603 104.21 384.937 125.876 358.211 125.876C331.484 125.876 309.818 104.21 309.818 77.4835Z" fill="#032068"/>
<path d="M368.214 77.4835C368.214 83.0081 363.735 87.4867 358.211 87.4867C352.686 87.4867 348.208 83.0081 348.208 77.4835C348.208 71.9589 352.686 67.4803 358.211 67.4803C363.735 67.4803 368.214 71.9589 368.214 77.4835Z" fill="#F4AD5E"/>
<path fill-rule="evenodd" clip-rule="evenodd" d="M357.043 38.1116L360.482 76.8195L343.17 97.6501L340.933 95.7907L357.478 75.8824L354.146 38.369L357.043 38.1116Z" fill="#032068"/>
<path d="M343.306 158.496L345.676 150.917C346.098 149.568 348.003 149.553 348.446 150.896L350.872 158.262C351.019 158.708 351.372 159.055 351.82 159.195L359.919 161.728C361.224 162.136 361.296 163.955 360.028 164.466L352.072 167.671C351.685 167.827 351.384 168.141 351.244 168.534L348.096 177.417C347.629 178.736 345.75 178.698 345.336 177.361L342.72 168.922C342.593 168.511 342.29 168.177 341.893 168.011L333.027 164.297C331.723 163.751 331.887 161.853 333.265 161.537L342.243 159.48C342.747 159.364 343.151 158.99 343.306 158.496Z" fill="#F4AD5E"/>
<path d="M415.262 225.026L417.005 223.145C417.966 222.108 419.692 222.913 419.515 224.316L419.202 226.785C419.143 227.251 419.313 227.716 419.657 228.035L421.938 230.148C422.941 231.077 422.225 232.751 420.861 232.667L417.665 232.472C417.249 232.446 416.842 232.601 416.547 232.896L414.017 235.43C413.028 236.42 411.348 235.579 411.548 234.194L412.009 231.006C412.071 230.58 411.94 230.149 411.653 229.828L409.236 227.126C408.293 226.073 409.255 224.43 410.635 224.736L413.879 225.458C414.384 225.57 414.91 225.406 415.262 225.026Z" fill="#F4AD5E"/>
<path d="M85.153 93.6446L79.1548 101.637C78.7898 102.123 78.1946 102.357 77.6117 102.244L70.1981 100.798C68.6031 100.487 67.6409 102.573 68.8718 103.673L74.6984 108.879C75.1238 109.26 75.3247 109.845 75.2269 110.42L73.7652 119.005C73.4904 120.619 75.4003 121.618 76.4817 120.425L82.4669 113.828C82.8183 113.441 83.3278 113.253 83.8351 113.325L90.7618 114.307C92.3221 114.528 93.2058 112.505 92.0193 111.427L86.868 106.751C86.4544 106.375 86.2567 105.804 86.3455 105.24L87.9697 94.9273C88.2353 93.2407 86.1641 92.2974 85.153 93.6446Z" fill="#F4AD5E"/>
<path d="M15.3731 199.157L11.2943 204.485C11.0461 204.809 10.6414 204.965 10.245 204.89L5.20378 203.926C4.11918 203.719 3.46487 205.109 4.30192 205.843L8.26398 209.314C8.55325 209.567 8.68988 209.957 8.62337 210.34L7.62939 216.064C7.44253 217.14 8.74128 217.806 9.47665 217.011L13.5466 212.613C13.7855 212.354 14.132 212.229 14.4769 212.277L19.1871 212.932C20.2481 213.079 20.849 211.73 20.0422 211.012L16.5393 207.894C16.258 207.644 16.1236 207.263 16.184 206.887L17.2885 200.012C17.4691 198.888 16.0606 198.259 15.3731 199.157Z" fill="#F4AD5E"/>
<path d="M109.95 168.111L70.5051 195.006C70.4155 195.067 70.2934 195.044 70.2322 194.954C65.8505 188.54 67.5013 179.792 73.9196 175.416L90.446 164.148C96.8642 159.771 105.619 161.424 110.001 167.838C110.062 167.927 110.039 168.049 109.95 168.111Z" fill="#032068"/>
<path d="M114.905 181.988L81.6323 204.675C79.8386 205.898 77.3917 205.436 76.1671 203.644L72.5572 198.359C71.3326 196.567 71.794 194.122 73.5878 192.899L106.861 170.212C108.655 168.989 111.101 169.45 112.326 171.243L115.936 176.527C117.161 178.32 116.699 180.765 114.905 181.988Z" fill="#F4AD5E"/>
<path d="M114.159 201.915L100.482 211.24C93.2766 216.153 83.4483 214.298 78.5294 207.098C78.4501 206.982 78.4799 206.823 78.5962 206.744L117.944 179.915C118.06 179.836 118.219 179.866 118.298 179.982C123.217 187.182 121.364 197.002 114.159 201.915Z" fill="#032068"/>
<path d="M69.8986 218.757C70.9267 222.143 69.4702 228.231 68.6134 230.851L93.6765 233.875C93.8907 231.859 94.4476 227.344 94.9616 225.409C95.6042 222.99 101.388 218.152 102.673 214.524C103.701 211.622 101.816 202.027 100.745 197.593C95.6042 198.197 94.3191 201.221 93.6765 202.43C93.0339 203.64 92.3913 212.71 92.3913 213.315C90.2755 214.323 84.751 213.92 79.5788 209.082L71.1838 197.593C66.0431 206.059 68.6134 214.524 69.8986 218.757Z" fill="#EFCB96"/>
<path d="M244.379 173.594L250.536 199.276C248.975 204.777 242.249 216.076 227.832 217.265C213.414 218.454 206.091 206.298 204.232 200.072L204.827 182.899C201.407 182.174 194.069 177.138 192.076 162.797C189.585 144.871 191.603 120.529 204.123 113.453C216.642 106.377 237.079 109.728 251.411 136.751C262.877 158.369 251.5 170.32 244.379 173.594Z" fill="#EFCB96"/>
<path d="M240.639 164.838C240.97 168.84 242.941 176.4 245.051 181.599C250.306 184.188 266.423 159.69 266.522 136.513C266.601 117.972 255.247 113.939 249.436 112.739C248.826 109.431 243.103 99.5615 221.747 94.8755C195.053 89.0181 173.853 100.84 179.596 121.52C185.339 142.2 216.881 133.555 221.887 133.142C226.893 132.73 226.306 137.815 231.304 149.491C236.302 161.166 235.723 154.163 237.312 148.995C238.9 143.828 246.414 137.164 248.326 148.087C250.237 159.01 240.225 159.836 240.639 164.838Z" fill="#032068"/>
<path d="M225.94 182.164C215.659 184.624 207.582 183.678 204.829 182.897L204.408 189.984C210.015 189.522 221.099 184.578 225.94 182.164Z" fill="#032068"/>
<path d="M228.597 204.169C213.325 204.169 205.488 196.808 203.478 193.127C190.555 194.77 171.555 201.738 156.714 211.489C156.289 211.763 155.829 212.07 155.337 212.411C151.066 215.319 147.18 218.46 143.937 221.769C134.058 230.896 121.163 245.181 109.506 264.342C108.296 254.909 105.294 235.317 102.97 232.414C100.064 228.786 65.9292 225.883 60.8452 230.237C55.7613 234.591 31.0677 337.631 44.8671 361.577C58.6664 385.523 90.9134 386.249 107.327 371.736L128.389 351.418L123.305 415.981H328.064C337.443 416.316 358.811 412.367 369.26 393.896C382.322 370.808 351.175 257.373 331.08 229.266C315.004 206.779 271.466 195.804 251.706 193.127C250.366 196.808 243.869 204.169 228.597 204.169Z" fill="#F4AD5E"/>
<path d="M184.394 347.097L188.261 413.743C188.301 414.436 188.875 414.977 189.569 414.977H227.285C227.979 414.977 228.553 414.436 228.594 413.743L232.461 347.097C232.504 346.346 231.906 345.712 231.152 345.712H185.702C184.949 345.712 184.35 346.346 184.394 347.097Z" fill="white"/>
<path fill-rule="evenodd" clip-rule="evenodd" d="M183.085 347.173C182.998 345.67 184.195 344.402 185.702 344.402H231.152C232.659 344.402 233.856 345.67 233.769 347.173L229.902 413.819C229.822 415.205 228.674 416.287 227.285 416.287H189.569C188.18 416.287 187.032 415.205 186.952 413.819L183.085 347.173ZM231.152 347.022L185.702 347.022L189.569 413.668H227.285L231.152 347.022Z" fill="#032068"/>
<path d="M189.569 414.977H227.284C227.979 414.977 228.553 414.436 228.593 413.743L231.195 368.888C231.232 368.256 230.797 367.683 230.177 367.55C210.968 363.443 206.359 376.703 187.626 368.72C186.707 368.328 185.665 369.022 185.723 370.019L188.26 413.743C188.3 414.436 188.874 414.977 189.569 414.977Z" fill="#032068"/>
<path fill-rule="evenodd" clip-rule="evenodd" d="M199.499 372.637C195.925 372.697 191.942 371.983 187.112 369.925C187.103 369.921 187.097 369.92 187.093 369.919C187.089 369.918 187.085 369.918 187.08 369.919C187.069 369.92 187.056 369.925 187.043 369.933C187.038 369.937 187.034 369.94 187.032 369.943C187.032 369.943 187.032 369.943 187.032 369.943L189.569 413.667H227.284L229.886 368.827C221.387 367.014 215.928 368.716 210.492 370.412C210.031 370.555 209.57 370.699 209.107 370.841C206.135 371.75 203.057 372.577 199.499 372.637ZM230.451 366.269L230.177 367.55L230.176 367.552M230.451 366.269C221.255 364.303 215.215 366.191 209.73 367.905L230.451 366.269ZM209.73 367.905C209.263 368.05 208.8 368.195 208.339 368.336L209.73 367.905ZM208.339 368.336C205.416 369.231 202.629 369.965 199.455 370.018L208.339 368.336ZM199.455 370.018C196.295 370.071 192.677 369.449 188.141 367.515L199.455 370.018ZM230.451 366.269C231.707 366.538 232.578 367.69 232.504 368.964L229.901 413.819C229.821 415.204 228.673 416.287 227.284 416.287H189.569C188.18 416.287 187.032 415.204 186.951 413.819L184.414 370.095C184.297 368.07 186.38 366.765 188.141 367.515M230.451 366.269L230.177 367.55L230.451 366.269Z" fill="#032068"/>
<path d="M199.328 297.933C199.058 296.353 200.121 294.853 201.702 294.583C203.284 294.313 204.785 295.375 205.056 296.955L212.155 338.44C212.426 340.02 211.363 341.52 209.781 341.79C208.2 342.06 206.699 340.998 206.428 339.418L199.328 297.933Z" fill="#032068"/>
<path d="M246.389 375.79L246.661 401.094C243.528 400.857 238.188 404.713 226.027 405.497C211.996 406.4 204.708 401.893 205.121 384.596C205.533 367.298 220.77 371.293 224.886 371.32C229.001 371.348 226.295 368.302 233.174 366.835C238.676 365.661 244.277 372.316 246.389 375.79Z" fill="#EFCB96"/>
<path d="M140.963 257.812L129.116 350.693L117.495 361.577L140.963 257.812Z" fill="#032068"/>
<path d="M307.055 339.083L301.244 291.917L297.613 341.26C290.06 345.904 259.846 357.949 247.5 368.834C256.215 363.748 298.823 348.032 322.307 339.083H307.055Z" fill="#032068"/>
<path d="M339.737 416C325.793 416 274.372 410.195 250.405 407.292L281.635 416H339.737Z" fill="#032068"/>
<path d="M238.2 347.79H178.361C177.637 347.79 177.05 347.204 177.05 346.481V338.941C177.05 338.218 177.637 337.631 178.361 337.631H238.2C238.924 337.631 239.51 338.218 239.51 338.941V346.481C239.51 347.204 238.924 347.79 238.2 347.79Z" fill="#032068"/>
<path d="M187.218 332.552L184.313 339.083H232.248L229.342 332.552H187.218Z" fill="white"/>
<path fill-rule="evenodd" clip-rule="evenodd" d="M186.367 331.242H230.195L234.265 340.392H182.296L186.367 331.242ZM188.07 333.861L186.33 337.773H230.231L228.491 333.861H188.07Z" fill="#032068"/>
<path d="M109.739 10.3262C103.158 13.2714 99.8881 15.7186 94.6303 21.1882C89.5592 26.4636 94.7486 44.9059 108.589 64.3382C122.429 83.7706 137.655 93.9922 144.75 91.5589C151.566 88.2892 154.955 85.9673 159.888 80.7168C159.923 80.6794 159.956 80.6395 159.985 80.597C164.7 73.6462 159.341 56.2642 145.983 37.5098C132.636 18.7701 117.418 8.47399 109.907 10.2681C109.849 10.2819 109.793 10.3018 109.739 10.3262Z" fill="white"/>
<path fill-rule="evenodd" clip-rule="evenodd" d="M126.372 15.3423C132.89 20.1125 140.107 27.4578 146.832 36.9006C153.556 46.3402 158.294 55.4711 160.755 63.1592C161.986 67.0025 162.658 70.5186 162.709 73.5522C162.759 76.5769 162.191 79.207 160.848 81.1866L159.985 80.597L160.848 81.1867C160.784 81.2802 160.716 81.363 160.648 81.4357L159.888 80.7168L160.648 81.4356C160.648 81.4356 160.648 81.4357 160.648 81.4357C155.613 86.7943 152.114 89.1878 145.2 92.5042L145.145 92.5306L145.088 92.5503C143.003 93.2652 140.461 93.0122 137.711 92.0547C134.943 91.0911 131.851 89.3753 128.586 86.996C122.052 82.2352 114.709 74.7334 107.74 64.9475C100.771 55.1624 95.955 45.5945 93.5214 37.7664C92.3056 33.8556 91.671 30.3368 91.6819 27.4193C91.6927 24.5275 92.3405 22.0613 93.8791 20.4607C99.216 14.9089 102.593 12.377 109.314 9.36931L109.739 10.3262L109.314 9.36931C109.419 9.32239 109.536 9.27985 109.666 9.24889L109.907 10.2681L109.909 10.2736M109.907 10.2681L109.666 9.24888C111.825 8.73305 114.411 9.10821 117.2 10.1506C120.005 11.199 123.113 12.9578 126.372 15.3423M110.161 11.2845C111.755 10.9072 113.884 11.1475 116.472 12.1143C119.049 13.0774 121.988 14.7275 125.142 17.0353C131.447 21.6495 138.513 28.8222 145.134 38.1191C151.768 47.4339 156.389 56.3711 158.768 63.8003C159.957 67.5156 160.575 70.8204 160.621 73.587C160.667 76.3578 160.139 78.5045 159.127 80C154.31 85.1262 151.037 87.3781 144.358 90.586C142.899 91.0664 140.896 90.9461 138.395 90.0751C135.88 89.1992 132.97 87.6014 129.812 85.3004C123.499 80.7006 116.309 73.3754 109.438 63.729C102.567 54.0817 97.8677 44.7123 95.5143 37.1423C94.3366 33.3541 93.7597 30.0587 93.7695 27.4272C93.7795 24.7701 94.3846 22.9527 95.3816 21.9156C100.559 16.5292 103.721 14.1667 110.161 11.2845Z" fill="#032068"/>
<path fill-rule="evenodd" clip-rule="evenodd" d="M105.095 12.6416C106.082 12.085 108.072 14.0098 107.972 15.1417C107.258 23.2316 112.794 38.0256 123.774 53.4428C135.734 70.2353 148.729 80.1496 156.618 80.9632C157.858 81.0911 158.972 80.994 159.936 80.6635C159.937 80.663 159.938 80.6625 159.939 80.662C159.942 80.6606 159.945 80.664 159.943 80.6666C159.943 80.6668 159.943 80.6669 159.943 80.667C154.98 85.9575 151.592 88.2843 144.751 91.5658C137.656 93.9991 122.43 83.7775 108.59 64.3451C94.7496 44.9128 89.5601 26.4705 94.6313 21.195C98.4918 17.1789 101.28 14.7923 105.095 12.6416Z" fill="#032068"/>
<path fill-rule="evenodd" clip-rule="evenodd" d="M160.293 81.6479L160.273 81.6549C160.259 81.6597 160.245 81.6644 160.232 81.669C160.252 81.6627 160.273 81.6557 160.293 81.6479ZM157.129 82.0527C156.925 82.0427 156.719 82.0269 156.511 82.0054C152.259 81.5669 146.842 78.7269 141.064 74.0078C135.25 69.2599 128.949 62.5109 122.925 54.0521C117.393 46.2855 113.222 38.6604 110.52 31.9364C107.829 25.2417 106.554 19.3379 106.932 15.0494C106.932 15.0532 106.932 15.0526 106.931 15.0476C106.928 15.0253 106.91 14.9147 106.797 14.7141C106.67 14.4908 106.473 14.2464 106.24 14.035C106.004 13.8198 105.778 13.6819 105.614 13.6212C105.579 13.6083 105.552 13.6007 105.533 13.5962C101.878 15.6673 99.1802 17.9715 95.3822 21.9225C94.3853 22.9596 93.7801 24.7771 93.7702 27.4341C93.7604 30.0656 94.3373 33.361 95.515 37.1492C97.8683 44.7192 102.568 54.0886 109.439 63.7359C116.309 73.3823 123.5 80.7075 129.813 85.3073C132.971 87.6084 135.88 89.2062 138.396 90.0821C140.897 90.953 142.9 91.0733 144.358 90.593C150.076 87.8469 153.298 85.8013 157.129 82.0527ZM105.495 13.5903C105.495 13.5902 105.497 13.59 105.502 13.5905C105.497 13.5908 105.495 13.5905 105.495 13.5903ZM160.386 81.6086L160.389 81.6071L160.386 81.6086ZM159.565 79.6832C160.505 79.3125 161.399 80.4003 160.799 81.2653C160.769 81.3086 160.737 81.3486 160.702 81.3852C155.638 86.7838 152.14 89.1825 145.201 92.5111L145.146 92.5375L145.088 92.5573C143.004 93.2722 140.461 93.0192 137.712 92.0617C134.944 91.0981 131.852 89.3822 128.586 87.0029C122.052 82.2422 114.71 74.7403 107.74 64.9544C100.771 55.1693 95.9556 45.6015 93.522 37.7733C92.3062 33.8625 91.6716 30.3437 91.6825 27.4263C91.6933 24.5344 92.3412 22.0683 93.8798 20.4677C97.7777 16.4127 100.647 13.9479 104.584 11.7282C105.205 11.3777 105.867 11.4817 106.336 11.6554C106.82 11.8344 107.27 12.1442 107.642 12.4821C108.018 12.8238 108.361 13.238 108.61 13.6766C108.847 14.0928 109.064 14.6472 109.012 15.2342C108.676 19.0355 109.812 24.5736 112.456 31.1526C115.088 37.7025 119.174 45.1829 124.623 52.8336C130.559 61.1672 136.736 67.7717 142.381 72.3825C148.062 77.0221 153.087 79.546 156.724 79.921C157.835 80.0357 158.782 79.9456 159.565 79.6832Z" fill="#032068"/>
<path fill-rule="evenodd" clip-rule="evenodd" d="M125.141 32.9055C125.009 31.7006 125.12 30.4991 125.746 29.5631L127.479 30.7313C127.25 31.0734 127.108 31.6868 127.216 32.6775C127.322 33.6469 127.653 34.8381 128.19 36.1905C129.262 38.8902 131.088 42.0669 133.249 45.101C135.409 48.1334 137.868 50.9746 140.179 53.0185C141.335 54.0412 142.43 54.8427 143.411 55.3712C144.409 55.9086 145.193 56.1123 145.76 56.077L145.89 58.1683C144.766 58.2383 143.575 57.8378 142.424 57.2173C141.256 56.5879 140.028 55.6776 138.799 54.5905C136.339 52.4149 133.776 49.4445 131.551 46.3195C129.326 43.1962 127.403 39.8695 126.25 36.9662C125.675 35.517 125.274 34.1317 125.141 32.9055Z" fill="#032068"/>
</svg>
