<svg width="184" height="30" viewBox="0 0 184 30" fill="none" xmlns="http://www.w3.org/2000/svg">
<path d="M-5.55068e-05 1.24645H5.68886L11.6974 15.9055H11.9531L17.9616 1.24645H23.6505V23.0646H19.1761V8.86364H18.995L13.3487 22.9581H10.3018L4.65548 8.81037H4.47438V23.0646H-5.55068e-05V1.24645ZM30.1677 29.201C29.5925 29.201 29.0527 29.1548 28.5484 29.0625C28.0513 28.9773 27.6393 28.8672 27.3126 28.7322L28.3353 25.3445C28.868 25.5078 29.3474 25.5966 29.7736 25.6108C30.2068 25.625 30.5797 25.5256 30.8922 25.3125C31.2118 25.0994 31.471 24.7372 31.6699 24.2259L31.9362 23.5334L26.0662 6.701H30.8389L34.2267 18.718H34.3971L37.8169 6.701H42.6216L36.2615 24.8331C35.9561 25.7138 35.5406 26.4808 35.015 27.1342C34.4966 27.7947 33.8396 28.3026 33.0442 28.6577C32.2487 29.0199 31.2899 29.201 30.1677 29.201ZM51.1416 5.04972V1.24645H69.0607V5.04972H62.381V23.0646H57.8213V5.04972H51.1416ZM76.9469 23.3842C75.292 23.3842 73.8609 23.0327 72.6535 22.3296C71.4532 21.6193 70.5264 20.6321 69.873 19.3679C69.2196 18.0966 68.8929 16.6229 68.8929 14.9467C68.8929 13.2564 69.2196 11.7791 69.873 10.5149C70.5264 9.24361 71.4532 8.2564 72.6535 7.55327C73.8609 6.84304 75.292 6.48793 76.9469 6.48793C78.6017 6.48793 80.0292 6.84304 81.2295 7.55327C82.4369 8.2564 83.3673 9.24361 84.0207 10.5149C84.6741 11.7791 85.0008 13.2564 85.0008 14.9467C85.0008 16.6229 84.6741 18.0966 84.0207 19.3679C83.3673 20.6321 82.4369 21.6193 81.2295 22.3296C80.0292 23.0327 78.6017 23.3842 76.9469 23.3842ZM76.9682 19.8686C77.721 19.8686 78.3496 19.6555 78.8538 19.2294C79.3581 18.7962 79.738 18.2067 79.9937 17.4609C80.2565 16.7152 80.3879 15.8665 80.3879 14.9148C80.3879 13.9631 80.2565 13.1144 79.9937 12.3686C79.738 11.6229 79.3581 11.0334 78.8538 10.6001C78.3496 10.1669 77.721 9.95029 76.9682 9.95029C76.2082 9.95029 75.569 10.1669 75.0505 10.6001C74.5392 11.0334 74.1521 11.6229 73.8893 12.3686C73.6336 13.1144 73.5058 13.9631 73.5058 14.9148C73.5058 15.8665 73.6336 16.7152 73.8893 17.4609C74.1521 18.2067 74.5392 18.7962 75.0505 19.2294C75.569 19.6555 76.2082 19.8686 76.9682 19.8686ZM93.9817 23.331C92.7388 23.331 91.613 23.0114 90.6045 22.3722C89.6031 21.7259 88.8077 20.7777 88.2182 19.5277C87.6358 18.2706 87.3446 16.7294 87.3446 14.9041C87.3446 13.0291 87.6464 11.4702 88.2501 10.2273C88.8538 8.97728 89.6564 8.04333 90.6578 7.42543C91.6663 6.80043 92.7707 6.48793 93.971 6.48793C94.8872 6.48793 95.6507 6.64418 96.2615 6.95668C96.8794 7.26208 97.3765 7.6456 97.753 8.10725C98.1365 8.56179 98.4277 9.00924 98.6265 9.44958H98.765V1.24645H103.293V23.0646H98.8183V20.4439H98.6265C98.4135 20.8984 98.1116 21.3494 97.721 21.7969C97.3375 22.2372 96.8368 22.603 96.2189 22.8942C95.6081 23.1854 94.8623 23.331 93.9817 23.331ZM95.4199 19.7195C96.1514 19.7195 96.7693 19.5206 97.2736 19.1229C97.7849 18.718 98.1755 18.1534 98.4454 17.429C98.7224 16.7046 98.8609 15.8558 98.8609 14.8828C98.8609 13.9098 98.726 13.0646 98.4561 12.3473C98.1862 11.63 97.7956 11.076 97.2842 10.6854C96.7728 10.2947 96.1514 10.0994 95.4199 10.0994C94.6741 10.0994 94.0456 10.3019 93.5342 10.7067C93.0228 11.1115 92.6358 11.6726 92.373 12.3899C92.1102 13.1072 91.9788 13.9382 91.9788 14.8828C91.9788 15.8345 92.1102 16.6761 92.373 17.4077C92.6429 18.1321 93.03 18.7003 93.5342 19.1122C94.0456 19.5171 94.6741 19.7195 95.4199 19.7195ZM114.418 23.3842C112.763 23.3842 111.332 23.0327 110.124 22.3296C108.924 21.6193 107.997 20.6321 107.344 19.3679C106.69 18.0966 106.364 16.6229 106.364 14.9467C106.364 13.2564 106.69 11.7791 107.344 10.5149C107.997 9.24361 108.924 8.2564 110.124 7.55327C111.332 6.84304 112.763 6.48793 114.418 6.48793C116.072 6.48793 117.5 6.84304 118.7 7.55327C119.908 8.2564 120.838 9.24361 121.491 10.5149C122.145 11.7791 122.472 13.2564 122.472 14.9467C122.472 16.6229 122.145 18.0966 121.491 19.3679C120.838 20.6321 119.908 21.6193 118.7 22.3296C117.5 23.0327 116.072 23.3842 114.418 23.3842ZM114.439 19.8686C115.192 19.8686 115.82 19.6555 116.325 19.2294C116.829 18.7962 117.209 18.2067 117.464 17.4609C117.727 16.7152 117.859 15.8665 117.859 14.9148C117.859 13.9631 117.727 13.1144 117.464 12.3686C117.209 11.6229 116.829 11.0334 116.325 10.6001C115.82 10.1669 115.192 9.95029 114.439 9.95029C113.679 9.95029 113.04 10.1669 112.521 10.6001C112.01 11.0334 111.623 11.6229 111.36 12.3686C111.104 13.1144 110.977 13.9631 110.977 14.9148C110.977 15.8665 111.104 16.7152 111.36 17.4609C111.623 18.2067 112.01 18.7962 112.521 19.2294C113.04 19.6555 113.679 19.8686 114.439 19.8686ZM132.451 23.0646V1.24645H137.064V19.2614H146.418V23.0646H132.451ZM149.387 23.0646V6.701H153.926V23.0646H149.387ZM151.667 4.59162C150.992 4.59162 150.414 4.3679 149.931 3.92046C149.455 3.46591 149.217 2.92259 149.217 2.29049C149.217 1.66549 149.455 1.12927 149.931 0.681824C150.414 0.227278 150.992 4.41074e-06 151.667 4.41074e-06C152.342 4.41074e-06 152.917 0.227278 153.393 0.681824C153.876 1.12927 154.117 1.66549 154.117 2.29049C154.117 2.92259 153.876 3.46591 153.393 3.92046C152.917 4.3679 152.342 4.59162 151.667 4.59162ZM171.176 11.3672L167.021 11.6229C166.95 11.2678 166.798 10.9482 166.563 10.6641C166.329 10.3729 166.02 10.1421 165.636 9.9716C165.26 9.79404 164.809 9.70526 164.284 9.70526C163.58 9.70526 162.987 9.85441 162.504 10.1527C162.021 10.4439 161.78 10.8345 161.78 11.3246C161.78 11.7152 161.936 12.0455 162.249 12.3153C162.561 12.5852 163.097 12.8019 163.857 12.9652L166.819 13.5618C168.41 13.8885 169.596 14.4141 170.377 15.1385C171.159 15.8629 171.549 16.8146 171.549 17.9936C171.549 19.0661 171.233 20.0071 170.601 20.8168C169.976 21.6264 169.117 22.2585 168.023 22.7131C166.936 23.1605 165.683 23.3842 164.262 23.3842C162.096 23.3842 160.37 22.9332 159.085 22.0313C157.806 21.1222 157.057 19.8864 156.837 18.3239L161.301 18.0895C161.435 18.75 161.762 19.2543 162.281 19.6023C162.799 19.9432 163.463 20.1136 164.273 20.1136C165.068 20.1136 165.708 19.9609 166.19 19.6555C166.681 19.343 166.929 18.9418 166.936 18.4517C166.929 18.0398 166.755 17.7024 166.414 17.4396C166.073 17.1697 165.548 16.9638 164.837 16.8217L162.004 16.2571C160.406 15.9375 159.216 15.3835 158.435 14.5952C157.661 13.8068 157.274 12.8019 157.274 11.5803C157.274 10.5291 157.558 9.62358 158.126 8.86364C158.701 8.1037 159.507 7.51776 160.544 7.10583C161.588 6.6939 162.81 6.48793 164.209 6.48793C166.276 6.48793 167.902 6.92472 169.088 7.7983C170.281 8.67188 170.977 9.86151 171.176 11.3672ZM183.111 6.701V10.1101H173.256V6.701H183.111ZM175.494 2.78054H180.032V18.0362C180.032 18.4553 180.096 18.782 180.224 19.0163C180.352 19.2436 180.529 19.4034 180.756 19.4957C180.991 19.5881 181.261 19.6342 181.566 19.6342C181.779 19.6342 181.992 19.6165 182.205 19.581C182.418 19.5384 182.582 19.5064 182.695 19.4851L183.409 22.8622C183.182 22.9332 182.862 23.0149 182.45 23.1072C182.038 23.2067 181.538 23.2671 180.948 23.2884C179.854 23.331 178.896 23.1854 178.072 22.8516C177.255 22.5178 176.619 21.9993 176.165 21.2962C175.71 20.593 175.486 19.7053 175.494 18.6328V2.78054Z" fill="white"/>
</svg>
