<svg width="130" height="45" viewBox="0 0 130 45" fill="none" xmlns="http://www.w3.org/2000/svg">
<path d="M1.30673 13.0924L13.2812 12.898L13.2387 10.2824L1.26426 10.4768L1.30673 13.0924ZM11.3097 3.83282L11.5825 20.6306L14.4141 20.5846L14.1413 3.78684L11.3097 3.83282ZM0.0311958 4.01596L0.303958 20.8137L3.13559 20.7678L2.86282 3.96998L0.0311958 4.01596ZM22.7483 20.6893C24.0281 20.6685 25.1199 20.4028 26.0238 19.892C26.9276 19.3813 27.6594 18.6253 28.2192 17.6241L25.9727 16.7485C25.6304 17.3461 25.1976 17.7932 24.6743 18.0897C24.1511 18.3862 23.5375 18.5402 22.8336 18.5517C22.1617 18.5626 21.5834 18.4279 21.0988 18.1478C20.6302 17.8673 20.2715 17.4571 20.0227 16.9171C19.7736 16.3611 19.6426 15.6831 19.6296 14.8832C19.6326 14.083 19.7497 13.4091 19.9808 12.8612C20.2119 12.3134 20.5571 11.8917 21.0164 11.5962C21.4757 11.3007 22.0333 11.1477 22.6892 11.137C23.2331 11.1282 23.707 11.2405 24.1108 11.474C24.5307 11.7072 24.8561 12.038 25.0871 12.4663C25.3341 12.8943 25.4624 13.4043 25.472 13.9962C25.4738 14.1082 25.4441 14.2527 25.383 14.4297C25.3376 14.5905 25.2917 14.7192 25.2452 14.816L26.0192 13.6993L18.5322 13.8209L18.561 15.5966L28.2558 15.4392C28.2707 15.375 28.277 15.2708 28.2747 15.1269C28.2883 14.9826 28.2941 14.8465 28.2921 14.7185C28.2728 13.5347 28.0325 12.5305 27.5711 11.7058C27.1253 10.865 26.4909 10.2272 25.6677 9.79249C24.8446 9.3578 23.8491 9.14993 22.6812 9.1689C21.5134 9.18786 20.5014 9.44432 19.6453 9.93829C18.789 10.4163 18.1278 11.0911 17.6619 11.9628C17.212 12.8342 16.9965 13.8538 17.0155 15.0217C17.0342 16.1735 17.2825 17.1776 17.7605 18.034C18.2385 18.8903 18.9053 19.5516 19.761 20.0177C20.6327 20.4836 21.6284 20.7075 22.7483 20.6893ZM30.5534 1.60009L30.8574 20.3176L33.449 20.2755L33.1451 1.558L30.5534 1.60009ZM36.4589 1.50419L36.7628 20.2217L39.3545 20.1796L39.0506 1.46211L36.4589 1.50419ZM41.7388 14.6202C41.757 15.7401 42.0292 16.7358 42.5554 17.6073C43.0974 18.4626 43.8203 19.131 44.7242 19.6124C45.6279 20.0778 46.6477 20.3012 47.7835 20.2828C48.9194 20.2644 49.9234 20.008 50.7954 19.5138C51.6833 19.0033 52.3841 18.3118 52.898 17.4394C53.4117 16.5509 53.6594 15.5468 53.6412 14.4269C53.6228 13.2911 53.3426 12.2955 52.8006 11.4402C52.2587 10.5849 51.5359 9.92452 50.6322 9.45913C49.7442 8.97748 48.7323 8.74588 47.5965 8.76432C46.4606 8.78277 45.4488 9.04723 44.561 9.55771C43.6729 10.0522 42.9719 10.7357 42.458 11.6081C41.9601 12.4803 41.7204 13.4843 41.7388 14.6202ZM44.4024 14.5769C44.3913 13.889 44.5254 13.2788 44.8048 12.7462C45.0842 12.2136 45.4695 11.7993 45.9608 11.5032C46.452 11.2072 47.0096 11.0542 47.6335 11.044C48.2414 11.0341 48.7957 11.1692 49.2963 11.4491C49.8129 11.7287 50.2195 12.1302 50.516 12.6534C50.8126 13.1767 50.9664 13.7823 50.9776 14.4702C50.9888 15.1581 50.8546 15.7683 50.5753 16.301C50.2956 16.8176 49.9023 17.232 49.3953 17.5443C48.904 17.8403 48.3544 17.9932 47.7465 18.0031C47.1226 18.0132 46.5603 17.8783 46.0597 17.5984C45.5589 17.3025 45.1603 16.9009 44.864 16.3937C44.5675 15.8704 44.4136 15.2649 44.4024 14.5769ZM65.5459 15.4338L74.4247 15.2896L73.8338 12.8989L66.0349 13.0255L65.5459 15.4338ZM69.8118 7.63549L72.5768 13.8314L72.6601 14.5262L75.0228 19.6005L78.2144 19.5486L69.7195 1.94824L61.8005 19.8152L64.9921 19.7633L67.2345 14.4702L67.2723 13.8455L69.8118 7.63549ZM79.3406 20.2744C79.3882 21.2338 79.6419 22.0778 80.1018 22.8064C80.5777 23.5348 81.2429 24.0921 82.0972 24.4782C82.9519 24.8804 83.9791 25.0718 85.179 25.0523C86.1868 25.0359 87.1192 24.8048 87.9761 24.3588C88.8332 23.9288 89.5187 23.2776 90.0326 22.4051C90.5625 21.5324 90.8167 20.4321 90.7951 19.1043L90.6198 8.30574L88.0761 8.34705L88.2515 19.1456C88.265 19.9775 88.116 20.66 87.8047 21.1931C87.5093 21.726 87.1157 22.1245 86.6239 22.3885C86.1321 22.6525 85.6143 22.7889 85.0703 22.7978C84.4624 22.8076 83.9247 22.7043 83.4571 22.4879C82.9895 22.2715 82.6165 21.9655 82.3381 21.57C82.0756 21.1742 81.9323 20.7284 81.9083 20.2328L79.3406 20.2744ZM79.0222 13.9668C79.0417 15.1666 79.3062 16.1865 79.8159 17.0263C80.3257 17.8661 80.9921 18.5034 81.8153 18.9381C82.6544 19.3725 83.5459 19.5821 84.4898 19.5668C85.4177 19.5517 86.2219 19.3146 86.9026 18.8555C87.599 18.3801 88.1402 17.7152 88.5264 16.8609C88.9286 16.0062 89.1201 14.987 89.1008 13.8031C89.0814 12.6033 88.8568 11.5828 88.427 10.7417C88.0133 9.90027 87.4509 9.26132 86.7397 8.82481C86.0443 8.37204 85.2326 8.15319 84.3047 8.16825C83.3608 8.18358 82.4766 8.42197 81.652 8.88342C80.8434 9.34461 80.198 10.0032 79.7158 10.8591C79.2334 11.6991 79.0022 12.7349 79.0222 13.9668ZM81.7098 13.9231C81.6976 13.1712 81.8393 12.5369 82.135 12.02C82.4306 11.5031 82.8243 11.1127 83.3161 10.8487C83.8236 10.5684 84.3733 10.4234 84.9653 10.4138C85.3332 10.4079 85.7023 10.4739 86.0726 10.6119C86.4589 10.7496 86.8065 10.968 87.1154 11.267C87.424 11.5501 87.6699 11.9061 87.8528 12.3352C88.0516 12.748 88.1556 13.2424 88.165 13.8183C88.1769 14.5542 88.0272 15.1887 87.7158 15.7219C87.4202 16.2387 87.0265 16.6292 86.5347 16.8932C86.0589 17.157 85.573 17.2929 85.0771 17.3009C84.4852 17.3105 83.9312 17.1915 83.4151 16.9439C82.9147 16.6799 82.5084 16.2945 82.1961 15.7875C81.8839 15.2805 81.7218 14.659 81.7098 13.9231ZM95.5892 15.8341C95.5835 15.4821 95.6586 15.1848 95.8147 14.9423C95.9868 14.6994 96.2398 14.5113 96.5737 14.3779C96.9073 14.2284 97.346 14.1493 97.89 14.1405C98.5139 14.1303 99.1071 14.2007 99.6696 14.3516C100.232 14.5025 100.764 14.7499 101.266 15.0938L101.244 13.774C101.098 13.6003 100.847 13.4124 100.491 13.2101C100.136 12.9919 99.6846 12.8072 99.138 12.656C98.6075 12.5046 97.9743 12.4349 97.2384 12.4468C95.8626 12.4692 94.8039 12.8064 94.0624 13.4585C93.3206 14.0947 92.9584 14.9486 92.9759 16.0205C92.9881 16.7724 93.1744 17.4095 93.535 17.9317C93.8955 18.4539 94.3739 18.8462 94.9703 19.1085C95.5666 19.3709 96.2087 19.4965 96.8966 19.4853C97.5365 19.4749 98.1586 19.3528 98.7629 19.119C99.3829 18.8689 99.8892 18.5086 100.282 18.0382C100.69 17.5515 100.888 16.9562 100.877 16.2523L100.469 14.8187C100.478 15.3626 100.35 15.8448 100.085 16.2651C99.8353 16.6692 99.4963 16.9788 99.0677 17.1938C98.6551 17.4085 98.1929 17.52 97.681 17.5283C97.281 17.5348 96.92 17.4767 96.598 17.3539C96.2919 17.2308 96.0489 17.0427 95.8687 16.7896C95.6883 16.5205 95.5951 16.202 95.5892 15.8341ZM94.6965 11.1199C94.8547 11.0053 95.0924 10.8655 95.4098 10.7003C95.7429 10.5189 96.1325 10.3685 96.5786 10.2493C97.0405 10.1137 97.5274 10.0418 98.0393 10.0335C98.3753 10.0281 98.6878 10.055 98.9768 10.1143C99.2658 10.1736 99.5154 10.2736 99.7257 10.4142C99.936 10.5548 100.099 10.7362 100.215 10.9583C100.346 11.1802 100.415 11.4671 100.421 11.8191L100.54 19.1861L103.084 19.1448L102.956 11.2738C102.944 10.5379 102.734 9.92527 102.326 9.43583C101.918 8.93039 101.36 8.5474 100.651 8.28687C99.959 8.02607 99.1569 7.90308 98.245 7.91789C97.2211 7.93451 96.3116 8.0933 95.5164 8.39425C94.7371 8.69494 94.102 9.0013 93.611 9.31331L94.6965 11.1199ZM105.759 3.66734C105.766 4.09928 105.932 4.47263 106.257 4.78739C106.598 5.0859 106.984 5.23164 107.416 5.22463C107.88 5.2171 108.262 5.05888 108.561 4.74999C108.875 4.42483 109.029 4.04629 109.022 3.61434C109.015 3.1664 108.849 2.79305 108.524 2.49428C108.215 2.19526 107.829 2.04951 107.365 2.05705C106.933 2.06406 106.551 2.22228 106.22 2.53169C105.905 2.84085 105.751 3.2194 105.759 3.66734ZM106.19 8.05291L106.369 19.0915L108.913 19.0502L108.734 8.01161L106.19 8.05291ZM119.473 12.1578L119.582 18.8769L122.246 18.8336L122.132 11.8266C122.111 10.4987 121.766 9.46421 121.098 8.72296C120.429 7.96571 119.471 7.59722 118.224 7.61748C117.456 7.62995 116.794 7.80071 116.24 8.12976C115.701 8.45855 115.261 8.95376 114.92 9.61539L114.892 7.91161L112.3 7.9537L112.479 18.9922L115.071 18.9502L114.962 12.231C114.954 11.7351 115.051 11.3015 115.253 10.9301C115.455 10.5428 115.738 10.2502 116.103 10.0522C116.467 9.83829 116.89 9.72742 117.37 9.71962C118.073 9.70819 118.597 9.90772 118.939 10.3182C119.282 10.7287 119.46 11.3419 119.473 12.1578ZM125.811 1.97355L126.601 13.6743L128.641 13.6411L129.051 1.92094L125.811 1.97355ZM125.993 17.5967C126 18.0606 126.167 18.4499 126.492 18.7647C126.833 19.0632 127.243 19.2086 127.723 19.2008C128.203 19.193 128.6 19.0345 128.915 18.7254C129.23 18.4002 129.384 18.0057 129.376 17.5417C129.369 17.0778 129.202 16.6964 128.878 16.3977C128.553 16.0989 128.15 15.9534 127.67 15.9612C127.19 15.969 126.785 16.1276 126.454 16.437C126.139 16.7462 125.985 17.1327 125.993 17.5967Z" fill="#9BA3EB"/>
<path d="M27.1608 39.6842L23.8143 31.6735L20.7617 39.7881L17.9842 32.3282L15.7925 32.3638L20.5593 44.0799L23.8863 36.1049L27.4704 43.9677L31.8544 32.103L29.6627 32.1386L27.1608 39.6842ZM35.1817 43.4105C36.0349 43.3966 36.7628 43.2194 37.3653 42.8789C37.9679 42.5384 38.4557 42.0344 38.829 41.367L37.3313 40.7832C37.1031 41.1816 36.8145 41.4797 36.4657 41.6774C36.1168 41.8751 35.7078 41.9777 35.2385 41.9853C34.7906 41.9926 34.4051 41.9029 34.082 41.7161C33.7696 41.5291 33.5304 41.2556 33.3646 40.8956C33.1985 40.5249 33.1112 40.073 33.1025 39.5397C33.1045 39.0063 33.1826 38.5569 33.3367 38.1917C33.4908 37.8265 33.7209 37.5454 34.0271 37.3484C34.3333 37.1514 34.705 37.0494 35.1423 37.0423C35.5049 37.0364 35.8208 37.1112 36.09 37.2669C36.3699 37.4224 36.5869 37.6429 36.7409 37.9284C36.9055 38.2138 36.991 38.5538 36.9974 38.9484C36.9987 39.023 36.9789 39.1194 36.9381 39.2374C36.9079 39.3446 36.8773 39.4304 36.8463 39.4949L37.3623 38.7504L32.3709 38.8315L32.3902 40.0153L38.8533 39.9104C38.8633 39.8675 38.8675 39.7981 38.8659 39.7021C38.875 39.606 38.8789 39.5152 38.8775 39.4299C38.8647 38.6407 38.7045 37.9712 38.3968 37.4215C38.0997 36.8609 37.6767 36.4357 37.128 36.1459C36.5792 35.8561 35.9155 35.7175 35.137 35.7302C34.3584 35.7428 33.6837 35.9138 33.113 36.2431C32.5421 36.5617 32.1014 37.0116 31.7907 37.5927C31.4908 38.1737 31.3472 38.8534 31.3598 39.632C31.3723 40.3999 31.5378 41.0693 31.8565 41.6402C32.1751 42.2111 32.6197 42.652 33.1901 42.9627C33.7712 43.2733 34.4351 43.4226 35.1817 43.4105ZM40.3851 30.6843L40.5877 43.1627L42.3155 43.1346L42.1129 30.6562L40.3851 30.6843ZM45.6168 39.4005C45.6094 38.9419 45.7041 38.535 45.901 38.1797C46.0979 37.8245 46.3654 37.5428 46.7034 37.3346C47.0521 37.1262 47.4397 37.0186 47.8663 37.0117C48.2076 37.0061 48.5391 37.0541 48.8608 37.1555C49.1825 37.257 49.4675 37.4017 49.7159 37.5897C49.9748 37.7669 50.165 37.9771 50.2863 38.2205L50.2553 36.3168C49.9952 36.065 49.6453 35.868 49.2056 35.7258C48.7659 35.5835 48.2848 35.5167 47.7622 35.5252C47.0049 35.5375 46.325 35.7139 45.7225 36.0543C45.1304 36.384 44.6631 36.8396 44.3205 37.4213C43.9886 38.0028 43.8287 38.6721 43.841 39.4293C43.8532 40.1759 44.0346 40.8397 44.3854 41.4208C44.7467 41.991 45.2287 42.4365 45.8313 42.7575C46.4444 43.0675 47.1296 43.2164 47.8869 43.2041C48.4094 43.1957 48.8882 43.1132 49.323 42.9568C49.7579 42.8004 50.1012 42.5921 50.353 42.332L50.3221 40.4282C50.2086 40.6648 50.0308 40.881 49.7886 41.077C49.5464 41.2729 49.2662 41.4269 48.948 41.5387C48.6297 41.6505 48.2946 41.7093 47.9427 41.715C47.5161 41.722 47.1251 41.627 46.7699 41.43C46.4253 41.233 46.1489 40.9654 45.9408 40.6274C45.7324 40.2787 45.6244 39.8698 45.6168 39.4005ZM51.654 39.3025C51.6661 40.049 51.8476 40.7128 52.1984 41.2939C52.5597 41.8641 53.0417 42.3097 53.6443 42.6306C54.2467 42.9409 54.9266 43.0898 55.6838 43.0775C56.4411 43.0652 57.1104 42.8944 57.6918 42.5649C58.2837 42.2246 58.7509 41.7636 59.0935 41.1819C59.4359 40.5896 59.6011 39.9202 59.589 39.1736C59.5767 38.4164 59.3899 37.7527 59.0286 37.1825C58.6672 36.6123 58.1854 36.172 57.5829 35.8618C56.991 35.5407 56.3164 35.3863 55.5591 35.3986C54.8019 35.4108 54.1273 35.5872 53.5355 35.9275C52.9434 36.2571 52.4761 36.7128 52.1335 37.2944C51.8015 37.8759 51.6417 38.5452 51.654 39.3025ZM53.4298 39.2736C53.4223 38.815 53.5117 38.4082 53.698 38.0531C53.8842 37.698 54.1411 37.4218 54.4686 37.2245C54.7961 37.0272 55.1679 36.9251 55.5838 36.9184C55.9891 36.9118 56.3586 37.0018 56.6923 37.1884C57.0367 37.3748 57.3078 37.6425 57.5055 37.9913C57.7032 38.3401 57.8057 38.7439 57.8132 39.2025C57.8206 39.6611 57.7312 40.0679 57.545 40.423C57.3585 40.7674 57.0963 41.0437 56.7583 41.2519C56.4308 41.4492 56.0644 41.5512 55.6591 41.5577C55.2432 41.5645 54.8684 41.4746 54.5346 41.288C54.2007 41.0907 53.935 40.823 53.7375 40.4848C53.5398 40.136 53.4372 39.7322 53.4298 39.2736ZM71.7389 37.9842C71.729 37.3763 71.6353 36.8604 71.4577 36.4366C71.2801 36.0127 71.0136 35.697 70.6582 35.4894C70.3133 35.271 69.8795 35.166 69.3569 35.1745C68.8557 35.1826 68.4096 35.3019 68.0186 35.5323C67.6383 35.7625 67.3236 36.093 67.0745 36.5237C66.9076 36.0997 66.6411 35.7787 66.2748 35.5606C65.9192 35.3423 65.4695 35.2376 64.9255 35.2465C64.4563 35.2541 64.0474 35.3674 63.6989 35.5864C63.3609 35.7946 63.0885 36.1031 62.8818 36.5118L62.8644 35.44L61.1686 35.4675L61.2881 42.8265L62.9839 42.799L62.9112 38.3196C62.9054 37.9676 62.9592 37.668 63.0726 37.4208C63.1859 37.1736 63.3482 36.9843 63.5594 36.8529C63.7813 36.7212 64.0416 36.653 64.3402 36.6481C64.7668 36.6412 65.0784 36.7748 65.2748 37.049C65.4818 37.3124 65.5898 37.7213 65.5988 38.2759L65.6715 42.7553L67.3993 42.7273L67.3266 38.2479C67.3209 37.8959 67.3747 37.5963 67.488 37.3491C67.612 37.1018 67.7796 36.9123 67.9908 36.7809C68.2127 36.6493 68.4677 36.5811 68.7556 36.5765C69.1822 36.5695 69.4938 36.7032 69.6903 36.9773C69.8972 37.2407 70.0052 37.6496 70.0142 38.2042L70.087 42.6836L71.8147 42.6556L71.7389 37.9842ZM77.223 42.7278C78.0762 42.7139 78.8041 42.5368 79.4066 42.1963C80.0092 41.8558 80.4971 41.3518 80.8703 40.6843L79.3726 40.1005C79.1444 40.499 78.8559 40.797 78.507 40.9947C78.1582 41.1924 77.7491 41.2951 77.2799 41.3027C76.8319 41.31 76.4464 41.2202 76.1233 41.0334C75.8109 40.8465 75.5718 40.573 75.4059 40.213C75.2399 39.8423 75.1525 39.3903 75.1439 38.857C75.1459 38.3236 75.2239 37.8743 75.378 37.5091C75.5321 37.1438 75.7622 36.8627 76.0684 36.6657C76.3746 36.4687 76.7463 36.3667 77.1836 36.3596C77.5462 36.3537 77.8621 36.4286 78.1314 36.5842C78.4113 36.7397 78.6282 36.9602 78.7822 37.2458C78.9468 37.5311 79.0324 37.8711 79.0388 38.2657C79.04 38.3404 79.0202 38.4367 78.9795 38.5547C78.9492 38.6619 78.9186 38.7477 78.8876 38.8122L79.4036 38.0678L74.4123 38.1488L74.4315 39.3327L80.8946 39.2277C80.9046 39.1849 80.9088 39.1155 80.9073 39.0195C80.9164 38.9233 80.9202 38.8326 80.9188 38.7473C80.906 37.958 80.7458 37.2885 80.4382 36.7388C80.141 36.1782 79.7181 35.753 79.1693 35.4632C78.6205 35.1734 77.9568 35.0349 77.1783 35.0475C76.3997 35.0601 75.7251 35.2311 75.1543 35.5604C74.5834 35.8791 74.1427 36.329 73.8321 36.9101C73.5321 37.491 73.3885 38.1708 73.4011 38.9493C73.4136 39.7172 73.5792 40.3866 73.8978 40.9575C74.2165 41.5284 74.661 41.9693 75.2315 42.2801C75.8126 42.5907 76.4764 42.7399 77.223 42.7278ZM88.9153 36.6011L90.8511 36.5697C91.555 36.5583 92.1719 36.4469 92.7019 36.2356C93.2425 36.0241 93.659 35.724 93.9514 35.3352C94.2543 34.9356 94.4012 34.4585 94.3922 33.9039C94.3818 33.264 94.2186 32.7385 93.9026 32.3276C93.5972 31.9165 93.1709 31.6141 92.6237 31.4203C92.0871 31.2263 91.4669 31.135 90.763 31.1464L87.3874 31.2012L87.5693 42.3998L91.1368 42.3418C91.926 42.329 92.6175 42.2058 93.2111 41.9721C93.8152 41.7276 94.284 41.3626 94.6175 40.8771C94.9616 40.3915 95.1277 39.7807 95.1158 39.0448C95.1071 38.5115 94.993 38.0547 94.7735 37.6742C94.554 37.2937 94.2502 36.9839 93.8623 36.7448C93.485 36.5056 93.0555 36.3312 92.5736 36.2217C92.0918 36.1122 91.5789 36.0618 91.035 36.0707L88.9073 36.1052L88.9241 37.1451L90.9399 37.1123C91.2598 37.1071 91.5537 37.1397 91.8216 37.21C92.0892 37.2697 92.3204 37.378 92.5149 37.5348C92.72 37.6808 92.8778 37.8703 92.9882 38.1032C93.1092 38.3253 93.1721 38.5856 93.1769 38.8843C93.1837 39.3002 93.0933 39.6484 92.9059 39.9288C92.7184 40.2092 92.4605 40.4214 92.1321 40.5654C91.8037 40.7095 91.4262 40.7849 90.9996 40.7919L89.4318 40.8173L89.3004 32.7224L90.6602 32.7003C91.1828 32.6918 91.6115 32.8129 91.9463 33.0635C92.281 33.3141 92.4522 33.674 92.4599 34.1433C92.4649 34.4526 92.3946 34.7204 92.2489 34.9468C92.103 35.1625 91.8977 35.3312 91.633 35.4529C91.3683 35.5745 91.06 35.6382 90.708 35.6439L88.9002 35.6733L88.9153 36.6011ZM98.0685 39.941C98.0647 39.7063 98.1148 39.5082 98.2189 39.3465C98.3336 39.1846 98.5022 39.0592 98.7248 38.9702C98.9472 38.8706 99.2397 38.8178 99.6024 38.8119C100.018 38.8052 100.414 38.8521 100.789 38.9527C101.164 39.0533 101.519 39.2182 101.853 39.4475L101.839 38.5676C101.741 38.4518 101.573 38.3265 101.337 38.1917C101.099 38.0462 100.799 37.923 100.434 37.8223C100.081 37.7213 99.6586 37.6749 99.168 37.6828C98.2508 37.6977 97.545 37.9225 97.0506 38.3573C96.5561 38.7814 96.3147 39.3507 96.3263 40.0653C96.3344 40.5665 96.4587 40.9913 96.699 41.3394C96.9394 41.6875 97.2583 41.9491 97.6559 42.124C98.0534 42.2989 98.4815 42.3826 98.9401 42.3751C99.3667 42.3682 99.7815 42.2868 100.184 42.1309C100.598 41.9642 100.935 41.724 101.197 41.4104C101.469 41.0859 101.601 40.6891 101.593 40.2198L101.322 39.2641C101.328 39.6267 101.242 39.9481 101.066 40.2284C100.899 40.4978 100.673 40.7041 100.388 40.8474C100.112 40.9906 99.8043 41.0649 99.463 41.0705C99.1964 41.0748 98.9557 41.036 98.741 40.9542C98.537 40.8722 98.3749 40.7468 98.2549 40.578C98.1346 40.3986 98.0725 40.1863 98.0685 39.941ZM97.4734 36.7982C97.5788 36.7218 97.7373 36.6286 97.9489 36.5185C98.171 36.3975 98.4307 36.2973 98.7281 36.2178C99.036 36.1274 99.3606 36.0795 99.7019 36.0739C99.9259 36.0703 100.134 36.0883 100.327 36.1278C100.52 36.1674 100.686 36.234 100.826 36.3277C100.966 36.4215 101.075 36.5424 101.152 36.6905C101.24 36.8384 101.286 37.0297 101.289 37.2643L101.369 42.1757L103.065 42.1481L102.98 36.9008C102.972 36.4102 102.832 36.0018 102.56 35.6755C102.288 35.3385 101.915 35.0832 101.443 34.9095C100.982 34.7357 100.447 34.6537 99.839 34.6635C99.1565 34.6746 98.5501 34.7805 98.02 34.9811C97.5005 35.1816 97.0771 35.3858 96.7497 35.5938L97.4734 36.7982ZM106.171 38.4172C106.164 37.9586 106.259 37.5517 106.456 37.1964C106.652 36.8412 106.92 36.5595 107.258 36.3513C107.607 36.143 107.994 36.0353 108.421 36.0284C108.762 36.0228 109.094 36.0708 109.415 36.1723C109.737 36.2737 110.022 36.4184 110.27 36.6064C110.529 36.7836 110.719 36.9939 110.841 37.2373L110.81 35.3335C110.55 35.0817 110.2 34.8847 109.76 34.7425C109.32 34.6003 108.839 34.5334 108.317 34.5419C107.559 34.5542 106.88 34.7306 106.277 35.0711C105.685 35.4007 105.218 35.8564 104.875 36.438C104.543 37.0195 104.383 37.6888 104.396 38.4461C104.408 39.1926 104.589 39.8564 104.94 40.4375C105.301 41.0077 105.783 41.4533 106.386 41.7742C106.999 42.0843 107.684 42.2332 108.441 42.2209C108.964 42.2124 109.443 42.1299 109.878 41.9735C110.312 41.8171 110.656 41.6088 110.908 41.3487L110.877 39.445C110.763 39.6815 110.585 39.8978 110.343 40.0937C110.101 40.2897 109.821 40.4436 109.502 40.5554C109.184 40.6673 108.849 40.726 108.497 40.7318C108.071 40.7387 107.68 40.6437 107.324 40.4468C106.98 40.2497 106.703 39.9821 106.495 39.6441C106.287 39.2955 106.179 38.8865 106.171 38.4172ZM112.562 29.5123L112.764 41.9906L114.46 41.9631L114.257 29.4848L112.562 29.5123ZM117.044 34.5602L113.91 37.6515L117.5 41.9138L119.595 41.8797L116.038 37.6169L119.156 34.5259L117.044 34.5602Z" fill="#B9B8FA"/>
</svg>
