<svg width="195" height="25" viewBox="0 0 195 25" fill="none" xmlns="http://www.w3.org/2000/svg">
<path d="M4.08001 8.49597L9.19201 17.16L14.304 8.49597L15.48 18.72H18.408L16.104 1.07997L9.19201 12.48L2.30401 1.07997L1.27554e-05 18.72H2.92801L4.08001 8.49597ZM22.5791 15.288C22.5791 14.936 22.6591 14.64 22.8191 14.4C22.9951 14.16 23.2511 13.976 23.5871 13.848C23.9231 13.704 24.3631 13.632 24.9071 13.632C25.5311 13.632 26.1231 13.712 26.6831 13.872C27.2431 14.032 27.7711 14.288 28.2671 14.64V13.32C28.1231 13.144 27.8751 12.952 27.5231 12.744C27.1711 12.52 26.7231 12.328 26.1791 12.168C25.6511 12.008 25.0191 11.928 24.2831 11.928C22.9071 11.928 21.8431 12.248 21.0911 12.888C20.3391 13.512 19.9631 14.36 19.9631 15.432C19.9631 16.184 20.1391 16.824 20.4911 17.352C20.8431 17.88 21.3151 18.28 21.9071 18.552C22.4991 18.824 23.1391 18.96 23.8271 18.96C24.4671 18.96 25.0911 18.848 25.6991 18.624C26.3231 18.384 26.8351 18.032 27.2351 17.568C27.6511 17.088 27.8591 16.496 27.8591 15.792L27.4751 14.352C27.4751 14.896 27.3391 15.376 27.0671 15.792C26.8111 16.192 26.4671 16.496 26.0351 16.704C25.6191 16.912 25.1551 17.016 24.6431 17.016C24.2431 17.016 23.8831 16.952 23.5631 16.824C23.2591 16.696 23.0191 16.504 22.8431 16.248C22.6671 15.976 22.5791 15.656 22.5791 15.288ZM21.7631 10.56C21.9231 10.448 22.1631 10.312 22.4831 10.152C22.8191 9.97597 23.2111 9.83197 23.6591 9.71997C24.1231 9.59197 24.6111 9.52797 25.1231 9.52797C25.4591 9.52797 25.7711 9.55997 26.0591 9.62397C26.3471 9.68797 26.5951 9.79197 26.8031 9.93597C27.0111 10.08 27.1711 10.264 27.2831 10.488C27.4111 10.712 27.4751 11 27.4751 11.352V18.72H30.0191V10.848C30.0191 10.112 29.8191 9.49597 29.4191 8.99997C29.0191 8.48797 28.4671 8.09597 27.7631 7.82397C27.0751 7.55197 26.2751 7.41597 25.3631 7.41597C24.3391 7.41597 23.4271 7.55997 22.6271 7.84797C21.8431 8.13597 21.2031 8.43197 20.7071 8.73597L21.7631 10.56ZM40.1449 12V18.72H42.8089V11.712C42.8089 10.384 42.4809 9.34397 41.8249 8.59197C41.1689 7.82397 40.2169 7.43997 38.9689 7.43997C38.2009 7.43997 37.5369 7.59997 36.9769 7.91997C36.4329 8.23997 35.9849 8.72797 35.6329 9.38397V7.67997H33.0409V18.72H35.6329V12C35.6329 11.504 35.7369 11.072 35.9449 10.704C36.1529 10.32 36.4409 10.032 36.8089 9.83997C37.1769 9.63197 37.6009 9.52797 38.0809 9.52797C38.7849 9.52797 39.3049 9.73597 39.6409 10.152C39.9769 10.568 40.1449 11.184 40.1449 12ZM47.751 15.288C47.751 14.936 47.831 14.64 47.991 14.4C48.167 14.16 48.423 13.976 48.759 13.848C49.095 13.704 49.535 13.632 50.079 13.632C50.703 13.632 51.295 13.712 51.855 13.872C52.415 14.032 52.943 14.288 53.439 14.64V13.32C53.295 13.144 53.047 12.952 52.695 12.744C52.343 12.52 51.895 12.328 51.351 12.168C50.823 12.008 50.191 11.928 49.455 11.928C48.079 11.928 47.015 12.248 46.263 12.888C45.511 13.512 45.135 14.36 45.135 15.432C45.135 16.184 45.311 16.824 45.663 17.352C46.015 17.88 46.487 18.28 47.079 18.552C47.671 18.824 48.311 18.96 48.999 18.96C49.639 18.96 50.263 18.848 50.871 18.624C51.495 18.384 52.007 18.032 52.407 17.568C52.823 17.088 53.031 16.496 53.031 15.792L52.647 14.352C52.647 14.896 52.511 15.376 52.239 15.792C51.983 16.192 51.639 16.496 51.207 16.704C50.791 16.912 50.327 17.016 49.815 17.016C49.415 17.016 49.055 16.952 48.735 16.824C48.431 16.696 48.191 16.504 48.015 16.248C47.839 15.976 47.751 15.656 47.751 15.288ZM46.935 10.56C47.095 10.448 47.335 10.312 47.655 10.152C47.991 9.97597 48.383 9.83197 48.831 9.71997C49.295 9.59197 49.783 9.52797 50.295 9.52797C50.631 9.52797 50.943 9.55997 51.231 9.62397C51.519 9.68797 51.767 9.79197 51.975 9.93597C52.183 10.08 52.343 10.264 52.455 10.488C52.583 10.712 52.647 11 52.647 11.352V18.72H55.191V10.848C55.191 10.112 54.991 9.49597 54.591 8.99997C54.191 8.48797 53.639 8.09597 52.935 7.82397C52.247 7.55197 51.447 7.41597 50.535 7.41597C49.511 7.41597 48.599 7.55997 47.799 7.84797C47.015 8.13597 46.375 8.43197 45.879 8.73597L46.935 10.56ZM57.5888 19.464C57.6208 20.424 57.8608 21.272 58.3088 22.008C58.7728 22.744 59.4288 23.312 60.2768 23.712C61.1248 24.128 62.1488 24.336 63.3488 24.336C64.3568 24.336 65.2928 24.12 66.1568 23.688C67.0208 23.272 67.7168 22.632 68.2448 21.768C68.7888 20.904 69.0608 19.808 69.0608 18.48V7.67997H66.5168V18.48C66.5168 19.312 66.3568 19.992 66.0368 20.52C65.7328 21.048 65.3328 21.44 64.8368 21.696C64.3408 21.952 63.8208 22.08 63.2768 22.08C62.6688 22.08 62.1328 21.968 61.6688 21.744C61.2048 21.52 60.8368 21.208 60.5648 20.808C60.3088 20.408 60.1728 19.96 60.1568 19.464H57.5888ZM57.3728 13.152C57.3728 14.352 57.6208 15.376 58.1168 16.224C58.6128 17.072 59.2688 17.72 60.0848 18.168C60.9168 18.616 61.8048 18.84 62.7488 18.84C63.6768 18.84 64.4848 18.616 65.1728 18.168C65.8768 17.704 66.4288 17.048 66.8288 16.2C67.2448 15.352 67.4528 14.336 67.4528 13.152C67.4528 11.952 67.2448 10.928 66.8288 10.08C66.4288 9.23197 65.8768 8.58397 65.1728 8.13597C64.4848 7.67197 63.6768 7.43997 62.7488 7.43997C61.8048 7.43997 60.9168 7.66397 60.0848 8.11197C59.2688 8.55997 58.6128 9.20797 58.1168 10.056C57.6208 10.888 57.3728 11.92 57.3728 13.152ZM60.0608 13.152C60.0608 12.4 60.2128 11.768 60.5168 11.256C60.8208 10.744 61.2208 10.36 61.7168 10.104C62.2288 9.83197 62.7808 9.69597 63.3728 9.69597C63.7408 9.69597 64.1088 9.76797 64.4768 9.91197C64.8608 10.056 65.2048 10.28 65.5088 10.584C65.8128 10.872 66.0528 11.232 66.2288 11.664C66.4208 12.08 66.5168 12.576 66.5168 13.152C66.5168 13.888 66.3568 14.52 66.0368 15.048C65.7328 15.56 65.3328 15.944 64.8368 16.2C64.3568 16.456 63.8688 16.584 63.3728 16.584C62.7808 16.584 62.2288 16.456 61.7168 16.2C61.2208 15.928 60.8208 15.536 60.5168 15.024C60.2128 14.512 60.0608 13.888 60.0608 13.152ZM77.0753 18.96C78.3553 18.96 79.4513 18.712 80.3633 18.216C81.2753 17.72 82.0193 16.976 82.5953 15.984L80.3633 15.072C80.0113 15.664 79.5713 16.104 79.0433 16.392C78.5153 16.68 77.8993 16.824 77.1953 16.824C76.5233 16.824 75.9473 16.68 75.4673 16.392C75.0033 16.104 74.6513 15.688 74.4113 15.144C74.1713 14.584 74.0513 13.904 74.0513 13.104C74.0673 12.304 74.1953 11.632 74.4353 11.088C74.6753 10.544 75.0273 10.128 75.4913 9.83997C75.9553 9.55197 76.5153 9.40797 77.1713 9.40797C77.7153 9.40797 78.1873 9.52797 78.5873 9.76797C79.0033 10.008 79.3233 10.344 79.5473 10.776C79.7873 11.208 79.9073 11.72 79.9073 12.312C79.9073 12.424 79.8753 12.568 79.8113 12.744C79.7633 12.904 79.7153 13.032 79.6673 13.128L80.4593 12.024H72.9713V13.8H82.6673C82.6833 13.736 82.6913 13.632 82.6913 13.488C82.7073 13.344 82.7153 13.208 82.7153 13.08C82.7153 11.896 82.4913 10.888 82.0433 10.056C81.6113 9.20797 80.9873 8.55997 80.1713 8.11197C79.3553 7.66397 78.3633 7.43997 77.1953 7.43997C76.0273 7.43997 75.0113 7.67997 74.1473 8.15997C73.2833 8.62397 72.6113 9.28797 72.1313 10.152C71.6673 11.016 71.4353 12.032 71.4353 13.2C71.4353 14.352 71.6673 15.36 72.1313 16.224C72.5953 17.088 73.2513 17.76 74.0993 18.24C74.9633 18.72 75.9553 18.96 77.0753 18.96ZM102.153 7.67997H99.3686L95.9126 16.344L97.1366 16.416L93.6086 7.67997H90.6326L95.0726 17.424L92.1926 24H94.9526L102.153 7.67997ZM102.513 13.2C102.513 14.32 102.769 15.32 103.281 16.2C103.809 17.064 104.521 17.744 105.417 18.24C106.313 18.72 107.329 18.96 108.465 18.96C109.601 18.96 110.609 18.72 111.489 18.24C112.385 17.744 113.097 17.064 113.625 16.2C114.153 15.32 114.417 14.32 114.417 13.2C114.417 12.064 114.153 11.064 113.625 10.2C113.097 9.33597 112.385 8.66397 111.489 8.18397C110.609 7.68797 109.601 7.43997 108.465 7.43997C107.329 7.43997 106.313 7.68797 105.417 8.18397C104.521 8.66397 103.809 9.33597 103.281 10.2C102.769 11.064 102.513 12.064 102.513 13.2ZM105.177 13.2C105.177 12.512 105.321 11.904 105.609 11.376C105.897 10.848 106.289 10.44 106.785 10.152C107.281 9.86397 107.841 9.71997 108.465 9.71997C109.073 9.71997 109.625 9.86397 110.121 10.152C110.633 10.44 111.033 10.848 111.321 11.376C111.609 11.904 111.753 12.512 111.753 13.2C111.753 13.888 111.609 14.496 111.321 15.024C111.033 15.536 110.633 15.944 110.121 16.248C109.625 16.536 109.073 16.68 108.465 16.68C107.841 16.68 107.281 16.536 106.785 16.248C106.289 15.944 105.897 15.536 105.609 15.024C105.321 14.496 105.177 13.888 105.177 13.2ZM119.541 14.4V7.67997H116.877V14.688C116.877 16 117.205 17.04 117.861 17.808C118.533 18.576 119.485 18.96 120.717 18.96C121.485 18.96 122.141 18.8 122.685 18.48C123.245 18.144 123.701 17.656 124.053 17.016V18.72H126.645V7.67997H124.053V14.4C124.053 14.896 123.949 15.336 123.741 15.72C123.533 16.088 123.245 16.376 122.877 16.584C122.509 16.776 122.077 16.872 121.581 16.872C120.893 16.872 120.381 16.656 120.045 16.224C119.709 15.792 119.541 15.184 119.541 14.4ZM132.523 7.67997H129.955V18.72H132.523V7.67997ZM135.811 10.44L137.059 8.25597C136.819 7.95197 136.523 7.74397 136.171 7.63197C135.819 7.50397 135.443 7.43997 135.043 7.43997C134.483 7.43997 133.939 7.63997 133.411 8.03997C132.899 8.43997 132.475 8.98397 132.139 9.67197C131.819 10.344 131.659 11.12 131.659 12L132.523 12.504C132.523 11.976 132.579 11.52 132.691 11.136C132.819 10.736 133.019 10.424 133.291 10.2C133.563 9.97597 133.915 9.86397 134.347 9.86397C134.667 9.86397 134.931 9.91197 135.139 10.008C135.347 10.104 135.571 10.248 135.811 10.44ZM144.497 7.67997V9.95997H150.761V7.67997H144.497ZM146.345 3.83997V18.72H148.913V3.83997H146.345ZM154.181 15.288C154.181 14.936 154.261 14.64 154.421 14.4C154.597 14.16 154.853 13.976 155.189 13.848C155.525 13.704 155.965 13.632 156.509 13.632C157.133 13.632 157.725 13.712 158.285 13.872C158.845 14.032 159.373 14.288 159.869 14.64V13.32C159.725 13.144 159.477 12.952 159.125 12.744C158.773 12.52 158.325 12.328 157.781 12.168C157.253 12.008 156.621 11.928 155.885 11.928C154.509 11.928 153.445 12.248 152.693 12.888C151.941 13.512 151.565 14.36 151.565 15.432C151.565 16.184 151.741 16.824 152.093 17.352C152.445 17.88 152.917 18.28 153.509 18.552C154.101 18.824 154.741 18.96 155.429 18.96C156.069 18.96 156.693 18.848 157.301 18.624C157.925 18.384 158.437 18.032 158.837 17.568C159.253 17.088 159.461 16.496 159.461 15.792L159.077 14.352C159.077 14.896 158.941 15.376 158.669 15.792C158.413 16.192 158.069 16.496 157.637 16.704C157.221 16.912 156.757 17.016 156.245 17.016C155.845 17.016 155.485 16.952 155.165 16.824C154.861 16.696 154.621 16.504 154.445 16.248C154.269 15.976 154.181 15.656 154.181 15.288ZM153.365 10.56C153.525 10.448 153.765 10.312 154.085 10.152C154.421 9.97597 154.813 9.83197 155.261 9.71997C155.725 9.59197 156.213 9.52797 156.725 9.52797C157.061 9.52797 157.373 9.55997 157.661 9.62397C157.949 9.68797 158.197 9.79197 158.405 9.93597C158.613 10.08 158.773 10.264 158.885 10.488C159.013 10.712 159.077 11 159.077 11.352V18.72H161.621V10.848C161.621 10.112 161.421 9.49597 161.021 8.99997C160.621 8.48797 160.069 8.09597 159.365 7.82397C158.677 7.55197 157.877 7.41597 156.965 7.41597C155.941 7.41597 155.029 7.55997 154.229 7.84797C153.445 8.13597 152.805 8.43197 152.309 8.73597L153.365 10.56ZM165.146 15.096L163.634 16.608C163.954 17.024 164.346 17.424 164.81 17.808C165.29 18.176 165.842 18.48 166.466 18.72C167.106 18.944 167.802 19.056 168.554 19.056C169.77 19.056 170.73 18.744 171.434 18.12C172.154 17.48 172.514 16.64 172.514 15.6C172.514 14.928 172.354 14.384 172.034 13.968C171.73 13.552 171.322 13.2 170.81 12.912C170.298 12.624 169.738 12.36 169.13 12.12C168.682 11.944 168.274 11.776 167.906 11.616C167.554 11.456 167.266 11.28 167.042 11.088C166.834 10.88 166.73 10.648 166.73 10.392C166.73 10.088 166.85 9.85597 167.09 9.69597C167.33 9.53597 167.634 9.45597 168.002 9.45597C168.546 9.45597 169.074 9.59197 169.586 9.86397C170.098 10.136 170.538 10.488 170.906 10.92L172.346 9.38397C172.042 9.01597 171.674 8.68797 171.242 8.39997C170.81 8.11197 170.322 7.87997 169.778 7.70397C169.25 7.52797 168.682 7.43997 168.074 7.43997C167.402 7.43997 166.77 7.55197 166.178 7.77597C165.602 7.98397 165.138 8.31197 164.786 8.75997C164.45 9.20797 164.282 9.76797 164.282 10.44C164.282 11.096 164.434 11.64 164.738 12.072C165.058 12.504 165.458 12.856 165.938 13.128C166.434 13.384 166.93 13.608 167.426 13.8C167.922 13.976 168.354 14.152 168.722 14.328C169.09 14.488 169.378 14.688 169.586 14.928C169.794 15.152 169.898 15.424 169.898 15.744C169.898 16.112 169.762 16.4 169.49 16.608C169.234 16.816 168.874 16.92 168.41 16.92C168.042 16.92 167.674 16.856 167.306 16.728C166.938 16.584 166.57 16.376 166.202 16.104C165.85 15.816 165.498 15.48 165.146 15.096ZM174.718 -3.00407e-05V18.72H177.262V-3.00407e-05H174.718ZM181.318 7.67997L176.542 12.24L181.822 18.72H184.966L179.734 12.24L184.486 7.67997H181.318ZM187.201 15.096L185.689 16.608C186.009 17.024 186.401 17.424 186.865 17.808C187.345 18.176 187.897 18.48 188.521 18.72C189.161 18.944 189.857 19.056 190.609 19.056C191.825 19.056 192.785 18.744 193.489 18.12C194.209 17.48 194.569 16.64 194.569 15.6C194.569 14.928 194.409 14.384 194.089 13.968C193.785 13.552 193.377 13.2 192.865 12.912C192.353 12.624 191.793 12.36 191.185 12.12C190.737 11.944 190.329 11.776 189.961 11.616C189.609 11.456 189.321 11.28 189.097 11.088C188.889 10.88 188.785 10.648 188.785 10.392C188.785 10.088 188.905 9.85597 189.145 9.69597C189.385 9.53597 189.689 9.45597 190.057 9.45597C190.601 9.45597 191.129 9.59197 191.641 9.86397C192.153 10.136 192.593 10.488 192.961 10.92L194.401 9.38397C194.097 9.01597 193.729 8.68797 193.297 8.39997C192.865 8.11197 192.377 7.87997 191.833 7.70397C191.305 7.52797 190.737 7.43997 190.129 7.43997C189.457 7.43997 188.825 7.55197 188.233 7.77597C187.657 7.98397 187.193 8.31197 186.841 8.75997C186.505 9.20797 186.337 9.76797 186.337 10.44C186.337 11.096 186.489 11.64 186.793 12.072C187.113 12.504 187.513 12.856 187.993 13.128C188.489 13.384 188.985 13.608 189.481 13.8C189.977 13.976 190.409 14.152 190.777 14.328C191.145 14.488 191.433 14.688 191.641 14.928C191.849 15.152 191.953 15.424 191.953 15.744C191.953 16.112 191.817 16.4 191.545 16.608C191.289 16.816 190.929 16.92 190.465 16.92C190.097 16.92 189.729 16.856 189.361 16.728C188.993 16.584 188.625 16.376 188.257 16.104C187.905 15.816 187.553 15.48 187.201 15.096Z" fill="#363636"/>
</svg>
