<svg width="512" height="512" viewBox="0 0 512 512" fill="none" xmlns="http://www.w3.org/2000/svg">
<g clip-path="url(#clip0_101_2761)">
<path fill-rule="evenodd" clip-rule="evenodd" d="M354.851 150.133C354.851 147.299 357.148 145.002 359.982 145.002H410.013C412.847 145.002 415.145 147.299 415.145 150.133V445.189C415.145 448.023 412.847 450.321 410.013 450.321H359.982C357.148 450.321 354.851 448.023 354.851 445.189V150.133ZM359.982 147.567C358.565 147.567 357.416 148.716 357.416 150.133V445.189C357.416 446.606 358.565 447.755 359.982 447.755H410.013C411.43 447.755 412.579 446.606 412.579 445.189V150.133C412.579 148.716 411.43 147.567 410.013 147.567H359.982Z" fill="#F1F1F1"/>
<path fill-rule="evenodd" clip-rule="evenodd" d="M402.703 320.485C376.127 368.738 366.901 424.166 365.421 448.778L362.86 448.624C364.355 423.759 373.643 367.93 400.456 319.247L402.703 320.485Z" fill="#D05244"/>
<path d="M403.997 303.738C400.133 310.796 400.258 316.715 401.186 320.457C416.416 311.285 415.899 299.758 414.537 293.027C411.222 294.381 407.958 296.503 403.997 303.738Z" fill="#F15846"/>
<path d="M406.047 336.196C400.99 338.132 398.186 340.119 392.163 339.202C402.373 325.939 413.972 324.314 418.54 324.928C417.791 327.985 415.24 332.677 406.047 336.196Z" fill="#F15846"/>
<path d="M392.849 337.525C388.475 335.334 380.938 326.298 385.784 307.681C389.468 309.841 396.039 318.833 392.849 337.525Z" fill="#F15846"/>
<path d="M382.658 363.171C387.46 365.788 400.368 367.585 413.581 353.837C409.569 351.744 397.767 350.68 382.658 363.171Z" fill="#F15846"/>
<path d="M383.344 361.494C377.262 359.307 366.169 349.077 370.451 325.652C375.818 331.06 385.91 345.799 383.344 361.494Z" fill="#F15846"/>
<path d="M375.816 387.626C380.227 391.69 393.846 394.641 413.036 373.942C406.004 372.972 388.715 374.352 375.816 387.626Z" fill="#F15846"/>
<path d="M368.692 418.291C374.152 421.629 389.282 424.275 406.117 408.154C399.507 405.048 382.768 402.728 368.692 418.291Z" fill="#F15846"/>
<path fill-rule="evenodd" clip-rule="evenodd" d="M437.702 357.684C406.428 385.274 381.743 423.254 367.375 449.952L365.115 448.736C379.553 421.909 404.409 383.634 436.004 355.76L437.702 357.684Z" fill="#E9B11D"/>
<path d="M445.927 339.764C439.148 344.463 436.673 353.31 436.283 357.147C456.985 354.478 464.142 340.219 465.133 333.423C461.555 333.579 452.706 335.065 445.927 339.764Z" fill="#FAC22F"/>
<path d="M441.484 377.202C429.94 378.362 423.325 374.046 421.46 371.743C443.371 363.563 457.033 365.758 461.125 367.878C459.388 370.502 453.028 376.041 441.484 377.202Z" fill="#FAC22F"/>
<path d="M422.672 370.396C419.295 366.857 415.252 355.807 426.1 339.92C428.838 343.197 431.986 353.88 422.672 370.396Z" fill="#FAC22F"/>
<path d="M404.42 391.095C408.056 395.179 419.598 401.229 436.678 392.751C433.608 389.426 422.859 384.439 404.42 391.095Z" fill="#FAC22F"/>
<path d="M405.632 389.748C400.645 385.635 393.658 372.26 405.599 351.657C408.825 358.56 413.347 375.842 405.632 389.748Z" fill="#FAC22F"/>
<path d="M389.721 411.803C392.501 417.117 404.324 424.494 429.376 411.491C423.084 408.204 406.345 403.664 389.721 411.803Z" fill="#FAC22F"/>
<path d="M389.866 410.808C385.802 407.338 379.121 396.039 384.913 378.602C388.432 382.331 394.349 393.993 389.866 410.808Z" fill="#FAC22F"/>
<path d="M372.66 438.261C376.673 443.247 390.021 450.846 411.31 441.357C406.137 436.202 391.165 428.365 372.66 438.261Z" fill="#FAC22F"/>
<path d="M64.9253 150.133C64.9253 148.007 66.6484 146.284 68.7739 146.284H140.614C142.739 146.284 144.462 148.007 144.462 150.133V241.171C144.462 243.297 142.739 245.02 140.614 245.02H68.7739C66.6484 245.02 64.9253 243.297 64.9253 241.171V150.133Z" fill="#E5E5E5"/>
<path d="M77.2671 162.475C77.2671 160.349 78.9901 158.626 81.1157 158.626H128.272C130.397 158.626 132.12 160.349 132.12 162.475V228.829C132.12 230.955 130.397 232.678 128.272 232.678H81.1156C78.9901 232.678 77.2671 230.955 77.2671 228.829V162.475Z" fill="white"/>
<path d="M121.874 188.796L101.951 205.673V232.678H128.272C130.397 232.678 132.12 230.955 132.12 228.829V196.672L121.874 188.796Z" fill="#F1F1F1"/>
<path d="M97.2656 187.424L77.2671 204.829V228.829C77.2671 230.954 78.9901 232.677 81.1156 232.677H128.272C130.397 232.677 132.12 230.954 132.12 228.829V217.013L97.2656 187.424Z" fill="#E5E5E5"/>
<path d="M115.664 178.511C115.664 181.919 112.901 184.682 109.493 184.682C106.085 184.682 103.322 181.919 103.322 178.511C103.322 175.103 106.085 172.34 109.493 172.34C112.901 172.34 115.664 175.103 115.664 178.511Z" fill="#F1F1F1"/>
<path d="M185.514 114.213C185.514 104.294 193.555 96.2528 203.474 96.2528H358.699C368.618 96.2528 376.659 104.294 376.659 114.213V431.078C376.659 440.997 368.618 449.038 358.699 449.038H203.474C193.555 449.038 185.514 440.997 185.514 431.078V114.213Z" fill="#E5E5E5"/>
<path fill-rule="evenodd" clip-rule="evenodd" d="M184.231 114.213C184.231 103.586 192.846 94.9703 203.474 94.9703H358.699C369.327 94.9703 377.942 103.586 377.942 114.213V431.078C377.942 441.705 369.327 450.321 358.699 450.321H203.474C192.846 450.321 184.231 441.705 184.231 431.078V114.213ZM203.474 97.536C194.263 97.536 186.797 105.003 186.797 114.213V431.078C186.797 440.288 194.263 447.755 203.474 447.755H358.699C367.91 447.755 375.376 440.288 375.376 431.078V114.213C375.376 105.003 367.91 97.536 358.699 97.536H203.474Z" fill="#3E3D3D"/>
<path d="M191.928 115.496C191.928 108.411 197.672 102.667 204.757 102.667H357.416C364.501 102.667 370.245 108.411 370.245 115.496V420.815C370.245 427.9 364.501 433.643 357.416 433.643H204.757C197.672 433.643 191.928 427.9 191.928 420.815V115.496Z" fill="white"/>
<path d="M243.242 102.667H322.779L320.353 109.515C319.083 113.1 315.692 115.496 311.889 115.496H254.133C250.329 115.496 246.938 113.1 245.668 109.515L243.242 102.667Z" fill="#E5E5E5"/>
<path fill-rule="evenodd" clip-rule="evenodd" d="M259.302 196.248C263.65 188.336 272.062 182.974 281.728 182.974C291.393 182.974 299.806 188.336 304.154 196.248C304.14 196.264 304.126 196.28 304.112 196.296C298.701 202.591 290.68 206.578 281.728 206.578C272.753 206.578 264.713 202.571 259.302 196.248Z" fill="#F1F1F1"/>
<path d="M293.15 167.08C293.15 169.804 292.111 172.296 290.393 174.211C288.299 176.546 285.194 178.025 281.728 178.025C275.42 178.025 270.307 173.125 270.307 167.08C270.307 161.035 275.42 156.134 281.728 156.134C288.036 156.134 293.15 161.035 293.15 167.08Z" fill="#F1F1F1"/>
<path fill-rule="evenodd" clip-rule="evenodd" d="M281.728 148.85C266.141 148.85 253.505 161.486 253.505 177.073C253.505 192.66 266.141 205.296 281.728 205.296C290.291 205.296 297.962 201.484 303.14 195.46C307.386 190.52 309.951 184.098 309.951 177.073C309.951 161.486 297.315 148.85 281.728 148.85ZM250.939 177.073C250.939 160.069 264.724 146.284 281.728 146.284C298.732 146.284 312.516 160.069 312.516 177.073C312.516 184.734 309.716 191.745 305.086 197.133C299.441 203.699 291.07 207.861 281.728 207.861C264.724 207.861 250.939 194.077 250.939 177.073Z" fill="#F1F1F1"/>
<path fill-rule="evenodd" clip-rule="evenodd" d="M344.588 239.933H218.868V237.367H344.588V239.933Z" fill="#F1F1F1"/>
<path fill-rule="evenodd" clip-rule="evenodd" d="M344.588 395.158H218.868V392.592H344.588V395.158Z" fill="#F1F1F1"/>
<path fill-rule="evenodd" clip-rule="evenodd" d="M304.819 413.118H218.868V410.552H304.819V413.118Z" fill="#F1F1F1"/>
<path fill-rule="evenodd" clip-rule="evenodd" d="M252.222 254.044H217.585V248.913H252.222V254.044Z" fill="#53B3CC"/>
<path fill-rule="evenodd" clip-rule="evenodd" d="M311.233 221.973H252.222V216.841H311.233V221.973Z" fill="#53B3CC"/>
<path fill-rule="evenodd" clip-rule="evenodd" d="M252.222 305.358H217.585V300.227H252.222V305.358Z" fill="#53B3CC"/>
<path d="M216.302 266.873C216.302 264.747 218.025 263.024 220.151 263.024H344.588C346.713 263.024 348.436 264.747 348.436 266.873V280.984C348.436 283.11 346.713 284.833 344.588 284.833H220.151C218.025 284.833 216.302 283.11 216.302 280.984V266.873Z" fill="#F1F1F1"/>
<path d="M216.302 316.904C216.302 314.778 218.025 313.055 220.151 313.055H344.588C346.713 313.055 348.436 314.778 348.436 316.904V331.015C348.436 333.141 346.713 334.864 344.588 334.864H220.151C218.025 334.864 216.302 333.141 216.302 331.015V316.904Z" fill="#F1F1F1"/>
<path d="M248.374 357.955C248.374 355.83 250.097 354.107 252.222 354.107H312.516C314.642 354.107 316.365 355.83 316.365 357.955V372.067C316.365 374.192 314.642 375.915 312.516 375.915H252.222C250.097 375.915 248.374 374.192 248.374 372.067V357.955Z" fill="#53B3CC"/>
<path d="M230.414 274.57C230.414 275.987 229.265 277.136 227.848 277.136C226.431 277.136 225.282 275.987 225.282 274.57C225.282 273.153 226.431 272.005 227.848 272.005C229.265 272.005 230.414 273.153 230.414 274.57Z" fill="#C4C4C4"/>
<path d="M244.525 274.57C244.525 275.987 243.376 277.136 241.959 277.136C240.542 277.136 239.394 275.987 239.394 274.57C239.394 273.153 240.542 272.004 241.959 272.004C243.376 272.004 244.525 273.153 244.525 274.57Z" fill="#C4C4C4"/>
<path d="M258.636 274.57C258.636 275.987 257.488 277.136 256.071 277.136C254.654 277.136 253.505 275.987 253.505 274.57C253.505 273.153 254.654 272.004 256.071 272.004C257.488 272.004 258.636 273.153 258.636 274.57Z" fill="#C4C4C4"/>
<path d="M272.748 274.57C272.748 275.987 271.599 277.136 270.182 277.136C268.765 277.136 267.616 275.987 267.616 274.57C267.616 273.153 268.765 272.004 270.182 272.004C271.599 272.004 272.748 273.153 272.748 274.57Z" fill="#C4C4C4"/>
<path d="M286.859 274.57C286.859 275.987 285.71 277.136 284.293 277.136C282.876 277.136 281.728 275.987 281.728 274.57C281.728 273.153 282.876 272.004 284.293 272.004C285.71 272.004 286.859 273.153 286.859 274.57Z" fill="#C4C4C4"/>
<path d="M300.971 274.57C300.971 275.987 299.822 277.136 298.405 277.136C296.988 277.136 295.839 275.987 295.839 274.57C295.839 273.153 296.988 272.004 298.405 272.004C299.822 272.004 300.971 273.153 300.971 274.57Z" fill="#C4C4C4"/>
<path d="M315.082 274.57C315.082 275.987 313.933 277.136 312.516 277.136C311.099 277.136 309.951 275.987 309.951 274.57C309.951 273.153 311.099 272.004 312.516 272.004C313.933 272.004 315.082 273.153 315.082 274.57Z" fill="#C4C4C4"/>
<path d="M230.414 324.601C230.414 326.018 229.265 327.167 227.848 327.167C226.431 327.167 225.282 326.018 225.282 324.601C225.282 323.184 226.431 322.035 227.848 322.035C229.265 322.035 230.414 323.184 230.414 324.601Z" fill="#C4C4C4"/>
<path d="M244.525 324.601C244.525 326.018 243.376 327.167 241.959 327.167C240.542 327.167 239.394 326.018 239.394 324.601C239.394 323.184 240.542 322.036 241.959 322.036C243.376 322.036 244.525 323.184 244.525 324.601Z" fill="#C4C4C4"/>
<path d="M258.636 324.601C258.636 326.018 257.488 327.167 256.071 327.167C254.654 327.167 253.505 326.018 253.505 324.601C253.505 323.184 254.654 322.036 256.071 322.036C257.488 322.036 258.636 323.184 258.636 324.601Z" fill="#C4C4C4"/>
<path d="M272.748 324.601C272.748 326.018 271.599 327.167 270.182 327.167C268.765 327.167 267.616 326.018 267.616 324.601C267.616 323.184 268.765 322.036 270.182 322.036C271.599 322.036 272.748 323.184 272.748 324.601Z" fill="#C4C4C4"/>
<path d="M286.859 324.601C286.859 326.018 285.71 327.167 284.293 327.167C282.876 327.167 281.728 326.018 281.728 324.601C281.728 323.184 282.876 322.036 284.293 322.036C285.71 322.036 286.859 323.184 286.859 324.601Z" fill="#C4C4C4"/>
<path d="M300.971 324.601C300.971 326.018 299.822 327.167 298.405 327.167C296.988 327.167 295.839 326.018 295.839 324.601C295.839 323.184 296.988 322.036 298.405 322.036C299.822 322.036 300.971 323.184 300.971 324.601Z" fill="#C4C4C4"/>
<path d="M315.082 324.601C315.082 326.018 313.933 327.167 312.516 327.167C311.099 327.167 309.951 326.018 309.951 324.601C309.951 323.184 311.099 322.036 312.516 322.036C313.933 322.036 315.082 323.184 315.082 324.601Z" fill="#C4C4C4"/>
<path fill-rule="evenodd" clip-rule="evenodd" d="M356.133 125.759H342.022V123.193H356.133V125.759ZM356.133 133.456H342.022V130.89H356.133V133.456ZM356.133 141.153H342.022V138.587H356.133V141.153Z" fill="#3E3D3D"/>
<path fill-rule="evenodd" clip-rule="evenodd" d="M212.829 123.569L214.644 125.383L207.854 132.173L214.644 138.963L212.829 140.777L204.225 132.173L212.829 123.569Z" fill="#3E3D3D"/>
<path d="M264.552 367.077C264.552 366.755 264.437 366.505 264.207 366.325C263.982 366.146 263.583 365.96 263.011 365.768C262.439 365.576 261.971 365.39 261.608 365.21C260.426 364.63 259.835 363.832 259.835 362.817C259.835 362.312 259.981 361.867 260.274 361.483C260.57 361.095 260.988 360.794 261.526 360.581C262.065 360.364 262.671 360.255 263.343 360.255C263.999 360.255 264.585 360.372 265.103 360.606C265.625 360.84 266.03 361.174 266.318 361.608C266.606 362.039 266.751 362.531 266.751 363.087H264.558C264.558 362.715 264.443 362.427 264.214 362.222C263.988 362.018 263.681 361.915 263.293 361.915C262.9 361.915 262.589 362.003 262.36 362.178C262.134 362.35 262.021 362.569 262.021 362.836C262.021 363.07 262.147 363.283 262.397 363.475C262.648 363.663 263.088 363.859 263.719 364.064C264.349 364.264 264.867 364.481 265.272 364.715C266.258 365.283 266.751 366.066 266.751 367.064C266.751 367.862 266.45 368.488 265.849 368.943C265.247 369.399 264.422 369.626 263.374 369.626C262.635 369.626 261.965 369.495 261.364 369.232C260.766 368.964 260.315 368.601 260.011 368.142C259.71 367.678 259.56 367.146 259.56 366.544H261.764C261.764 367.033 261.89 367.394 262.14 367.628C262.395 367.858 262.806 367.973 263.374 367.973C263.738 367.973 264.024 367.895 264.232 367.741C264.445 367.582 264.552 367.361 264.552 367.077Z" fill="white"/>
<path d="M270.008 369.501H267.891V362.723H270.008V369.501ZM267.765 360.976C267.765 360.675 267.874 360.429 268.091 360.237C268.308 360.045 268.59 359.948 268.937 359.948C269.283 359.948 269.565 360.045 269.782 360.237C269.999 360.429 270.108 360.675 270.108 360.976C270.108 361.276 269.999 361.523 269.782 361.715C269.565 361.907 269.283 362.003 268.937 362.003C268.59 362.003 268.308 361.907 268.091 361.715C267.874 361.523 267.765 361.276 267.765 360.976Z" fill="white"/>
<path d="M271.066 366.062C271.066 365.377 271.179 364.772 271.405 364.246C271.63 363.719 271.954 363.314 272.376 363.03C272.797 362.742 273.288 362.598 273.848 362.598C274.553 362.598 275.105 362.836 275.501 363.312L275.576 362.723H277.493V369.244C277.493 369.841 277.353 370.359 277.074 370.798C276.798 371.24 276.397 371.579 275.871 371.812C275.345 372.05 274.735 372.169 274.042 372.169C273.545 372.169 273.063 372.075 272.595 371.888C272.131 371.7 271.776 371.455 271.53 371.155L272.413 369.914C272.806 370.378 273.324 370.61 273.967 370.61C274.902 370.61 275.37 370.129 275.37 369.169V368.956C274.965 369.403 274.453 369.626 273.835 369.626C273.008 369.626 272.34 369.311 271.831 368.68C271.321 368.046 271.066 367.198 271.066 366.137V366.062ZM273.184 366.194C273.184 366.749 273.288 367.19 273.497 367.515C273.706 367.837 273.998 367.998 274.374 367.998C274.829 367.998 275.161 367.845 275.37 367.54V364.69C275.165 364.381 274.837 364.227 274.386 364.227C274.01 364.227 273.716 364.396 273.503 364.734C273.29 365.068 273.184 365.555 273.184 366.194Z" fill="white"/>
<path d="M280.631 362.723L280.7 363.519C281.168 362.905 281.813 362.598 282.636 362.598C283.342 362.598 283.868 362.809 284.214 363.231C284.565 363.653 284.747 364.287 284.759 365.135V369.501H282.642V365.223C282.642 364.88 282.573 364.63 282.435 364.471C282.298 364.308 282.047 364.227 281.684 364.227C281.27 364.227 280.963 364.39 280.763 364.715V369.501H278.652V362.723H280.631Z" fill="white"/>
<path d="M296.379 360.381V366.35C296.379 367.027 296.235 367.613 295.947 368.11C295.659 368.603 295.245 368.979 294.707 369.238C294.168 369.497 293.531 369.626 292.796 369.626C291.685 369.626 290.81 369.338 290.171 368.762C289.532 368.186 289.207 367.396 289.194 366.394V360.381H291.405V366.438C291.43 367.436 291.894 367.935 292.796 367.935C293.251 367.935 293.596 367.81 293.83 367.559C294.063 367.309 294.18 366.901 294.18 366.338V360.381H296.379Z" fill="white"/>
<path d="M303.952 366.162C303.952 367.215 303.714 368.056 303.238 368.687C302.766 369.313 302.127 369.626 301.321 369.626C300.699 369.626 300.187 369.399 299.787 368.943V372.107H297.676V362.723H299.649L299.711 363.35C300.116 362.849 300.649 362.598 301.309 362.598C302.144 362.598 302.793 362.907 303.257 363.525C303.72 364.139 303.952 364.985 303.952 366.062V366.162ZM301.841 366.031C301.841 364.828 301.49 364.227 300.789 364.227C300.288 364.227 299.954 364.406 299.787 364.765V367.434C299.97 367.81 300.309 367.998 300.801 367.998C301.474 367.998 301.82 367.417 301.841 366.256V366.031Z" fill="white"/>
<path d="M132.917 237.651C127.786 250.993 133.345 266.729 136.765 272.93L159.216 284.475L181.666 315.905L213.095 318.187C212.668 316.262 207.323 294.225 204.757 289.607C201.55 283.834 200.267 277.42 201.55 269.081C202.833 260.743 197.06 247.273 194.494 239.576C192.442 233.418 187.652 233.161 185.514 233.803C182.521 229.527 174.482 220.718 166.271 219.691C156.009 218.408 139.331 220.974 132.917 237.651Z" fill="#3E3D3D"/>
<path d="M181.898 283.834L186.388 305.001C187.457 309.491 189.723 319.112 190.237 321.678C190.878 324.885 178.049 325.527 174.201 324.885C170.352 324.244 149.185 322.319 147.902 321.678C146.876 321.165 146.192 311.629 145.978 306.925L149.185 292.814C136.357 286.143 134.86 268.226 135.715 260.101C145.465 257.535 144.909 248.769 143.412 244.707C146.114 249.411 153.315 259.203 160.499 260.743C167.683 262.282 171.617 262.667 172.686 262.667L174.201 271.006C175.74 269.466 176.125 263.095 176.125 260.101C178.049 257.749 182.411 254.457 184.464 260.101C186.516 265.746 182.753 271.861 180.615 274.212L181.898 283.834Z" fill="#EFCB96"/>
<path fill-rule="evenodd" clip-rule="evenodd" d="M186.797 300.868C186.369 307.069 183.694 314.623 165.221 314.623C146.748 314.623 145.745 305.786 145.745 299.585C131.206 297.234 96.9968 306.641 76.4712 339.354C58.6756 367.717 51.3323 388.526 48.8755 400.012C47.9897 401.912 47.4044 403.619 47.198 405.064C45.2737 418.534 55.5365 435.211 69.0065 432.645C73.3489 431.818 78.3927 424.575 83.2732 414.878L85.6837 415.327L83.118 449.323H232.57C235.191 435.185 237.411 416.946 237.941 398.008C247.732 352.824 224.641 303.434 186.797 300.868Z" fill="#53B3CC"/>
<path d="M126.094 322.32L123.528 351.825H117.755L95.9467 317.83L97.871 316.547L126.094 322.32Z" fill="#E5E5E5"/>
<path d="M123.528 324.244L120.962 358.24H103.644L93.3808 341.563L95.9465 317.83L123.528 324.244Z" fill="#F1F1F1"/>
<path d="M133.791 371.709L143.412 378.765L131.866 394.801C131.866 394.159 130.584 391.722 125.452 387.104C119.038 381.331 119.038 385.821 106.851 373.634C94.6637 361.447 102.361 346.694 106.851 349.26C110.443 351.312 120.321 351.184 123.528 351.825L124.169 342.204L125.452 342.845C132.123 347.977 133.791 364.226 133.791 371.709Z" fill="#EFCB96"/>
<path d="M97.2292 365.295L95.9463 367.219L91.4564 365.937L86.9664 363.371C87.394 362.302 82.733 361.575 83.7593 359.523C85.0421 356.957 81.835 347.977 82.4764 342.204C83.1178 336.431 90.815 331.941 94.6635 332.582C98.5121 333.224 99.1535 337.714 101.719 349.259C103.772 358.496 99.5811 363.798 97.2292 365.295Z" fill="#EFCB96"/>
<path fill-rule="evenodd" clip-rule="evenodd" d="M196.519 377.744C200.14 370.387 203.211 361.754 204.934 356.044L202.478 355.303C200.781 360.925 197.758 369.418 194.217 376.611C192.444 380.212 190.566 383.436 188.69 385.804C186.761 388.237 185.044 389.495 183.652 389.681C182.015 389.899 179.42 389.486 176.132 388.53C172.896 387.589 169.159 386.175 165.321 384.544C157.648 381.283 149.671 377.199 144.675 374.435L143.634 373.86L127.733 398.058L128.276 398.78C134.53 407.082 145.328 419.016 157.441 427.86C169.463 436.639 183.215 442.686 195.165 438.341C206.707 434.143 216.491 426.297 224.014 418.255C231.539 410.211 236.87 401.899 239.491 396.657L237.196 395.51C234.685 400.531 229.497 408.639 222.141 416.503C214.783 424.368 205.324 431.916 194.288 435.929C183.659 439.794 170.899 434.51 158.954 425.788C147.442 417.382 137.09 406.075 130.871 397.954L144.475 377.253C149.551 380.018 157.058 383.821 164.318 386.905C168.204 388.556 172.044 390.013 175.416 390.993C178.736 391.959 181.781 392.519 183.992 392.224C186.448 391.896 188.714 389.904 190.7 387.397C192.739 384.825 194.71 381.418 196.519 377.744Z" fill="#46A4BC"/>
<path fill-rule="evenodd" clip-rule="evenodd" d="M82.9956 355.238L81.5608 356.7C75.9792 362.389 67.513 371.596 60.2412 380.742C56.6061 385.314 53.2525 389.892 50.7045 394.022C48.1837 398.108 46.3533 401.907 45.9281 404.883L48.468 405.246C48.8126 402.834 50.3871 399.423 52.8881 395.369C55.3619 391.359 58.6471 386.869 62.2495 382.338C68.9117 373.959 76.6009 365.512 82.0986 359.826C83.8818 362.933 87.0553 365.142 90.2657 366.664C93.4404 368.168 96.8288 369.086 99.4186 369.547C95.7281 381.547 89.3451 399.699 82.6092 413.335L84.9096 414.471C92.0059 400.105 98.6782 380.883 102.306 368.874L102.746 367.419L101.237 367.23C98.78 366.923 94.9073 366.024 91.3645 364.345C87.7853 362.649 84.796 360.279 83.6847 357.167L82.9956 355.238Z" fill="#46A4BC"/>
<path d="M401.033 179.639C401.033 176.096 403.905 173.224 407.447 173.224H457.479C461.021 173.224 463.893 176.096 463.893 179.639V229.67C463.893 233.212 461.021 236.084 457.479 236.084H407.447C403.905 236.084 401.033 233.212 401.033 229.67V179.639Z" fill="#53B3CC"/>
<path fill-rule="evenodd" clip-rule="evenodd" d="M456.213 197.423L424.629 219.63C421.683 221.702 417.58 220.599 416.069 217.33L408.503 200.962L416.655 197.195L422.608 210.074L451.048 190.077L456.213 197.423Z" fill="white"/>
<path fill-rule="evenodd" clip-rule="evenodd" d="M-0.5 449.038C-0.5 448.329 0.0743531 447.755 0.782854 447.755H510.717C511.426 447.755 512 448.329 512 449.038C512 449.746 511.426 450.321 510.717 450.321H0.782854C0.0743531 450.321 -0.5 449.746 -0.5 449.038Z" fill="#3E3D3D"/>
</g>
<defs>
<clipPath id="clip0_101_2761">
<rect width="512" height="512" fill="white"/>
</clipPath>
</defs>
</svg>
