<svg width="85" height="24" viewBox="0 0 85 24" fill="none" xmlns="http://www.w3.org/2000/svg">
<path d="M10.9441 4.368C10.2721 4 9.58406 3.696 8.88006 3.456C8.19206 3.216 7.54406 3.096 6.93606 3.096C6.18406 3.096 5.59206 3.248 5.16006 3.552C4.72806 3.856 4.51206 4.312 4.51206 4.92C4.51206 5.336 4.67206 5.712 4.99206 6.048C5.32806 6.368 5.75206 6.656 6.26406 6.912C6.79206 7.168 7.33606 7.4 7.89606 7.608C8.58406 7.864 9.24806 8.192 9.88806 8.592C10.5281 8.976 11.0561 9.512 11.4721 10.2C11.8881 10.872 12.0961 11.768 12.0961 12.888C12.0961 13.784 11.8641 14.616 11.4001 15.384C10.9361 16.152 10.2561 16.776 9.36006 17.256C8.46406 17.72 7.36006 17.952 6.04806 17.952C5.04006 17.952 4.00806 17.8 2.95206 17.496C1.91206 17.192 0.928056 16.712 5.57005e-05 16.056L1.53606 13.344C2.14406 13.792 2.84006 14.16 3.62406 14.448C4.40806 14.736 5.11206 14.88 5.73606 14.88C6.15206 14.88 6.56806 14.824 6.98406 14.712C7.41606 14.584 7.76806 14.376 8.04006 14.088C8.32806 13.8 8.47206 13.4 8.47206 12.888C8.47206 12.536 8.35206 12.216 8.11206 11.928C7.88806 11.64 7.57606 11.376 7.17606 11.136C6.79206 10.896 6.36806 10.688 5.90406 10.512C5.36006 10.304 4.80006 10.064 4.22406 9.792C3.64806 9.52 3.10406 9.192 2.59206 8.808C2.09606 8.408 1.68806 7.92 1.36806 7.344C1.06406 6.752 0.912056 6.032 0.912056 5.184C0.912056 4.16 1.13606 3.272 1.58406 2.52C2.04806 1.768 2.69606 1.176 3.52806 0.744001C4.36006 0.296001 5.32006 0.0480013 6.40806 1.90735e-06C7.83206 1.90735e-06 8.98406 0.168002 9.86406 0.504001C10.7601 0.840002 11.5601 1.24 12.2641 1.704L10.9441 4.368ZM14.9522 7.272H18.3122V17.76H14.9522V7.272ZM14.8802 3.552C14.8802 3.056 15.0722 2.648 15.4562 2.328C15.8562 2.008 16.2802 1.848 16.7282 1.848C17.1762 1.848 17.5842 2.008 17.9522 2.328C18.3362 2.648 18.5282 3.056 18.5282 3.552C18.5282 4.048 18.3362 4.456 17.9522 4.776C17.5842 5.08 17.1762 5.232 16.7282 5.232C16.2802 5.232 15.8562 5.08 15.4562 4.776C15.0722 4.456 14.8802 4.048 14.8802 3.552ZM27.1966 23.04C26.2526 23.04 25.4526 22.928 24.7966 22.704C24.1566 22.48 23.6126 22.208 23.1646 21.888C22.7166 21.568 22.3166 21.264 21.9646 20.976L23.9326 18.672C24.3006 19.008 24.7246 19.328 25.2046 19.632C25.7006 19.952 26.3486 20.112 27.1486 20.112C27.9486 20.112 28.6446 19.904 29.2366 19.488C29.8446 19.088 30.1486 18.496 30.1486 17.712V15.408L30.2686 16.008C30.0126 16.552 29.5486 17.032 28.8766 17.448C28.2046 17.848 27.3246 18.048 26.2366 18.048C25.2926 18.048 24.4126 17.808 23.5966 17.328C22.7966 16.832 22.1566 16.168 21.6766 15.336C21.1966 14.488 20.9566 13.528 20.9566 12.456C20.9566 11.352 21.2126 10.376 21.7246 9.528C22.2366 8.664 22.9006 7.984 23.7166 7.488C24.5326 6.992 25.3966 6.744 26.3086 6.744C27.2206 6.744 28.0046 6.88 28.6606 7.152C29.3326 7.408 29.8366 7.728 30.1726 8.112L30.0526 8.424L30.4126 7.272H33.5086V17.76C33.5086 18.784 33.2206 19.688 32.6446 20.472C32.0686 21.272 31.3006 21.896 30.3406 22.344C29.3966 22.808 28.3486 23.04 27.1966 23.04ZM24.3406 12.36C24.3406 12.92 24.4686 13.424 24.7246 13.872C24.9806 14.32 25.3246 14.672 25.7566 14.928C26.2046 15.184 26.7006 15.312 27.2446 15.312C27.9326 15.312 28.5086 15.184 28.9726 14.928C29.4526 14.656 29.8446 14.256 30.1486 13.728V11.16C29.9246 10.648 29.5566 10.24 29.0446 9.936C28.5326 9.632 27.9326 9.48 27.2446 9.48C26.7006 9.48 26.2046 9.608 25.7566 9.864C25.3246 10.104 24.9806 10.44 24.7246 10.872C24.4686 11.304 24.3406 11.8 24.3406 12.36ZM40.0081 7.272L40.2721 9.144L40.2241 8.976C40.5921 8.32 41.1121 7.792 41.7841 7.392C42.4561 6.976 43.2801 6.768 44.2561 6.768C45.2481 6.768 46.0721 7.064 46.7281 7.656C47.4001 8.232 47.7441 8.984 47.7601 9.912V17.76H44.4001V11.16C44.3841 10.696 44.2561 10.328 44.0161 10.056C43.7921 9.768 43.4081 9.624 42.8641 9.624C42.0801 9.624 41.4561 9.992 40.9921 10.728C40.5441 11.448 40.3201 12.368 40.3201 13.488V17.76H36.9601V7.272H40.0081ZM57.9992 11.232C57.9992 11.792 58.1672 12.328 58.5032 12.84C58.8392 13.352 59.2792 13.768 59.8232 14.088C60.3832 14.408 60.9912 14.568 61.6472 14.568C62.3672 14.568 63.0072 14.408 63.5672 14.088C64.1272 13.768 64.5672 13.352 64.8872 12.84C65.2232 12.328 65.3912 11.792 65.3912 11.232V0.0960007H68.8232V11.304C68.8232 12.6 68.5032 13.752 67.8632 14.76C67.2232 15.752 66.3592 16.536 65.2712 17.112C64.1832 17.672 62.9752 17.952 61.6472 17.952C60.3352 17.952 59.1352 17.672 58.0472 17.112C56.9752 16.536 56.1192 15.752 55.4792 14.76C54.8392 13.752 54.5192 12.6 54.5192 11.304V0.0960007H57.9992V11.232ZM79.0439 18.048C78.4199 18.048 77.8039 17.936 77.1959 17.712C76.6039 17.472 76.1079 17.136 75.7079 16.704L75.8039 15.72V22.8H72.4679V7.032H75.3479L75.8279 9.072L75.5639 8.352C76.1079 7.888 76.7159 7.504 77.3879 7.2C78.0599 6.896 78.8359 6.744 79.7159 6.744C80.6919 6.744 81.5639 6.976 82.3319 7.44C83.0999 7.888 83.6999 8.544 84.1319 9.408C84.5799 10.256 84.8039 11.28 84.8039 12.48C84.8039 13.664 84.5559 14.672 84.0599 15.504C83.5639 16.336 82.8839 16.968 82.0199 17.4C81.1559 17.832 80.1639 18.048 79.0439 18.048ZM78.3719 15.408C78.9159 15.408 79.4119 15.288 79.8599 15.048C80.3239 14.808 80.6919 14.472 80.9639 14.04C81.2519 13.592 81.3959 13.088 81.3959 12.528C81.3959 11.936 81.2679 11.424 81.0119 10.992C80.7719 10.544 80.4359 10.2 80.0039 9.96C79.5879 9.704 79.1239 9.576 78.6119 9.576C77.9399 9.576 77.3799 9.712 76.9319 9.984C76.4839 10.24 76.1159 10.632 75.8279 11.16V13.728C76.0039 14.24 76.3159 14.648 76.7639 14.952C77.2279 15.256 77.7639 15.408 78.3719 15.408Z" fill="#032068"/>
</svg>
