<svg width="360" height="335" viewBox="0 0 360 335" fill="none" xmlns="http://www.w3.org/2000/svg">
<g clip-path="url(#clip0_156_327)">
<path d="M406 286.902H-22V287.121H406V286.902Z" fill="#EBEBEB"/>
<path d="M51.2565 295.252H22.9058V295.472H51.2565V295.252Z" fill="#EBEBEB"/>
<path d="M170.6 295.366H124.496V295.586H170.6V295.366Z" fill="#EBEBEB"/>
<path d="M84.9658 299.778H68.5392V299.998H84.9658V299.778Z" fill="#EBEBEB"/>
<path d="M359.776 299.673H343.315V299.893H359.776V299.673Z" fill="#EBEBEB"/>
<path d="M335.688 299.673H309.76V299.893H335.688V299.673Z" fill="#EBEBEB"/>
<path d="M295.482 298.226H259.05V298.445H295.482V298.226Z" fill="#EBEBEB"/>
<path d="M180.872 247.78H15.587C14.2922 247.778 13.0512 247.249 12.1364 246.31C11.2216 245.371 10.7078 244.099 10.7078 242.772V4.68469C10.7191 3.36546 11.2379 2.10407 12.1514 1.17449C13.065 0.244914 14.2996 -0.277769 15.587 -0.280029H180.872C182.168 -0.280029 183.412 0.247659 184.328 1.18695C185.245 2.12624 185.76 3.40019 185.76 4.72855V242.772C185.76 244.1 185.245 245.374 184.328 246.314C183.412 247.253 182.168 247.78 180.872 247.78V247.78ZM15.587 -0.104597C14.349 -0.102273 13.1624 0.403335 12.2877 1.30125C11.4131 2.19916 10.9218 3.41601 10.9218 4.68469V242.772C10.9218 244.041 11.4131 245.257 12.2877 246.155C13.1624 247.053 14.349 247.559 15.587 247.561H180.872C182.111 247.559 183.298 247.054 184.174 246.156C185.05 245.258 185.544 244.041 185.546 242.772V4.68469C185.544 3.4152 185.05 2.19838 184.174 1.30071C183.298 0.40305 182.111 -0.102278 180.872 -0.104597H15.587Z" fill="#EBEBEB"/>
<path d="M366.033 247.78H200.74C199.444 247.778 198.202 247.25 197.286 246.311C196.37 245.372 195.854 244.1 195.852 242.772V4.68469C195.866 3.36466 196.386 2.10328 197.301 1.17394C198.216 0.244607 199.451 -0.277794 200.74 -0.280029H366.033C367.319 -0.275464 368.552 0.248239 369.463 1.17757C370.375 2.1069 370.893 3.36698 370.904 4.68469V242.772C370.904 244.097 370.391 245.369 369.478 246.307C368.566 247.246 367.327 247.776 366.033 247.78V247.78ZM200.74 -0.104597C199.501 -0.102278 198.313 0.40305 197.437 1.30071C196.561 2.19838 196.068 3.4152 196.066 4.68469V242.772C196.068 244.041 196.561 245.258 197.437 246.156C198.313 247.054 199.501 247.559 200.74 247.561H366.033C367.272 247.559 368.46 247.054 369.336 246.156C370.212 245.258 370.705 244.041 370.707 242.772V4.68469C370.705 3.4152 370.212 2.19838 369.336 1.30071C368.46 0.40305 367.272 -0.102278 366.033 -0.104597H200.74Z" fill="#EBEBEB"/>
<path d="M337.417 31.3152H238.036V152.907H337.417V31.3152Z" fill="#E6E6E6"/>
<path d="M339.9 31.3152H240.518V152.907H339.9V31.3152Z" fill="#F5F5F5"/>
<path d="M335.448 147.776V36.4379L244.978 36.4379V147.776H335.448Z" fill="white"/>
<path d="M335.44 147.776V36.4379H333.565V147.776H335.44Z" fill="#E6E6E6"/>
<path d="M338.051 121.4H242.358V128.285H338.051V121.4Z" fill="#F5F5F5"/>
<path d="M344.753 22.8331H233.182C233.001 22.8331 232.826 22.9071 232.698 23.0387C232.57 23.1703 232.497 23.3488 232.497 23.5349V23.5349C232.497 23.721 232.57 23.8995 232.698 24.0311C232.826 24.1627 233.001 24.2366 233.182 24.2366H344.753C344.935 24.2366 345.109 24.1627 345.237 24.0311C345.366 23.8995 345.438 23.721 345.438 23.5349V23.5349C345.438 23.3488 345.366 23.1703 345.237 23.0387C345.109 22.9071 344.935 22.8331 344.753 22.8331V22.8331Z" fill="#E6E6E6"/>
<path d="M345.438 27.0435C347.329 27.0435 348.862 25.4726 348.862 23.5349C348.862 21.5971 347.329 20.0262 345.438 20.0262C343.547 20.0262 342.014 21.5971 342.014 23.5349C342.014 25.4726 343.547 27.0435 345.438 27.0435Z" fill="#E6E6E6"/>
<path d="M238.96 27.4645C238.715 27.4645 238.48 27.3647 238.306 27.187C238.133 27.0093 238.036 26.7684 238.036 26.5171V24.4821C238.038 24.2316 238.136 23.992 238.309 23.8148C238.482 23.6376 238.716 23.5371 238.96 23.5348C239.205 23.5348 239.441 23.6346 239.614 23.8123C239.787 23.9899 239.885 24.2309 239.885 24.4821V26.5171C239.885 26.7684 239.787 27.0093 239.614 27.187C239.441 27.3647 239.205 27.4645 238.96 27.4645V27.4645Z" fill="#E6E6E6"/>
<path d="M334.413 27.4645C334.168 27.4645 333.932 27.3647 333.759 27.187C333.586 27.0093 333.488 26.7684 333.488 26.5171V24.4821C333.491 24.2316 333.589 23.992 333.762 23.8148C333.934 23.6376 334.168 23.5371 334.413 23.5348V23.5348C334.658 23.5348 334.893 23.6346 335.066 23.8123C335.24 23.9899 335.337 24.2309 335.337 24.4821V26.5171C335.337 26.7684 335.24 27.0093 335.066 27.187C334.893 27.3647 334.658 27.4645 334.413 27.4645V27.4645Z" fill="#E6E6E6"/>
<path opacity="0.5" d="M344.531 23.5348H242.358V74.603H344.531V23.5348Z" fill="#E0E0E0"/>
<path d="M249.985 27.0435C251.876 27.0435 253.409 25.4726 253.409 23.5349C253.409 21.5971 251.876 20.0262 249.985 20.0262C248.094 20.0262 246.561 21.5971 246.561 23.5349C246.561 25.4726 248.094 27.0435 249.985 27.0435Z" fill="#E6E6E6"/>
<path d="M54.7918 165.968H18.5402L21.7502 122.487H51.5818L54.7918 165.968Z" fill="#EBEBEB"/>
<path d="M46.8395 165.968H40.6078L39.281 122.487H45.0333L46.8395 165.968Z" fill="#F5F5F5"/>
<path d="M38.485 165.968H34.8555V286.902H38.485V165.968Z" fill="#F0F0F0"/>
<path d="M38.0398 183.783H35.3006C33.9675 183.783 32.8867 184.89 32.8867 186.257V195.388C32.8867 196.754 33.9675 197.861 35.3006 197.861H38.0398C39.373 197.861 40.4538 196.754 40.4538 195.388V186.257C40.4538 184.89 39.373 183.783 38.0398 183.783Z" fill="#F0F0F0"/>
<path d="M38.0398 206.344H35.3006C33.9675 206.344 32.8867 207.451 32.8867 208.817V217.948C32.8867 219.315 33.9675 220.422 35.3006 220.422H38.0398C39.373 220.422 40.4538 219.315 40.4538 217.948V208.817C40.4538 207.451 39.373 206.344 38.0398 206.344Z" fill="#F0F0F0"/>
<path d="M42.4055 286.902H30.9265C30.9265 286.237 31.1844 285.598 31.6436 285.128C32.1027 284.657 32.7254 284.393 33.3747 284.393H39.9573C40.6066 284.393 41.2293 284.657 41.6884 285.128C42.1475 285.598 42.4055 286.237 42.4055 286.902V286.902Z" fill="#F0F0F0"/>
<path d="M38.485 165.968H34.8555V168.24H38.485V165.968Z" fill="#E0E0E0"/>
<path d="M60.4413 26.9471H58.7122V129.89H60.4413V26.9471Z" fill="#E0E0E0"/>
<path d="M326.837 168.52H288.702V286.893H326.837V168.52Z" fill="#E6E6E6"/>
<path d="M308.219 286.902H326.837V270.56H288.702L308.219 286.902Z" fill="#FAFAFA"/>
<path d="M174.752 168.52H136.617V286.893H174.752V168.52Z" fill="#E6E6E6"/>
<path d="M326.829 168.52H158.505V281.27H326.829V168.52Z" fill="#FAFAFA"/>
<path d="M177.123 286.902H158.513V270.56H196.648L177.123 286.902Z" fill="#FAFAFA"/>
<path d="M312.396 210.536H172.954V238.754H312.396V210.536Z" fill="#F0F0F0"/>
<path d="M312.396 244.789H172.954V273.008H312.396V244.789Z" fill="#F0F0F0"/>
<path d="M279.184 213.554H206.158C204.746 213.554 203.392 212.979 202.393 211.956C201.395 210.933 200.834 209.545 200.834 208.098H284.508C284.509 208.815 284.372 209.525 284.105 210.187C283.838 210.85 283.446 211.452 282.951 211.958C282.456 212.465 281.869 212.867 281.222 213.141C280.576 213.415 279.883 213.555 279.184 213.554Z" fill="#FAFAFA"/>
<path d="M312.396 176.292H172.954V204.51H312.396V176.292Z" fill="#F0F0F0"/>
<path d="M279.184 179.31H206.158C204.745 179.307 203.391 178.73 202.393 177.706C201.395 176.681 200.834 175.293 200.834 173.845H284.508C284.509 174.562 284.372 175.272 284.105 175.935C283.838 176.598 283.446 177.201 282.951 177.708C282.457 178.216 281.87 178.619 281.223 178.893C280.577 179.168 279.884 179.31 279.184 179.31V179.31Z" fill="#FAFAFA"/>
<path d="M279.184 247.807H206.158C204.745 247.805 203.391 247.228 202.393 246.203C201.395 245.179 200.834 243.79 200.834 242.342H284.508C284.509 243.059 284.372 243.77 284.105 244.433C283.838 245.096 283.446 245.698 282.951 246.206C282.457 246.713 281.87 247.116 281.223 247.391C280.577 247.665 279.884 247.807 279.184 247.807V247.807Z" fill="#FAFAFA"/>
<path d="M42.6707 142.25H170.42C166.629 142.202 162.993 140.694 160.237 138.025C157.481 135.357 155.805 131.723 155.543 127.847L153.283 88.8308H25.5422L27.7935 127.847C28.0554 131.723 29.7311 135.357 32.4875 138.025C35.2438 140.694 38.8791 142.202 42.6707 142.25V142.25Z" fill="#646FD4"/>
<path opacity="0.6" d="M42.6707 142.25H170.42C166.629 142.202 162.993 140.694 160.237 138.025C157.481 135.357 155.805 131.723 155.543 127.847L153.283 88.8308H25.5422L27.7935 127.847C28.0554 131.723 29.7311 135.357 32.4875 138.025C35.2438 140.694 38.8791 142.202 42.6707 142.25V142.25Z" fill="white"/>
<path d="M179.888 62.8755H66.168C64.3551 62.8536 62.5575 63.2176 60.889 63.9446C59.2206 64.6715 57.7175 65.7455 56.4752 67.0986C55.2328 68.4517 54.2781 70.0544 53.6715 71.8051C53.0649 73.5559 52.8197 75.4167 52.9514 77.2697L55.896 127.855C56.0303 129.709 55.7869 131.571 55.1813 133.323C54.5757 135.075 53.6211 136.679 52.3782 138.032C51.1353 139.386 49.6312 140.46 47.9615 141.186C46.2918 141.912 44.493 142.274 42.6794 142.25H170.42C172.234 142.274 174.033 141.912 175.702 141.186C177.372 140.46 178.876 139.386 180.119 138.032C181.362 136.679 182.317 135.075 182.922 133.323C183.528 131.571 183.771 129.709 183.637 127.855L183.954 133.329L180.718 77.3047C180.579 75.4484 180.818 73.5827 181.422 71.8265C182.025 70.0703 182.979 68.4622 184.222 67.1047C185.466 65.7471 186.972 64.67 188.644 63.9418C190.316 63.2137 192.118 62.8505 193.935 62.8755H179.888Z" fill="#646FD4"/>
<path d="M193.935 62.8755H66.168C69.9595 62.9193 73.5958 64.4248 76.3527 67.0922C79.1097 69.7597 80.7851 73.3934 81.0452 77.2697L92.0448 267.341H219.786L208.812 77.3047C208.556 73.4237 206.883 69.7837 204.126 67.1097C201.369 64.4357 197.73 62.924 193.935 62.8755V62.8755Z" fill="#646FD4"/>
<path opacity="0.8" d="M193.928 63.3755L194.271 63.3843C197.814 63.515 201.195 64.9629 203.778 67.4683C206.445 70.0547 208.065 73.5783 208.312 77.3374L219.256 266.841H92.5166L81.5439 77.2407V77.2358C81.2755 73.2378 79.5474 69.4876 76.7002 66.7329C75.1677 65.2502 73.3712 64.1153 71.4277 63.3755H193.928Z" fill="white" stroke="black"/>
<path d="M124.085 116.979H100.408L98.9785 92.699H122.664L124.085 116.979ZM102.976 114.119H121.097L120.096 95.5497H101.94L102.976 114.119Z" fill="white"/>
<path d="M127.389 174.091H103.686L102.283 149.802H125.985L127.389 174.091ZM106.306 171.231H124.427L123.357 152.662H105.236L106.306 171.231Z" fill="white"/>
<path d="M130.685 231.202H106.982L105.544 206.914H129.247L130.685 231.202ZM109.61 228.343H127.732L126.653 209.773H108.531L109.61 228.343Z" fill="white"/>
<path d="M190.151 92.6901H135.658V95.5496H190.151V92.6901Z" fill="white"/>
<path d="M184.364 103.409H136.274V106.269H184.364V103.409Z" fill="white"/>
<path d="M191.384 114.119H136.891V116.979H191.384V114.119Z" fill="white"/>
<path d="M193.447 149.802H138.954V152.662H193.447V149.802Z" fill="white"/>
<path d="M171.559 160.521H139.57V163.38H171.559V160.521Z" fill="white"/>
<path d="M156.707 171.231H140.195V174.09H156.707V171.231Z" fill="white"/>
<path d="M194.688 171.231H167.441V174.09H194.688V171.231Z" fill="white"/>
<path d="M196.742 206.914H142.249V209.773H196.742V206.914Z" fill="white"/>
<path d="M197.367 217.633H142.874V220.492H197.367V217.633Z" fill="white"/>
<path d="M173.63 228.343H143.49V231.202H173.63V228.343Z" fill="white"/>
<path d="M113.787 111.26C113.195 111.26 112.625 111.028 112.195 110.61L106.4 104.979C106.179 104.764 106.001 104.507 105.876 104.222C105.752 103.936 105.684 103.629 105.675 103.316C105.658 102.685 105.887 102.074 106.31 101.615C106.734 101.157 107.317 100.89 107.933 100.872C108.549 100.855 109.146 101.089 109.593 101.523L113.719 105.514L123.006 95.4005C123.429 94.9411 124.012 94.6723 124.627 94.6534C125.243 94.6345 125.841 94.867 126.289 95.2997C126.738 95.7324 127 96.3299 127.018 96.9607C127.037 97.5916 126.81 98.2041 126.388 98.6636L115.508 110.514C115.299 110.744 115.048 110.928 114.768 111.056C114.489 111.184 114.187 111.253 113.881 111.26H113.787Z" fill="#646FD4"/>
<path d="M117.091 168.371C116.499 168.374 115.928 168.141 115.499 167.722L109.678 162.091C109.449 161.879 109.264 161.622 109.133 161.335C109.001 161.048 108.928 160.738 108.915 160.421C108.903 160.105 108.953 159.789 109.061 159.493C109.169 159.196 109.334 158.925 109.547 158.695C109.759 158.465 110.013 158.28 110.296 158.152C110.579 158.024 110.883 157.956 111.192 157.95C111.501 157.944 111.808 158.002 112.095 158.12C112.382 158.237 112.643 158.413 112.863 158.635L116.997 162.626L126.276 152.512C126.699 152.053 127.282 151.784 127.897 151.765C128.513 151.746 129.111 151.979 129.559 152.411C130.007 152.844 130.27 153.442 130.288 154.073C130.307 154.703 130.08 155.316 129.657 155.775L118.778 167.626C118.57 167.855 118.32 168.039 118.043 168.167C117.765 168.295 117.465 168.364 117.16 168.371H117.091Z" fill="#646FD4"/>
<path d="M120.387 225.492C119.793 225.491 119.223 225.256 118.795 224.834L112.974 219.203C112.745 218.991 112.559 218.734 112.428 218.447C112.297 218.16 112.223 217.85 112.211 217.533C112.199 217.217 112.248 216.901 112.356 216.605C112.465 216.308 112.63 216.037 112.842 215.807C113.054 215.577 113.309 215.392 113.592 215.264C113.874 215.136 114.179 215.068 114.488 215.062C114.797 215.056 115.104 215.114 115.391 215.232C115.677 215.349 115.938 215.524 116.158 215.747L120.293 219.738L129.58 209.624C130.015 209.241 130.573 209.037 131.146 209.051C131.719 209.065 132.267 209.295 132.684 209.699C133.101 210.102 133.358 210.649 133.404 211.235C133.451 211.82 133.284 212.403 132.936 212.87L122.056 224.72C121.847 224.949 121.595 225.132 121.316 225.26C121.037 225.388 120.736 225.458 120.43 225.466L120.387 225.492Z" fill="#646FD4"/>
<path d="M243.152 91.0531L226.527 95.2407L276.14 302.067L292.765 297.879L243.152 91.0531Z" fill="#646FD4"/>
<path opacity="0.2" d="M243.143 91.0514L238.081 92.3265L287.694 299.153L292.757 297.878L243.143 91.0514Z" fill="black"/>
<path d="M291.509 300.956L278.625 304.201C277.592 304.461 276.961 305.53 277.214 306.589L279.372 315.584C279.626 316.642 280.669 317.29 281.702 317.029L294.587 313.784C295.62 313.524 296.251 312.455 295.997 311.396L293.84 302.401C293.586 301.343 292.542 300.696 291.509 300.956Z" fill="#646FD4"/>
<path opacity="0.7" d="M291.509 300.956L278.625 304.201C277.592 304.461 276.961 305.53 277.214 306.589L279.372 315.584C279.626 316.642 280.669 317.29 281.702 317.029L294.587 313.784C295.62 313.524 296.251 312.455 295.997 311.396L293.84 302.401C293.586 301.343 292.542 300.696 291.509 300.956Z" fill="white"/>
<path d="M291.609 294.903L275.807 298.883C274.852 299.124 274.268 300.112 274.503 301.091L275.917 306.985C276.152 307.964 277.116 308.562 278.071 308.321L293.873 304.341C294.828 304.101 295.412 303.112 295.177 302.134L293.763 296.239C293.528 295.261 292.564 294.663 291.609 294.903Z" fill="#E0E0E0"/>
<path d="M243.155 91.0324L226.531 95.2252L228.483 80.9714L229.732 71.8314L234.98 79.3311L243.155 91.0324Z" fill="#E0E0E0"/>
<path d="M234.98 79.3311L228.483 80.9714L229.732 71.8314L234.98 79.3311Z" fill="#646FD4"/>
<path d="M286.092 77.5067C286.006 82.7697 285.013 92.6903 287.718 95.927C281.5 98.0223 275.926 101.748 271.548 106.734C267.842 100.523 272.678 97.1814 272.678 97.1814C278.011 95.4271 277.686 91.3132 276.564 87.5326L286.092 77.5067Z" fill="#FFB573"/>
<path d="M269.973 101.374C271.385 95.9971 267.405 95.2339 274.039 92.6024C279.226 90.4973 289.028 90.199 291.33 91.892C292.606 92.8393 290.851 96.1549 290.851 96.1549L269.973 101.374Z" fill="#263238"/>
<path d="M298.726 100.216C299.111 100.848 299.385 101.33 299.693 101.883C300.002 102.435 300.258 102.944 300.549 103.479C301.097 104.549 301.611 105.62 302.107 106.707C303.1 108.874 303.965 111.093 304.761 113.339C306.36 117.887 307.507 122.589 308.185 127.373L308.407 129.18C308.45 129.434 308.485 129.891 308.51 130.285C308.536 130.68 308.51 131.04 308.51 131.39C308.491 132.684 308.396 133.976 308.228 135.259C307.928 137.68 307.474 139.969 306.978 142.276C305.967 146.775 304.689 151.207 303.152 155.547C302.947 156.136 302.541 156.628 302.008 156.932C301.476 157.235 300.854 157.33 300.258 157.198C299.662 157.066 299.134 156.716 298.772 156.213C298.409 155.711 298.238 155.091 298.29 154.468C298.632 150.013 299.034 145.521 299.351 141.136C299.505 138.943 299.625 136.75 299.659 134.68C299.659 133.654 299.659 132.636 299.565 131.785L299.488 131.197L299.377 130.627L299.06 129.101C298.146 124.99 296.915 120.96 295.379 117.049C294.609 115.084 293.778 113.137 292.905 111.216C292.472 110.251 292.018 109.304 291.544 108.374L290.825 106.988L290.149 105.716L290.029 105.488C289.405 104.31 289.254 102.93 289.608 101.639C289.962 100.349 290.793 99.2514 291.924 98.5788C293.055 97.9062 294.397 97.712 295.666 98.0374C296.934 98.3628 298.029 99.1822 298.718 100.321L298.726 100.216Z" fill="#FFB573"/>
<path d="M296.432 157.319L297.142 156.109L299.146 152.653L302.818 154.784C303.58 158.293 301.251 161.398 301.251 161.398L300.216 162.275C299.863 162.59 299.406 162.755 298.939 162.737C298.471 162.719 298.028 162.519 297.699 162.179L296.903 161.424C296.402 160.884 296.085 160.192 296 159.452C295.916 158.712 296.067 157.964 296.432 157.319V157.319Z" fill="#FFB573"/>
<path d="M247.64 155.53L247.049 153.337C246.911 152.821 246.58 152.381 246.129 152.112C245.678 151.844 245.141 151.767 244.635 151.898L242.067 152.574L240.484 152.977C239.651 153.2 238.911 153.694 238.377 154.386C237.843 155.078 237.543 155.929 237.522 156.81V158.117C237.518 158.687 237.726 159.236 238.102 159.655C238.479 160.073 238.997 160.329 239.551 160.372L241.134 160.53C243.51 160.142 245.688 158.942 247.315 157.126C247.491 156.907 247.613 156.647 247.669 156.369C247.726 156.091 247.716 155.803 247.64 155.53Z" fill="#FFB573"/>
<path d="M294.446 96.3567C298.94 98.4005 303.057 103.269 306.43 112.277C305.352 115.988 294.215 122.066 294.215 122.066C294.215 122.066 280.322 91.8832 294.446 96.3567Z" fill="#646FD4"/>
<path d="M257.27 107.891C257.313 111.233 251.911 118.979 258.126 123.47C258.665 130.233 259.393 136.89 260.805 147.986H294.044C290.885 135.706 293.616 127.461 298.683 105.883C298.973 104.723 299.014 103.513 298.805 102.336C298.595 101.158 298.14 100.041 297.47 99.0606C296.801 98.0802 295.932 97.2596 294.924 96.6552C293.916 96.0507 292.792 95.6766 291.63 95.5584C290.303 95.4269 288.899 95.3128 287.47 95.2339C282.443 94.8649 277.397 94.8649 272.37 95.2339C270.735 95.383 269.049 95.5935 267.431 95.8216C264.603 96.2438 262.019 97.6968 260.153 99.9138C258.286 102.131 257.263 104.963 257.27 107.891V107.891Z" fill="#646FD4"/>
<path d="M268.278 104.637C268.355 107.146 268.278 109.549 268.278 112.005C268.278 114.461 268.124 116.891 267.97 119.347C267.705 124.326 267.133 129.283 266.258 134.189C266.155 134.811 265.993 135.46 265.847 136.092C265.702 136.724 265.573 137.355 265.376 138.022L265.102 138.995L264.957 139.487C264.902 139.707 264.833 139.924 264.751 140.136C264.393 141.08 263.903 141.967 263.296 142.767C262.461 143.877 261.549 144.924 260.566 145.899C259.667 146.82 258.751 147.653 257.826 148.53C254.186 151.744 250.318 154.676 246.253 157.302C245.743 157.63 245.134 157.76 244.539 157.668C243.943 157.576 243.399 157.267 243.006 156.799C242.613 156.33 242.397 155.733 242.398 155.116C242.399 154.498 242.615 153.901 243.009 153.433V153.433C246.065 149.863 249.215 146.32 252.151 142.811C252.87 141.934 253.572 141.057 254.24 140.18C254.867 139.4 255.439 138.577 255.952 137.715C256.157 137.39 256.286 136.995 256.174 137.215C256.063 137.434 256.174 137.101 256.174 137.004L256.251 136.618L256.414 135.855C256.534 135.364 256.602 134.811 256.688 134.276C256.774 133.741 256.876 133.206 256.928 132.645C257.51 128.215 257.784 123.549 257.946 118.882C258.109 114.216 258.212 109.461 258.237 104.848C258.23 104.171 258.353 103.5 258.598 102.873C258.844 102.245 259.208 101.674 259.67 101.19C260.602 100.214 261.874 99.6568 263.206 99.6417C264.539 99.6266 265.823 100.155 266.776 101.109C267.728 102.064 268.272 103.368 268.287 104.734L268.278 104.637Z" fill="#FFB573"/>
<path d="M264.615 96.6024C260.514 98.69 256.448 102.743 254.762 112.023C255.832 115.698 270.487 122.777 270.487 122.777C270.487 122.777 278.644 91.2342 264.615 96.6024Z" fill="#646FD4"/>
<path d="M265.513 74.1558C265.625 74.8137 265.368 75.4277 264.94 75.5067C264.512 75.5856 264.084 75.1295 263.973 74.4629C263.861 73.7962 264.127 73.191 264.546 73.112C264.965 73.0331 265.411 73.4892 265.513 74.1558Z" fill="#263238"/>
<path d="M264.76 73.1032L263.125 72.9629C263.125 72.9629 264.109 74.0418 264.76 73.1032Z" fill="#263238"/>
<path d="M265.359 74.8927C265.023 76.5281 264.473 78.1096 263.724 79.5943C264.1 79.7737 264.509 79.8668 264.923 79.8668C265.337 79.8668 265.746 79.7737 266.121 79.5943L265.359 74.8927Z" fill="#ED893E"/>
<path d="M263.818 69.6297C263.72 69.6289 263.626 69.5914 263.553 69.5244C263.517 69.4877 263.488 69.444 263.468 69.3958C263.449 69.3476 263.439 69.2959 263.439 69.2437C263.439 69.1915 263.449 69.1398 263.468 69.0916C263.488 69.0434 263.517 68.9997 263.553 68.963C263.971 68.4911 264.493 68.1274 265.074 67.9018C265.656 67.6761 266.282 67.5949 266.9 67.6648C266.949 67.6743 266.996 67.6936 267.038 67.7217C267.079 67.7499 267.115 67.7862 267.143 67.8286C267.171 67.8711 267.19 67.9188 267.2 67.969C267.21 68.0192 267.21 68.0708 267.2 68.121C267.179 68.226 267.119 68.3187 267.033 68.3792C266.946 68.4398 266.841 68.4636 266.737 68.4455C266.248 68.3999 265.754 68.4721 265.297 68.6564C264.839 68.8406 264.429 69.1319 264.101 69.5069C264.026 69.5844 263.925 69.6286 263.818 69.6297V69.6297Z" fill="#263238"/>
<path d="M286.699 67.621C287.555 75.8663 288.069 79.3398 284.79 84.287C279.851 91.7867 269.922 91.3043 266.729 83.559C263.853 76.5417 262.954 64.2615 270.11 59.4722C271.649 58.3964 273.438 57.7541 275.295 57.6095C277.153 57.465 279.016 57.8233 280.696 58.6486C282.376 59.474 283.815 60.7373 284.869 62.312C285.922 63.8867 286.554 65.7175 286.699 67.621V67.621Z" fill="#FFB573"/>
<path d="M272.062 73.6471C266.926 72.7174 265.684 66.6737 267.585 64.0423C258.931 64.437 253.101 54.5163 262.449 48.8586C271.796 43.201 280.048 51.9638 279.38 55.2707C290.894 54.2005 297.639 63.9107 291.364 71.1297C299.642 72.5068 312.037 82.0679 302.938 92.1113C315.238 93.9621 316.574 133.434 283.087 126.417C247.786 119.014 278.456 87.5326 278.456 87.5326C278.456 87.5326 269.511 84.9537 272.062 73.6471Z" fill="#263238"/>
<path d="M304.855 94.6812L304.128 94.2251C307.235 89.0499 307.748 84.3395 305.651 80.1906C302.955 74.9276 296.415 71.8225 291.339 71.5243L291.39 70.6471C296.697 70.9541 303.571 74.1557 306.413 79.7783C308.622 84.1641 308.082 89.3043 304.855 94.6812Z" fill="#263238"/>
<path d="M295.122 72.0155C298.076 71.5155 296.68 66.5771 294.506 65.2702C292.332 63.9632 281.914 66.0859 283.061 69.4893C284.208 72.8927 291.159 72.6909 295.122 72.0155Z" fill="white"/>
<path d="M295.653 70.7699C298.598 70.191 297.416 66.1912 295.208 64.9368C292.999 63.6825 283.9 64.6123 285.141 67.9718C286.383 71.3313 291.715 71.5681 295.653 70.7699Z" fill="#646FD4"/>
<path d="M264.803 65.0421C262.831 65.0149 260.924 64.3142 259.384 63.0509C256.928 61.0949 255.575 58.1652 255.96 55.5863C256.191 53.946 257.193 51.6917 260.685 50.262L261.002 51.0777C258.537 52.0865 257.09 53.7092 256.808 55.7091C256.5 57.9897 257.724 60.5949 259.941 62.358C260.969 63.2368 262.208 63.8187 263.529 64.0438C264.85 64.2689 266.206 64.129 267.456 63.6386L267.782 64.4544C266.837 64.8507 265.824 65.0504 264.803 65.0421V65.0421Z" fill="#263238"/>
<path d="M274.09 74.6119C273.705 76.7697 273.585 77.6907 272.49 78.6995C272.178 79.0564 271.769 79.3086 271.315 79.4231C270.862 79.5377 270.385 79.5092 269.947 79.3414C269.51 79.1736 269.132 78.8743 268.863 78.4828C268.594 78.0912 268.447 77.6256 268.441 77.1469C268.27 75.1645 268.929 71.9717 270.889 71.305C272.849 70.6384 274.476 72.4629 274.09 74.6119Z" fill="#FFB573"/>
<path d="M269.365 81.48L268.672 80.2081C268.643 80.1561 268.627 80.0971 268.627 80.037C268.627 79.977 268.643 79.918 268.672 79.866L269.365 78.6029C269.395 78.548 269.438 78.5023 269.491 78.4705C269.544 78.4387 269.604 78.4219 269.665 78.4219C269.726 78.4219 269.786 78.4387 269.839 78.4705C269.892 78.5023 269.935 78.548 269.965 78.6029L270.658 79.866C270.687 79.918 270.703 79.977 270.703 80.037C270.703 80.0971 270.687 80.1561 270.658 80.2081L269.965 81.48C269.935 81.5348 269.892 81.5805 269.839 81.6123C269.786 81.6442 269.726 81.661 269.665 81.661C269.604 81.661 269.544 81.6442 269.491 81.6123C269.438 81.5805 269.395 81.5348 269.365 81.48Z" fill="white"/>
<path d="M260.822 147.96C260.822 147.96 259.65 191.941 258.083 220.869C256.423 247.421 254.291 309.515 254.291 309.515L260.84 309.866C260.84 309.866 275.323 257.614 274.715 226.045C291.715 181.888 285.604 149.284 285.604 149.284L260.822 147.96Z" fill="#FFB573"/>
<path d="M254.779 306.726C254.633 306.618 254.458 306.56 254.278 306.56C254.099 306.56 253.923 306.618 253.778 306.726C250.635 309.116 246.829 310.413 242.915 310.427C238.566 310.62 239.636 313.059 245.86 313.875C253.178 314.804 254.745 316.348 257.107 316.953C259.47 317.559 261.345 315.717 261.302 310.629C261.298 310.455 261.244 310.287 261.146 310.145C261.049 310.003 260.912 309.893 260.754 309.831C258.65 309.04 256.645 307.998 254.779 306.726V306.726Z" fill="#263238"/>
<path d="M269.511 147.96C269.511 147.96 281.495 200.011 288.437 224.273C295.739 249.71 301.525 307.761 301.482 309.682H307.149C307.149 309.682 314.468 262.631 305.437 224.246C304.581 161.968 294.104 148.004 294.104 148.004L269.511 147.96Z" fill="#FFB573"/>
<path d="M301.337 307.603C301.189 307.541 301.026 307.529 300.872 307.571C300.717 307.612 300.58 307.703 300.481 307.831C299.017 309.778 297.956 311.936 293.633 313.831C290.055 315.392 292.032 317.532 297.63 316.752C304.213 315.822 304.307 316.918 306.524 316.918C308.741 316.918 309.786 314.655 308.168 309.734C308.116 309.572 308.022 309.426 307.895 309.315C307.768 309.203 307.614 309.13 307.449 309.103C305.36 308.858 303.308 308.354 301.337 307.603V307.603Z" fill="#263238"/>
<path d="M260.822 147.96C260.822 147.96 255.173 186.502 255.969 239.184C273.841 239.08 291.601 236.272 308.673 230.851C308.673 230.851 308.93 162.591 294.061 147.986C285.475 145.618 261.019 147.188 260.822 147.96Z" fill="#263238"/>
<path opacity="0.2" d="M261.482 231.702C261.426 231.702 261.373 231.681 261.333 231.641C261.293 231.602 261.27 231.548 261.268 231.492C259.667 197.853 263.553 150.363 263.587 149.916C263.588 149.887 263.595 149.858 263.608 149.832C263.62 149.805 263.638 149.782 263.659 149.763C263.681 149.744 263.707 149.73 263.734 149.721C263.761 149.713 263.79 149.711 263.818 149.714C263.847 149.717 263.874 149.724 263.899 149.738C263.924 149.751 263.947 149.769 263.965 149.791C263.983 149.813 263.997 149.838 264.006 149.866C264.014 149.893 264.018 149.922 264.015 149.951C263.973 150.434 260.095 197.888 261.696 231.527C261.698 231.556 261.694 231.585 261.685 231.613C261.676 231.64 261.661 231.666 261.642 231.687C261.622 231.709 261.599 231.726 261.573 231.737C261.547 231.749 261.519 231.755 261.49 231.755L261.482 231.702Z" fill="white"/>
<path opacity="0.2" d="M283.849 198.063L288.719 171.626L290.68 177.95L283.849 198.063Z" fill="black"/>
<path d="M319.089 315.632C319.089 315.755 259.648 315.86 186.349 315.86C113.049 315.86 53.583 315.755 53.583 315.632C53.583 315.509 113.015 315.404 186.349 315.404C259.682 315.404 319.089 315.518 319.089 315.632Z" fill="#263238"/>
</g>
<defs>
<clipPath id="clip0_156_327">
<rect width="428" height="335" fill="white" transform="translate(-22)"/>
</clipPath>
</defs>
</svg>
