<svg width="448" height="401" viewBox="0 0 448 401" fill="none" xmlns="http://www.w3.org/2000/svg">
<path d="M321.996 86.6331C289.184 56.8502 244.769 86.6331 201.618 149.307C158.467 211.982 137.948 185.605 101.266 213.229C64.5837 240.853 54.7725 354.009 184.012 343.008C313.251 332.007 407.77 164.385 321.996 86.6331Z" fill="#F0F0F0"/>
<path d="M361.841 386.091C361.841 386.221 299.622 386.333 222.898 386.333C146.173 386.333 83.9283 386.221 83.9283 386.091C83.9283 385.961 146.138 385.849 222.898 385.849C299.658 385.849 361.841 385.97 361.841 386.091Z" fill="#263238"/>
<path d="M332.9 19.9006L328.286 21.6132L326.305 15.3494C322.668 3.79925 311.073 -2.33417 300.42 1.56553C289.766 5.46523 284.095 18.1323 287.733 29.6825L289.713 35.9462L285.08 37.668C283.314 38.3797 281.88 39.7711 281.075 41.5529C280.271 43.3348 280.159 45.3701 280.762 47.2358L293.601 87.9918C293.868 88.9154 294.31 89.7739 294.903 90.5163C295.495 91.2587 296.225 91.8699 297.049 92.3136C297.873 92.7572 298.775 93.0243 299.7 93.0989C300.625 93.1734 301.556 93.0541 302.436 92.7478L350.255 74.9804C352.045 74.27 353.5 72.8663 354.314 71.0645C355.128 69.2628 355.237 67.2034 354.619 65.3196L341.77 24.5635C341.497 23.6425 341.048 22.7882 340.449 22.0515C339.851 21.3148 339.116 20.7109 338.288 20.2757C337.46 19.8405 336.557 19.583 335.631 19.5186C334.705 19.4541 333.776 19.5841 332.9 19.9006V19.9006ZM296.451 26.4156C295.47 23.4124 295.646 20.1314 296.942 17.2601C298.238 14.3887 300.554 12.1497 303.404 11.0123C304.811 10.5122 306.301 10.3116 307.784 10.4226C309.268 10.5336 310.714 10.9538 312.038 11.6583C313.362 12.3627 314.536 13.3369 315.489 14.5228C316.442 15.7086 317.156 17.0818 317.587 18.5604L319.558 24.8241L298.422 32.6794L296.451 26.4156ZM323.331 62.5833L326.61 72.9887C326.67 73.1973 326.651 73.422 326.556 73.6162C326.461 73.8103 326.297 73.9589 326.099 74.0311L321.503 75.7343C321.32 75.787 321.124 75.7641 320.957 75.6704C320.79 75.5767 320.665 75.4195 320.607 75.2317L317.301 64.8728C315.477 64.7697 313.728 64.0904 312.287 62.9261C310.846 61.7617 309.782 60.1679 309.237 58.3578C308.457 55.9649 308.599 53.3516 309.633 51.0651C310.667 48.7785 312.512 46.9961 314.783 46.091C315.904 45.6931 317.09 45.5338 318.272 45.6224C319.454 45.7111 320.606 46.0459 321.66 46.607C322.715 47.168 323.649 47.9438 324.409 48.8881C325.168 49.8324 325.737 50.9259 326.081 52.1034C326.658 53.9421 326.706 55.9155 326.219 57.7819C325.732 59.6483 324.731 61.3266 323.34 62.6112L323.331 62.5833Z" fill="#646FD4"/>
<path d="M328.079 21.5015C328.079 21.6318 319.523 24.9731 308.878 28.9472C298.234 32.9214 289.551 36.1137 289.507 36.0206C289.462 35.9276 298.063 32.5584 308.717 28.5749C319.37 24.5915 328.035 21.3805 328.079 21.5015Z" fill="#263238"/>
<path d="M338.24 23.214C338.28 23.2948 338.313 23.3788 338.339 23.4653C338.41 23.6514 338.491 23.8934 338.598 24.1912C338.831 24.8707 339.154 25.8107 339.557 26.9834L342.998 37.3888C344.431 41.8004 346.143 47.031 348.042 52.8387C348.938 55.7518 349.996 58.786 350.981 61.9783C351.509 63.6234 351.737 65.3562 351.653 67.0879C351.577 67.9886 351.331 68.8647 350.927 69.666C350.497 70.4646 349.922 71.1694 349.234 71.7415C347.85 72.7911 346.313 73.6049 344.682 74.1521L340.068 75.8739L331.332 79.1221L316.539 84.5947L306.549 88.2431L303.861 89.1738L303.144 89.4158C303.067 89.4512 302.985 89.4732 302.902 89.481C302.902 89.481 302.974 89.481 303.126 89.3693L303.825 89.0807L306.513 88.029L316.449 84.2317L331.215 78.6474L339.934 75.3713L344.548 73.6402C346.132 73.1152 347.624 72.3262 348.965 71.3041C349.605 70.7732 350.141 70.119 350.542 69.3775C350.922 68.6364 351.15 67.8223 351.214 66.9856C351.297 65.317 351.078 63.6471 350.569 62.0621C349.601 58.8976 348.58 55.8356 347.657 52.9224C345.793 47.1055 344.073 41.8562 342.711 37.4446C341.349 33.033 340.202 29.487 339.414 26.9927C339.038 25.7735 338.751 24.8241 338.518 24.1354L338.303 23.3908C338.276 23.3344 338.255 23.2751 338.24 23.214V23.214Z" fill="#263238"/>
<path d="M313.009 10.3794C313.009 10.3794 312.534 10.1374 311.656 9.76516C310.404 9.26562 309.08 8.98873 307.74 8.94613C305.754 8.87538 303.777 9.26318 301.952 10.0816C299.733 11.1007 297.836 12.7491 296.477 14.8376C295.11 16.9201 294.377 19.3811 294.372 21.9017C294.391 23.9676 294.692 26.0203 295.268 27.9979C295.734 29.6918 296.218 31.0413 296.54 31.9814C296.73 32.4588 296.886 32.9504 297.006 33.4519C296.752 33.0055 296.539 32.5349 296.37 32.0465C296.003 31.1158 295.474 29.7942 294.954 28.091C294.316 26.0926 293.969 24.0065 293.924 21.9017C293.9 19.2858 294.651 16.7256 296.074 14.5677C297.48 12.4029 299.455 10.7035 301.764 9.67209C303.646 8.84918 305.684 8.48618 307.722 8.61107C309.092 8.68356 310.437 9.01472 311.692 9.58832C312.027 9.74911 312.351 9.93578 312.659 10.1468C312.787 10.2049 312.905 10.2834 313.009 10.3794V10.3794Z" fill="#263238"/>
<path d="M313.421 46.7983C313.564 46.7083 313.714 46.6305 313.869 46.5656C314.317 46.3554 314.782 46.1842 315.258 46.0537C316.013 45.8222 316.792 45.6847 317.578 45.6442C318.648 45.5845 319.718 45.7524 320.723 46.1375C323.017 46.9752 325.123 49.4043 326.162 52.6525C326.66 54.3957 326.66 56.2517 326.162 57.9948C325.609 59.8868 324.619 61.6092 323.277 63.0114L323.331 62.7601C324.522 66.1572 325.822 69.8428 327.166 73.6867L327.246 73.9194L327.022 74.0031L324.97 74.7105L320.49 76.2648L320.266 76.3392L320.195 76.1066C318.967 72.2534 317.623 68.6608 316.611 65.1334L316.808 65.2916C315.056 65.1405 313.386 64.4576 312.005 63.3278C310.756 62.3284 309.732 61.0579 309.004 59.605C308.347 58.3165 308.02 56.8743 308.054 55.4167C308.095 53.9271 308.453 52.4654 309.102 51.1363C309.751 49.8072 310.675 48.6437 311.808 47.729C312.274 47.3359 312.797 47.0218 313.358 46.7983C312.852 47.1102 312.362 47.4488 311.889 47.8128C310.644 48.9063 309.691 50.3131 309.12 51.8986C308.63 53.0943 308.401 54.3878 308.449 55.6864C308.497 56.985 308.821 58.2565 309.398 59.4095C310.114 60.8073 311.113 62.0267 312.328 62.9835C313.645 64.0573 315.237 64.7047 316.906 64.8449H317.059L317.103 64.9845C318.089 68.4468 319.442 72.0673 320.687 75.939L320.392 75.7901L324.872 74.2358L326.915 73.5192L326.771 73.8356C325.436 69.9918 324.146 66.2968 322.963 62.8997V62.7601L323.071 62.6484C324.373 61.3043 325.345 59.6537 325.902 57.8366C326.377 56.1692 326.377 54.3944 325.902 52.727C324.926 49.5998 322.91 47.2264 320.723 46.3888C319.756 46.0012 318.722 45.8207 317.686 45.8583C316.912 45.8767 316.142 45.986 315.392 46.184C314.057 46.5284 313.43 46.8449 313.421 46.7983Z" fill="#263238"/>
<path d="M285.725 315.533L196.224 315.105C191.055 315.076 186.109 312.917 182.472 309.102C178.835 305.287 176.804 300.129 176.826 294.76L177.775 61.6992C177.786 59.0393 178.301 56.4076 179.291 53.9546C180.282 51.5016 181.728 49.2753 183.547 47.4031C185.366 45.5309 187.522 44.0494 189.893 43.0434C192.263 42.0373 194.801 41.5265 197.362 41.5399L286.854 41.9681C292.023 41.9952 296.97 44.152 300.609 47.965C304.248 51.778 306.281 56.9353 306.262 62.3042L305.312 295.356C305.301 298.016 304.786 300.649 303.796 303.103C302.806 305.557 301.361 307.785 299.542 309.658C297.723 311.532 295.567 313.015 293.196 314.023C290.826 315.031 288.287 315.544 285.725 315.533V315.533Z" fill="#455A64"/>
<path d="M286.72 49.9815H269.373C268.807 49.9924 268.249 50.119 267.73 50.3541C267.211 50.5892 266.742 50.9282 266.349 51.3517C265.957 51.7752 265.648 52.2749 265.441 52.8223C265.235 53.3697 265.134 53.9541 265.144 54.542V57.8088C265.155 58.3963 265.054 58.9802 264.847 59.527C264.64 60.0739 264.332 60.573 263.939 60.9958C263.546 61.4185 263.077 61.7566 262.558 61.9907C262.039 62.2248 261.481 62.3503 260.915 62.36L227.1 62.2018C225.956 62.1701 224.871 61.6681 224.083 60.8061C223.295 59.944 222.869 58.7924 222.898 57.6041V54.3372C222.927 53.1505 222.502 52.0002 221.716 51.1384C220.93 50.2766 219.847 49.7736 218.705 49.7395H212.603L197.416 49.665C193.803 49.6427 190.33 51.1081 187.755 53.7404C185.181 56.3727 183.715 59.9574 183.68 63.7095L182.784 291.195C182.776 293.057 183.12 294.902 183.799 296.625C184.477 298.348 185.475 299.915 186.736 301.237C187.998 302.56 189.497 303.611 191.15 304.331C192.802 305.051 194.575 305.427 196.367 305.435L285.681 305.863C287.474 305.872 289.251 305.513 290.911 304.809C292.571 304.104 294.081 303.066 295.355 301.755C296.628 300.444 297.641 298.885 298.335 297.167C299.029 295.45 299.39 293.607 299.398 291.744L300.294 64.2587C300.316 60.4959 298.898 56.8783 296.353 54.2011C293.807 51.5238 290.342 50.0061 286.72 49.9815V49.9815Z" fill="white"/>
<path d="M274.705 275.513L208.293 275.215C207.603 275.215 207.048 274.433 207.057 273.484L207.128 255.437C207.128 254.506 207.693 253.706 208.383 253.706L274.794 254.022C275.177 254.091 275.519 254.31 275.749 254.635C275.979 254.959 276.08 255.363 276.031 255.763L275.968 273.791C275.968 274.749 275.395 275.522 274.705 275.513Z" fill="#646FD4"/>
<path d="M230.271 262.633C230.236 262.34 230.096 262.113 229.849 261.951C229.603 261.789 229.301 261.709 228.943 261.709C228.681 261.709 228.452 261.751 228.255 261.836C228.061 261.92 227.909 262.037 227.799 262.185C227.691 262.333 227.637 262.502 227.637 262.69C227.637 262.848 227.675 262.984 227.75 263.098C227.827 263.209 227.925 263.303 228.045 263.378C228.164 263.451 228.289 263.511 228.42 263.56C228.551 263.606 228.671 263.643 228.781 263.672L229.381 263.834C229.535 263.874 229.707 263.93 229.895 264.001C230.086 264.073 230.268 264.17 230.441 264.293C230.616 264.414 230.761 264.57 230.874 264.761C230.988 264.951 231.045 265.185 231.045 265.462C231.045 265.782 230.961 266.071 230.793 266.329C230.628 266.587 230.385 266.792 230.066 266.944C229.748 267.096 229.362 267.172 228.908 267.172C228.484 267.172 228.118 267.103 227.808 266.967C227.5 266.83 227.257 266.64 227.08 266.395C226.905 266.151 226.806 265.867 226.783 265.543H227.522C227.541 265.767 227.616 265.951 227.747 266.098C227.88 266.242 228.047 266.35 228.25 266.421C228.454 266.49 228.673 266.525 228.908 266.525C229.181 266.525 229.427 266.481 229.644 266.392C229.862 266.302 230.034 266.177 230.161 266.017C230.288 265.855 230.352 265.666 230.352 265.451C230.352 265.255 230.297 265.095 230.187 264.972C230.077 264.848 229.933 264.748 229.754 264.671C229.575 264.594 229.381 264.527 229.174 264.469L228.446 264.261C227.984 264.128 227.618 263.939 227.349 263.692C227.079 263.446 226.944 263.124 226.944 262.725C226.944 262.394 227.034 262.105 227.213 261.859C227.394 261.61 227.636 261.418 227.941 261.281C228.247 261.143 228.588 261.073 228.966 261.073C229.347 261.073 229.686 261.142 229.982 261.278C230.279 261.413 230.513 261.598 230.687 261.833C230.862 262.068 230.954 262.334 230.964 262.633H230.271ZM232.938 261.154V267.068H232.222V261.154H232.938ZM239.063 261.154V267.068H238.37L235.148 262.425H235.09V267.068H234.374V261.154H235.067L238.301 265.809H238.359V261.154H239.063ZM244.539 263.002C244.475 262.808 244.392 262.634 244.288 262.48C244.186 262.324 244.063 262.191 243.921 262.081C243.78 261.971 243.621 261.888 243.442 261.83C243.263 261.772 243.066 261.743 242.853 261.743C242.502 261.743 242.184 261.834 241.897 262.015C241.61 262.196 241.382 262.462 241.212 262.815C241.043 263.167 240.958 263.599 240.958 264.111C240.958 264.623 241.044 265.055 241.215 265.408C241.387 265.76 241.619 266.026 241.911 266.207C242.204 266.388 242.533 266.479 242.899 266.479C243.238 266.479 243.536 266.407 243.794 266.262C244.054 266.116 244.256 265.91 244.4 265.644C244.547 265.377 244.62 265.062 244.62 264.7L244.839 264.746H243.06V264.111H245.313V264.746C245.313 265.233 245.209 265.657 245.001 266.017C244.795 266.377 244.51 266.656 244.146 266.854C243.784 267.051 243.368 267.149 242.899 267.149C242.375 267.149 241.915 267.026 241.518 266.779C241.124 266.533 240.816 266.182 240.594 265.728C240.375 265.274 240.265 264.735 240.265 264.111C240.265 263.643 240.328 263.223 240.453 262.849C240.58 262.474 240.759 262.154 240.99 261.891C241.221 261.627 241.494 261.425 241.81 261.284C242.126 261.144 242.473 261.073 242.853 261.073C243.164 261.073 243.455 261.121 243.725 261.215C243.996 261.307 244.238 261.439 244.449 261.61C244.663 261.78 244.841 261.983 244.984 262.22C245.126 262.455 245.224 262.715 245.278 263.002H244.539ZM230.918 271.154H231.634V275.07C231.634 275.474 231.538 275.835 231.348 276.153C231.159 276.468 230.893 276.718 230.548 276.9C230.203 277.081 229.799 277.172 229.335 277.172C228.871 277.172 228.467 277.081 228.122 276.9C227.778 276.718 227.51 276.468 227.32 276.153C227.131 275.835 227.037 275.474 227.037 275.07V271.154H227.753V275.012C227.753 275.301 227.816 275.558 227.943 275.783C228.071 276.006 228.251 276.182 228.486 276.311C228.723 276.438 229.006 276.502 229.335 276.502C229.664 276.502 229.947 276.438 230.184 276.311C230.421 276.182 230.602 276.006 230.727 275.783C230.854 275.558 230.918 275.301 230.918 275.012V271.154ZM233.064 277.068V271.154H235.062C235.526 271.154 235.905 271.238 236.2 271.405C236.496 271.571 236.716 271.795 236.858 272.078C237 272.361 237.072 272.677 237.072 273.025C237.072 273.374 237 273.69 236.858 273.975C236.717 274.26 236.5 274.487 236.205 274.657C235.911 274.824 235.534 274.908 235.074 274.908H233.641V274.273H235.05C235.368 274.273 235.623 274.218 235.816 274.108C236.008 273.998 236.148 273.85 236.234 273.663C236.323 273.475 236.367 273.262 236.367 273.025C236.367 272.789 236.323 272.577 236.234 272.39C236.148 272.203 236.007 272.057 235.813 271.951C235.618 271.843 235.36 271.789 235.039 271.789H233.78V277.068H233.064Z" fill="#E8E8E3"/>
<path d="M221.54 116.854L198.495 116.745L198.476 121.138L221.52 121.247L221.54 116.854Z" fill="#646FD4"/>
<path opacity="0.1" d="M221.54 116.854L198.495 116.745L198.476 121.138L221.52 121.247L221.54 116.854Z" fill="black"/>
<path d="M289.094 143.826C289.275 143.807 289.453 143.763 289.623 143.695C289.871 143.595 290.087 143.423 290.245 143.201C290.404 142.979 290.499 142.715 290.519 142.439C290.519 140.959 290.519 138.8 290.519 136.026C290.519 134.639 290.519 133.085 290.519 131.373C290.519 130.954 290.519 130.516 290.519 130.079C290.577 129.654 290.488 129.222 290.268 128.86C290.145 128.686 289.984 128.544 289.799 128.446C289.614 128.347 289.41 128.294 289.202 128.292H287.804H274.857L199.916 128.003C199.724 128 199.534 128.045 199.362 128.134C199.191 128.223 199.042 128.354 198.93 128.515C198.714 128.879 198.631 129.312 198.697 129.735C198.697 130.665 198.697 131.596 198.697 132.527C198.697 134.388 198.697 136.25 198.697 138.111C198.697 139.042 198.697 139.972 198.697 140.903C198.66 141.337 198.66 141.773 198.697 142.206C198.744 142.392 198.832 142.564 198.953 142.709C199.074 142.855 199.225 142.969 199.396 143.044C199.572 143.117 199.761 143.152 199.951 143.146H204.512L224.412 143.258L258.102 143.472L280.815 143.658L286.989 143.733H288.593C288.96 143.733 289.139 143.733 289.139 143.733H288.593H286.989H280.815H258.102L224.412 143.621L204.512 143.537H199.951C199.7 143.548 199.45 143.503 199.217 143.407C198.981 143.302 198.771 143.143 198.603 142.941C198.435 142.74 198.314 142.501 198.249 142.243C198.197 141.999 198.179 141.748 198.195 141.499V140.81C198.195 139.879 198.195 138.949 198.195 138.018C198.195 136.157 198.195 134.295 198.195 132.434C198.195 131.503 198.195 130.572 198.195 129.641C198.178 129.394 198.178 129.145 198.195 128.897C198.229 128.623 198.331 128.363 198.491 128.143C198.645 127.918 198.85 127.736 199.087 127.611C199.324 127.486 199.587 127.423 199.853 127.426L274.794 127.855L287.741 127.948H289.139C289.385 127.948 289.628 128.01 289.846 128.128C290.065 128.246 290.252 128.417 290.394 128.627C290.646 129.032 290.748 129.518 290.68 129.995C290.68 130.433 290.68 130.87 290.68 131.289C290.68 132.983 290.68 134.537 290.68 135.942C290.68 138.735 290.618 140.875 290.6 142.364C290.578 142.651 290.478 142.925 290.311 143.154C290.144 143.383 289.918 143.558 289.659 143.658C289.489 143.767 289.294 143.825 289.094 143.826V143.826Z" fill="#E0E0E0"/>
<path d="M247.565 132.676H205.417V136.78H247.565V132.676Z" fill="#646FD4"/>
<path opacity="0.2" d="M247.565 132.676H205.417V136.78H247.565V132.676Z" fill="white"/>
<path d="M221.383 156.929L198.338 156.821L198.318 161.213L221.363 161.322L221.383 156.929Z" fill="#646FD4"/>
<path opacity="0.1" d="M221.383 156.929L198.338 156.821L198.318 161.213L221.363 161.322L221.383 156.929Z" fill="black"/>
<path d="M288.512 183.902C288.693 183.879 288.872 183.845 289.05 183.8C289.3 183.717 289.53 183.58 289.725 183.397C289.92 183.214 290.074 182.989 290.179 182.739C290.32 182.363 290.375 181.959 290.34 181.557C290.34 181.11 290.34 180.626 290.34 180.086C290.34 179.007 290.34 177.778 290.34 176.363V170.453C290.383 170.026 290.291 169.595 290.08 169.225C289.859 168.846 289.511 168.564 289.103 168.434C288.657 168.351 288.203 168.326 287.75 168.359H274.857L200.175 168.071C199.774 168.072 199.386 168.224 199.084 168.5C198.783 168.776 198.588 169.156 198.536 169.569C198.536 170.453 198.536 171.431 198.536 172.361C198.536 174.223 198.536 176.084 198.536 177.946C198.536 178.876 198.536 179.807 198.536 180.738C198.502 181.173 198.52 181.61 198.589 182.041C198.701 182.418 198.932 182.746 199.244 182.972C199.574 183.19 199.963 183.294 200.355 183.269H201.6H204.189L224.018 183.372L257.591 183.586L280.224 183.772L286.38 183.846H287.983H288.521H287.983H286.38H280.224H257.591L224 183.809L204.172 183.735H200.274C199.789 183.765 199.308 183.631 198.903 183.353C198.495 183.06 198.198 182.629 198.061 182.134C197.98 181.661 197.956 181.18 197.989 180.701C197.989 179.77 197.989 178.839 197.989 177.908C197.989 176.047 197.989 174.186 197.989 172.324C197.989 171.393 197.989 170.463 197.989 169.532C198.054 169 198.304 168.511 198.692 168.156C199.08 167.801 199.578 167.606 200.095 167.605L274.776 168.034L287.67 168.136C288.15 168.105 288.632 168.14 289.103 168.238C289.569 168.396 289.962 168.728 290.205 169.169C290.437 169.579 290.538 170.055 290.492 170.528C290.492 170.965 290.492 171.393 290.492 171.822C290.492 173.506 290.492 175.051 290.492 176.475C290.492 177.899 290.492 179.1 290.492 180.198C290.492 180.729 290.492 181.222 290.492 181.678C290.525 182.094 290.46 182.512 290.304 182.897C290.188 183.154 290.019 183.382 289.811 183.565C289.602 183.748 289.358 183.882 289.094 183.958C288.899 183.975 288.702 183.956 288.512 183.902V183.902Z" fill="#E0E0E0"/>
<path d="M221.209 198.745L198.164 198.636L198.145 203.029L221.19 203.138L221.209 198.745Z" fill="#646FD4"/>
<path opacity="0.1" d="M221.209 198.745L198.164 198.636L198.145 203.029L221.19 203.138L221.209 198.745Z" fill="black"/>
<path d="M288.333 225.701C288.514 225.679 288.694 225.644 288.87 225.598C289.12 225.516 289.349 225.38 289.544 225.199C289.738 225.017 289.894 224.795 289.999 224.547C290.14 224.171 290.195 223.766 290.161 223.365C290.161 222.909 290.161 222.434 290.161 221.885C290.161 220.815 290.161 219.577 290.161 218.162V212.252C290.203 211.824 290.112 211.393 289.901 211.023C289.675 210.651 289.329 210.374 288.924 210.242C288.478 210.156 288.024 210.127 287.571 210.158H274.678L199.996 209.869C199.595 209.87 199.207 210.023 198.905 210.298C198.604 210.574 198.409 210.954 198.357 211.368C198.357 212.298 198.357 213.229 198.357 214.16C198.357 216.021 198.357 217.883 198.357 219.744C198.357 220.675 198.357 221.606 198.357 222.536C198.323 222.968 198.341 223.403 198.41 223.83C198.518 224.21 198.749 224.539 199.064 224.761C199.393 224.984 199.784 225.088 200.175 225.059H204.073L223.901 225.17L257.475 225.384L280.108 225.57L286.263 225.645H287.867C288.225 225.645 288.405 225.645 288.405 225.645C288.405 225.645 288.225 225.645 287.867 225.645H286.263H280.108H257.475L223.901 225.543L204.073 225.459H200.175C199.69 225.493 199.208 225.359 198.805 225.077C198.397 224.784 198.099 224.353 197.962 223.858C197.882 223.385 197.858 222.904 197.891 222.425C197.891 221.494 197.891 220.563 197.891 219.633C197.891 217.771 197.891 215.91 197.891 214.048C197.891 213.118 197.891 212.187 197.891 211.21C197.954 210.678 198.202 210.189 198.588 209.834C198.974 209.48 199.472 209.283 199.987 209.283L274.669 209.711L287.562 209.813C288.042 209.783 288.524 209.817 288.996 209.916C289.461 210.074 289.854 210.405 290.098 210.847C290.33 211.256 290.43 211.732 290.385 212.205C290.385 212.643 290.385 213.08 290.385 213.499C290.385 215.184 290.385 216.729 290.385 218.153C290.385 219.577 290.385 220.777 290.385 221.876C290.385 222.406 290.385 222.899 290.385 223.355C290.419 223.772 290.354 224.19 290.197 224.575C290.08 224.831 289.912 225.059 289.703 225.242C289.494 225.425 289.25 225.56 288.987 225.636C288.777 225.71 288.553 225.733 288.333 225.701V225.701Z" fill="#E0E0E0"/>
<path d="M246.665 173.913L204.518 173.714L204.5 177.819L246.647 178.017L246.665 173.913Z" fill="#646FD4"/>
<path opacity="0.2" d="M246.665 173.913L204.518 173.714L204.5 177.819L246.647 178.017L246.665 173.913Z" fill="white"/>
<path d="M208.329 218.106C208.302 218.48 208.171 218.838 207.95 219.136C207.73 219.433 207.43 219.657 207.088 219.779C206.746 219.901 206.378 219.916 206.028 219.822C205.678 219.729 205.362 219.531 205.12 219.252C204.877 218.974 204.719 218.628 204.664 218.257C204.609 217.886 204.66 217.506 204.811 217.165C204.962 216.824 205.206 216.536 205.513 216.338C205.82 216.14 206.176 216.039 206.537 216.049C207.036 216.078 207.504 216.31 207.84 216.695C208.175 217.08 208.351 217.587 208.329 218.106V218.106Z" fill="#646FD4"/>
<path d="M214.037 218.134C214.054 218.396 214.02 218.66 213.935 218.908C213.851 219.156 213.718 219.383 213.545 219.575C213.372 219.768 213.163 219.921 212.931 220.026C212.699 220.131 212.448 220.185 212.195 220.185C211.942 220.185 211.692 220.131 211.459 220.026C211.227 219.921 211.018 219.768 210.845 219.575C210.673 219.383 210.54 219.156 210.455 218.908C210.371 218.66 210.336 218.396 210.354 218.134C210.336 217.872 210.371 217.608 210.455 217.36C210.54 217.112 210.673 216.885 210.845 216.693C211.018 216.501 211.227 216.347 211.459 216.242C211.692 216.137 211.942 216.083 212.195 216.083C212.448 216.083 212.699 216.137 212.931 216.242C213.163 216.347 213.372 216.501 213.545 216.693C213.718 216.885 213.851 217.112 213.935 217.36C214.02 217.608 214.054 217.872 214.037 218.134V218.134Z" fill="#646FD4"/>
<path d="M219.753 218.162C219.727 218.536 219.595 218.894 219.374 219.192C219.154 219.489 218.854 219.713 218.512 219.835C218.171 219.957 217.802 219.972 217.452 219.878C217.102 219.785 216.786 219.586 216.544 219.308C216.301 219.03 216.143 218.684 216.088 218.313C216.033 217.942 216.084 217.562 216.235 217.221C216.386 216.88 216.63 216.592 216.937 216.394C217.244 216.196 217.6 216.095 217.961 216.105C218.459 216.136 218.926 216.369 219.261 216.754C219.596 217.138 219.773 217.644 219.753 218.162Z" fill="#646FD4"/>
<path d="M225.461 218.19C225.434 218.564 225.302 218.922 225.082 219.22C224.861 219.517 224.562 219.741 224.22 219.863C223.878 219.985 223.509 220 223.159 219.906C222.809 219.813 222.494 219.614 222.251 219.336C222.009 219.058 221.85 218.712 221.795 218.341C221.74 217.97 221.792 217.59 221.943 217.249C222.094 216.908 222.338 216.62 222.644 216.422C222.951 216.224 223.307 216.123 223.669 216.133C224.167 216.164 224.634 216.397 224.969 216.782C225.304 217.166 225.48 217.672 225.461 218.19Z" fill="#646FD4"/>
<path d="M231.168 218.208C231.143 218.583 231.013 218.942 230.793 219.241C230.574 219.54 230.275 219.765 229.933 219.888C229.591 220.012 229.222 220.028 228.872 219.936C228.521 219.843 228.204 219.645 227.961 219.367C227.717 219.089 227.558 218.743 227.503 218.371C227.447 218 227.498 217.62 227.649 217.278C227.8 216.937 228.044 216.649 228.351 216.45C228.658 216.251 229.014 216.151 229.376 216.161C229.873 216.192 230.338 216.424 230.673 216.806C231.008 217.189 231.185 217.692 231.168 218.208Z" fill="#646FD4"/>
<path d="M236.885 218.236C236.86 218.609 236.731 218.967 236.514 219.265C236.296 219.562 236 219.788 235.66 219.913C235.321 220.038 234.954 220.057 234.605 219.968C234.255 219.88 233.938 219.687 233.693 219.413C233.447 219.14 233.284 218.797 233.224 218.429C233.163 218.06 233.207 217.682 233.351 217.339C233.495 216.996 233.733 216.705 234.034 216.501C234.335 216.296 234.688 216.188 235.048 216.189C235.552 216.208 236.029 216.435 236.373 216.818C236.718 217.202 236.901 217.712 236.885 218.236V218.236Z" fill="#646FD4"/>
<path d="M242.592 218.264C242.61 218.527 242.575 218.79 242.491 219.038C242.406 219.286 242.273 219.513 242.101 219.705C241.928 219.898 241.719 220.051 241.487 220.156C241.254 220.261 241.004 220.315 240.751 220.315C240.498 220.315 240.247 220.261 240.015 220.156C239.783 220.051 239.574 219.898 239.401 219.705C239.228 219.513 239.096 219.286 239.011 219.038C238.926 218.79 238.892 218.527 238.91 218.264C238.892 218.002 238.926 217.739 239.011 217.491C239.096 217.243 239.228 217.015 239.401 216.823C239.574 216.631 239.783 216.477 240.015 216.373C240.247 216.268 240.498 216.214 240.751 216.214C241.004 216.214 241.254 216.268 241.487 216.373C241.719 216.477 241.928 216.631 242.101 216.823C242.273 217.015 242.406 217.243 242.491 217.491C242.575 217.739 242.61 218.002 242.592 218.264Z" fill="#646FD4"/>
<path d="M248.3 218.292C248.275 218.665 248.146 219.023 247.929 219.321C247.711 219.618 247.415 219.844 247.075 219.969C246.736 220.094 246.369 220.113 246.02 220.024C245.67 219.936 245.353 219.742 245.108 219.469C244.862 219.195 244.699 218.853 244.639 218.485C244.578 218.116 244.622 217.737 244.766 217.395C244.91 217.052 245.148 216.761 245.449 216.556C245.751 216.352 246.103 216.244 246.463 216.245C246.967 216.264 247.444 216.49 247.788 216.874C248.133 217.258 248.316 217.768 248.3 218.292V218.292Z" fill="#646FD4"/>
<path d="M254.007 218.32C253.982 218.695 253.852 219.054 253.632 219.353C253.413 219.651 253.114 219.877 252.772 220C252.43 220.123 252.061 220.14 251.711 220.047C251.36 219.955 251.043 219.757 250.8 219.479C250.556 219.201 250.397 218.854 250.342 218.483C250.286 218.112 250.337 217.732 250.488 217.39C250.639 217.048 250.883 216.76 251.19 216.562C251.497 216.363 251.853 216.262 252.215 216.273C252.712 216.304 253.177 216.535 253.512 216.918C253.847 217.3 254.024 217.803 254.007 218.32V218.32Z" fill="#646FD4"/>
<g opacity="0.2">
<path d="M208.329 218.106C208.302 218.48 208.171 218.838 207.95 219.136C207.73 219.433 207.43 219.657 207.088 219.779C206.746 219.901 206.378 219.916 206.028 219.822C205.678 219.729 205.362 219.531 205.12 219.252C204.877 218.974 204.719 218.628 204.664 218.257C204.609 217.886 204.66 217.506 204.811 217.165C204.962 216.824 205.206 216.536 205.513 216.338C205.82 216.14 206.176 216.039 206.537 216.049C207.036 216.078 207.504 216.31 207.84 216.695C208.175 217.08 208.351 217.587 208.329 218.106V218.106Z" fill="white"/>
<path d="M214.036 218.134C214.054 218.396 214.019 218.66 213.935 218.908C213.85 219.156 213.718 219.383 213.545 219.575C213.372 219.767 213.163 219.921 212.931 220.026C212.699 220.131 212.448 220.185 212.195 220.185C211.942 220.185 211.691 220.131 211.459 220.026C211.227 219.921 211.018 219.767 210.845 219.575C210.673 219.383 210.54 219.156 210.455 218.908C210.371 218.66 210.336 218.396 210.354 218.134C210.336 217.872 210.371 217.608 210.455 217.36C210.54 217.112 210.673 216.885 210.845 216.693C211.018 216.5 211.227 216.347 211.459 216.242C211.691 216.137 211.942 216.083 212.195 216.083C212.448 216.083 212.699 216.137 212.931 216.242C213.163 216.347 213.372 216.5 213.545 216.693C213.718 216.885 213.85 217.112 213.935 217.36C214.019 217.608 214.054 217.872 214.036 218.134V218.134Z" fill="white"/>
<path d="M219.753 218.162C219.726 218.536 219.595 218.894 219.374 219.192C219.154 219.489 218.854 219.713 218.512 219.835C218.17 219.957 217.802 219.972 217.452 219.878C217.102 219.785 216.786 219.586 216.543 219.308C216.301 219.03 216.143 218.684 216.088 218.313C216.033 217.941 216.084 217.562 216.235 217.221C216.386 216.88 216.63 216.592 216.937 216.394C217.243 216.195 217.6 216.095 217.961 216.105C218.459 216.136 218.926 216.369 219.261 216.754C219.596 217.138 219.773 217.644 219.753 218.162Z" fill="white"/>
<path d="M225.46 218.19C225.434 218.564 225.302 218.922 225.082 219.22C224.861 219.517 224.561 219.741 224.22 219.863C223.878 219.985 223.509 220 223.159 219.906C222.809 219.813 222.494 219.614 222.251 219.336C222.009 219.058 221.85 218.712 221.795 218.34C221.74 217.969 221.792 217.59 221.942 217.249C222.093 216.908 222.337 216.62 222.644 216.422C222.951 216.223 223.307 216.123 223.668 216.133C224.167 216.164 224.633 216.397 224.968 216.781C225.303 217.166 225.48 217.672 225.46 218.19Z" fill="white"/>
<path d="M231.168 218.208C231.143 218.583 231.013 218.942 230.793 219.241C230.574 219.54 230.275 219.765 229.933 219.888C229.591 220.012 229.222 220.028 228.871 219.936C228.521 219.843 228.204 219.645 227.961 219.367C227.717 219.089 227.558 218.743 227.503 218.371C227.447 218 227.498 217.62 227.649 217.278C227.799 216.937 228.044 216.649 228.351 216.45C228.658 216.251 229.014 216.151 229.376 216.161C229.873 216.192 230.338 216.424 230.673 216.806C231.008 217.189 231.185 217.692 231.168 218.208Z" fill="white"/>
<path d="M236.884 218.236C236.86 218.609 236.731 218.967 236.514 219.265C236.296 219.562 235.999 219.788 235.66 219.913C235.321 220.038 234.954 220.057 234.605 219.968C234.255 219.88 233.938 219.687 233.693 219.413C233.447 219.14 233.284 218.797 233.224 218.429C233.163 218.06 233.207 217.682 233.351 217.339C233.495 216.996 233.733 216.705 234.034 216.501C234.335 216.296 234.688 216.188 235.048 216.189C235.552 216.208 236.029 216.435 236.373 216.818C236.718 217.202 236.901 217.712 236.884 218.236V218.236Z" fill="white"/>
<path d="M242.592 218.264C242.61 218.527 242.575 218.79 242.49 219.038C242.406 219.286 242.273 219.513 242.1 219.705C241.928 219.898 241.719 220.051 241.487 220.156C241.254 220.261 241.004 220.315 240.751 220.315C240.497 220.315 240.247 220.261 240.015 220.156C239.782 220.051 239.574 219.898 239.401 219.705C239.228 219.513 239.095 219.286 239.011 219.038C238.926 218.79 238.892 218.527 238.909 218.264C238.892 218.002 238.926 217.739 239.011 217.491C239.095 217.243 239.228 217.015 239.401 216.823C239.574 216.631 239.782 216.477 240.015 216.373C240.247 216.268 240.497 216.214 240.751 216.214C241.004 216.214 241.254 216.268 241.487 216.373C241.719 216.477 241.928 216.631 242.1 216.823C242.273 217.015 242.406 217.243 242.49 217.491C242.575 217.739 242.61 218.002 242.592 218.264Z" fill="white"/>
<path d="M248.299 218.292C248.275 218.665 248.146 219.023 247.929 219.321C247.711 219.618 247.414 219.844 247.075 219.969C246.736 220.094 246.369 220.113 246.02 220.024C245.67 219.936 245.353 219.742 245.108 219.469C244.862 219.195 244.699 218.853 244.639 218.485C244.578 218.116 244.622 217.737 244.766 217.395C244.91 217.052 245.148 216.761 245.449 216.556C245.75 216.352 246.103 216.244 246.463 216.245C246.967 216.264 247.444 216.49 247.788 216.874C248.133 217.258 248.316 217.768 248.299 218.292V218.292Z" fill="white"/>
<path d="M254.007 218.32C253.982 218.695 253.852 219.054 253.632 219.353C253.413 219.651 253.114 219.877 252.772 220C252.43 220.123 252.061 220.14 251.711 220.047C251.36 219.955 251.043 219.757 250.8 219.479C250.556 219.201 250.397 218.854 250.342 218.483C250.286 218.112 250.337 217.732 250.488 217.39C250.639 217.048 250.883 216.76 251.19 216.562C251.497 216.363 251.853 216.262 252.215 216.273C252.712 216.304 253.177 216.535 253.512 216.918C253.847 217.3 254.024 217.803 254.007 218.32V218.32Z" fill="white"/>
</g>
<path d="M245.898 83.962C246.521 83.6773 247.049 83.2087 247.417 82.6146C247.785 82.0205 247.976 81.3271 247.968 80.6207C247.991 80.1615 247.924 79.7022 247.771 79.2708C247.618 78.8394 247.382 78.4449 247.077 78.1113C246.772 77.7777 246.405 77.5121 245.998 77.3306C245.592 77.149 245.154 77.0554 244.711 77.0554C244.268 77.0554 243.83 77.149 243.424 77.3306C243.017 77.5121 242.65 77.7777 242.345 78.1113C242.04 78.4449 241.804 78.8394 241.651 79.2708C241.498 79.7022 241.431 80.1615 241.454 80.6207C241.44 81.3342 241.631 82.0359 242.001 82.6372C242.37 83.2385 242.904 83.7125 243.533 83.9992C238.515 84.781 238.739 90.4398 238.739 90.4398L250.602 90.4956C250.602 90.4956 250.88 84.7345 245.898 83.962Z" fill="#646FD4"/>
<path opacity="0.1" d="M245.898 83.962C246.521 83.6773 247.049 83.2087 247.417 82.6146C247.785 82.0205 247.976 81.3271 247.968 80.6207C247.991 80.1615 247.924 79.7022 247.771 79.2708C247.618 78.8394 247.382 78.4449 247.077 78.1113C246.772 77.7777 246.405 77.5121 245.998 77.3306C245.592 77.149 245.154 77.0554 244.711 77.0554C244.268 77.0554 243.83 77.149 243.424 77.3306C243.017 77.5121 242.65 77.7777 242.345 78.1113C242.04 78.4449 241.804 78.8394 241.651 79.2708C241.498 79.7022 241.431 80.1615 241.454 80.6207C241.44 81.3342 241.631 82.0359 242.001 82.6372C242.37 83.2385 242.904 83.7125 243.533 83.9992C238.515 84.781 238.739 90.4398 238.739 90.4398L250.602 90.4956C250.602 90.4956 250.88 84.7345 245.898 83.962Z" fill="black"/>
<path d="M265.175 94.1453L222.893 93.946L222.871 99.1952L265.152 99.3945L265.175 94.1453Z" fill="#646FD4"/>
<path opacity="0.2" d="M265.175 94.1453L222.893 93.946L222.871 99.1952L265.152 99.3945L265.175 94.1453Z" fill="white"/>
<path d="M162.498 384.732C162.498 384.862 157.355 384.974 151.021 384.974C144.686 384.974 139.543 384.862 139.543 384.732C139.543 384.602 144.686 384.49 151.021 384.49C157.355 384.49 162.498 384.602 162.498 384.732Z" fill="#263238"/>
<path d="M143.683 384.695C143.629 384.695 143.423 384.527 143.127 384.174C142.766 383.719 142.364 383.301 141.926 382.927C141.496 382.569 140.983 382.335 140.439 382.247C140.018 382.191 139.749 382.247 139.722 382.191C139.695 382.135 139.955 381.94 140.448 381.903C141.098 381.888 141.733 382.113 142.24 382.536C142.715 382.938 143.116 383.427 143.423 383.978C143.629 384.388 143.736 384.658 143.683 384.695Z" fill="#263238"/>
<path d="M196.323 384.751C196.323 384.881 191.188 384.993 184.845 384.993C178.501 384.993 173.376 384.881 173.376 384.751C173.376 384.62 178.51 384.509 184.845 384.509C191.179 384.509 196.323 384.62 196.323 384.751Z" fill="#263238"/>
<path d="M237.78 145.324C237.422 144.942 236.535 145.129 236.535 145.129C236.624 144.593 236.624 144.045 236.535 143.509C236.374 142.988 235.245 143.09 235.245 143.09C235.193 142.651 235.193 142.208 235.245 141.769C235.254 141.671 235.234 141.574 235.187 141.489C235.141 141.404 235.07 141.336 234.985 141.294C234.451 141.068 233.877 140.96 233.3 140.978C232.611 140.466 235.406 136.398 236.445 135.095C237.485 133.792 237.297 132.778 236.374 132.778C235.738 132.778 232.476 136.687 231.473 137.999C230.469 139.312 227.808 142.96 227.718 140.047C227.629 137.134 226.5 134.937 225.792 134.565C225.084 134.193 224.331 135.068 224.717 135.877C225.055 136.797 225.266 137.762 225.344 138.744C225.441 139.526 225.408 140.319 225.245 141.089C224.948 142.522 224.544 143.929 224.036 145.296L224.717 150.862C224.717 150.862 209.386 169.41 207.971 170.796C206.707 172.043 176.324 164.683 171.226 164.124C169.493 163.861 167.744 163.737 165.993 163.752C163.78 163.855 163.386 164.18 161.181 164.208C155.615 164.272 150.061 164.78 144.57 165.725C142.083 166.164 139.76 167.305 137.854 169.021C135.949 170.738 134.534 172.966 133.764 175.461C128.63 192.12 118.379 232.197 116.328 254.348C114.777 257.269 111.998 259.631 110.755 262.706C109.312 266.782 109.661 266.922 110.145 267.015C111.453 267.266 112.941 259.951 113.496 261.719C114.052 263.488 110.674 270.44 112.045 270.645C113.837 270.906 115.261 263.199 115.432 262.585C115.602 261.971 116.489 262.166 116.328 262.743C116.068 263.562 113.55 272.246 115.306 272.525C116.274 272.674 116.381 270.84 116.381 270.84C116.381 270.84 118.173 262.529 118.989 262.697C119.804 262.864 118.935 267.769 118.523 269.407C118.111 271.045 118.684 271.873 119.526 271.473C120.1 271.194 121.471 266.215 121.847 264.595C122.223 262.976 123.164 258.49 124.427 261.086C125.691 263.683 127.608 265.191 128.397 265.228C128.574 265.207 128.742 265.131 128.878 265.01C129.013 264.889 129.111 264.728 129.158 264.549C129.206 264.37 129.2 264.18 129.143 264.004C129.085 263.828 128.978 263.674 128.836 263.562C128.158 262.874 127.576 262.091 127.107 261.235C126.689 260.569 126.385 259.832 126.211 259.058C125.849 257.514 125.639 255.936 125.583 254.348L122.962 250.501C124.427 222.283 133.226 212.801 141.568 193.451L144.991 200.767L146.478 206.184L137.357 229.572L176.261 229.042L170.455 205.83L177.507 181.631C185.131 181.808 204.709 182.106 207.971 180.57C212.074 178.709 233.3 150.862 233.3 150.862C234.684 149.745 236.009 148.552 237.27 147.288C237.27 147.288 238.56 146.162 237.78 145.324Z" fill="#FFB573"/>
<path d="M136.568 204.387C137.697 200.385 144.668 190.599 144.668 190.599C144.668 190.599 145.421 204.629 144.668 206.574C143.976 208.24 143.158 209.845 142.222 211.377C135.645 221.773 136.506 226.976 136.506 226.976L176.243 225.719C176.333 219.949 173.044 206.528 172.363 204.387C171.683 202.247 173.949 195.238 173.949 195.238C173.949 195.238 178.429 190.501 178.268 188.062C178.183 185.872 177.727 184.328 177.294 182.183H192.545V168.321L166.172 161.835C164.963 165.381 154.022 163.64 154.022 163.64C142.213 164.05 141.478 166.302 136.568 170.267C131.658 174.232 126.298 200.5 126.298 200.5L136.568 204.387Z" fill="#646FD4"/>
<path d="M175.231 189.096C175.213 189.805 175.119 190.511 174.953 191.199C174.72 192.493 174.362 194.261 173.905 196.197C173.448 198.133 173.009 199.92 172.614 201.13C172.456 201.822 172.221 202.494 171.916 203.131C171.965 202.423 172.092 201.724 172.292 201.046C172.632 199.594 173.018 197.919 173.448 196.085C173.878 194.252 174.29 192.576 174.63 191.125C174.752 190.426 174.953 189.745 175.231 189.096V189.096Z" fill="#263238"/>
<path d="M165.939 162.877C166.038 160.802 166.244 158.456 166.244 158.456C166.244 158.456 171.19 157.889 171.485 152.584C171.781 147.278 171.485 135.04 171.485 135.04L162.525 130.274L152.58 138.399L154.112 164.925L163.233 165.53C163.93 165.55 164.607 165.282 165.114 164.785C165.621 164.287 165.918 163.601 165.939 162.877V162.877Z" fill="#FFB573"/>
<path d="M166.826 148.386C166.826 148.386 166.826 148.488 166.745 148.609C166.679 148.697 166.593 148.767 166.494 148.812C166.396 148.858 166.288 148.877 166.181 148.87C165.608 148.87 165.052 148.181 164.855 147.381C164.761 146.993 164.761 146.587 164.855 146.199C164.873 146.029 164.932 145.868 165.026 145.728C165.12 145.588 165.246 145.475 165.393 145.398C165.513 145.347 165.648 145.347 165.769 145.398C165.858 145.444 165.931 145.52 165.975 145.612C166.038 145.771 165.975 145.873 165.975 145.864C165.975 145.854 165.975 145.771 165.885 145.678C165.838 145.611 165.77 145.565 165.692 145.547C165.614 145.53 165.533 145.543 165.464 145.585C165.354 145.654 165.263 145.75 165.199 145.866C165.135 145.981 165.099 146.112 165.097 146.245C165.021 146.592 165.021 146.951 165.097 147.297C165.276 148.023 165.76 148.609 166.19 148.665C166.274 148.677 166.36 148.671 166.441 148.647C166.523 148.623 166.599 148.582 166.665 148.526C166.772 148.451 166.808 148.377 166.826 148.386Z" fill="#EB996E"/>
<path d="M174.911 133.667C178.247 129.706 171.098 125.746 169.093 127.854C165.626 126.831 161.88 126.384 158.493 127.678C155.107 128.971 151.039 131.242 151.039 135.123C149.041 134.956 147.894 136.771 147.105 139.023C146.601 140.395 146.299 141.839 146.209 143.304C145.958 148.386 144.587 155.404 141.416 159.127C139.624 161.202 137.142 162.635 136.12 165.223C135.224 167.466 135.69 170.128 134.857 172.399C134.113 174.4 132.474 175.824 131.273 177.564C130.05 179.538 129.33 181.803 129.181 184.146C129.032 186.489 129.459 188.833 130.422 190.957C131.391 193.027 132.756 194.87 134.434 196.374C136.112 197.878 138.066 199.012 140.179 199.706C144.364 201.028 148.827 201.074 153.037 199.836C156.196 199.051 159.143 197.534 161.656 195.397C164.228 193.215 165.994 190.177 166.656 186.797C167.292 182.999 166.271 179.137 165.509 175.358C163.126 163.417 163.807 162.794 166.817 151.709C166.889 151.513 166.925 151.309 166.979 151.113C167.032 150.918 167.059 150.825 167.095 150.676C167.181 150.237 165.85 149.895 165.854 149.448C166.312 149.55 165.414 149.618 165.854 149.448C165.395 149.346 164.974 149.11 164.64 148.768C164.305 148.403 164.072 147.95 163.965 147.459C163.857 146.967 163.88 146.455 164.031 145.976C164.242 145.451 164.557 144.979 164.955 144.59C165.354 144.2 165.826 143.902 166.342 143.714C167.337 143.286 168.403 143.062 169.38 142.588C171.45 141.564 170.121 138.861 171.098 136.637C171.901 135.095 174.076 134.657 174.911 133.667Z" fill="#263238"/>
<path d="M161.835 249.732C161.185 249.774 160.532 249.734 159.891 249.611C158.69 249.462 157.051 249.201 155.25 248.829C153.449 248.457 151.836 248.029 150.671 247.684C150.049 247.542 149.446 247.317 148.879 247.014C148.879 246.874 151.8 247.6 155.384 248.354C158.968 249.108 161.853 249.592 161.835 249.732Z" fill="#455A64"/>
<path d="M180.463 296.156C178.954 296.671 177.399 297.03 175.822 297.226C173.887 297.571 172.238 297.813 171.494 297.85V297.664C171.736 297.738 171.862 297.785 171.862 297.822C171.862 297.859 171.709 297.822 171.459 297.822H170.921L171.459 297.654C172.157 297.44 173.806 297.087 175.741 296.724C177.294 296.374 178.875 296.184 180.463 296.156Z" fill="#455A64"/>
<path d="M180.096 298.827C178.698 298.893 177.298 298.828 175.912 298.632C174.512 298.602 173.118 298.443 171.745 298.157C174.545 297.92 177.364 298.146 180.096 298.827V298.827Z" fill="#455A64"/>
<path opacity="0.2" d="M136.335 228.456C136.806 229.083 137.399 229.601 138.075 229.975C138.751 230.348 139.496 230.57 140.26 230.624C141.86 230.821 143.479 230.79 145.071 230.531C155.331 229.349 166.199 228.26 176.243 225.719C163.242 226.473 149.507 226.222 136.506 226.976L136.371 228.13" fill="black"/>
<g opacity="0.2">
<path d="M149.73 247.489L157.06 277.03L156.549 248.736L149.73 247.489Z" fill="black"/>
</g>
<path d="M155.931 157.175C159.784 156.407 158.239 151.102 155.349 149.438C152.459 147.774 140.553 149.008 142.177 153.464C143.801 157.92 150.779 158.234 155.931 157.175Z" fill="white"/>
<path d="M140.596 160.4L138.213 163.37C141.465 157.879 146.81 149.68 144.615 145.278C141.793 139.694 155.526 132.677 151.237 132.677C158.335 132.677 142.438 138.875 145.413 144.841C147.724 149.494 143.974 154.695 140.596 160.4Z" fill="#263238"/>
<path d="M166.628 151.763L165.902 150.414C165.871 150.359 165.855 150.296 165.855 150.232C165.855 150.169 165.871 150.106 165.902 150.051L166.628 148.711C166.659 148.652 166.704 148.604 166.759 148.57C166.815 148.536 166.878 148.519 166.942 148.519C167.006 148.519 167.068 148.536 167.124 148.57C167.179 148.604 167.224 148.652 167.255 148.711L167.981 150.051C168.012 150.106 168.028 150.169 168.028 150.232C168.028 150.296 168.012 150.359 167.981 150.414L167.255 151.763C167.224 151.822 167.179 151.87 167.124 151.904C167.068 151.938 167.006 151.955 166.942 151.955C166.878 151.955 166.815 151.938 166.759 151.904C166.704 151.87 166.659 151.822 166.628 151.763Z" fill="white"/>
<path d="M140.552 245.353C140.552 245.353 135.048 291.727 133.312 315.292C131.471 336.92 133.312 376.951 133.312 376.951L140.571 377.237C140.571 377.237 152.092 291.759 149.97 275.749C143.986 230.628 149.97 245.353 149.97 245.353H140.552Z" fill="#FFB573"/>
<path d="M166.288 252.284C166.288 252.284 160.784 298.658 159.048 322.223C157.207 343.851 159.048 383.882 159.048 383.882L166.307 384.168C166.307 384.168 177.829 297.205 175.706 281.195C169.722 236.073 175.706 252.284 175.706 252.284H166.288Z" fill="#FFB573"/>
<path d="M137.736 225.868C137.736 225.868 118.592 245.173 132.494 324.265C151.201 324.155 167.285 322.856 186.826 312.384C186.826 312.384 179.677 254.957 175.864 225.868C166.877 223.355 137.736 225.868 137.736 225.868Z" fill="#263238"/>
<path d="M141.43 376.247C142.026 377.237 142.583 376.532 141.558 376.296C144.012 377.003 141.597 376.264 140 376.247C137.617 378.722 137.141 375.752 132.375 376.838C132.375 378.822 129.246 385.782 135.106 384.954C142.383 384.954 142.095 385.13 144.415 385.13C146.736 385.13 152.987 383.178 144.885 379.084C145.363 382.143 145.516 380.685 145.383 380.567C149.541 381.012 143.151 378.256 142.979 378.227C140.792 377.967 143.493 377.044 141.43 376.247Z" fill="#263238"/>
<path d="M167.74 377.265C166.809 379.217 168.774 377.054 167.749 376.819C167.74 376.77 167.788 376.787 166.192 376.77C163.809 379.245 163.332 376.275 158.566 377.36C158.566 379.344 155.438 386.305 161.297 385.476C168.575 385.476 168.286 385.653 170.607 385.653C172.927 385.653 185.434 383.529 166.787 378.255C166.733 378.082 171.707 381.208 171.574 381.09C175.733 381.535 169.343 378.993 169.17 378.964C166.984 378.704 168.217 377.265 167.74 377.265Z" fill="#263238"/>
<path d="M154.566 155.967C157.512 155.38 156.33 151.323 154.12 150.051C151.911 148.779 142.806 149.722 144.048 153.129C145.29 156.537 150.626 156.777 154.566 155.967Z" fill="#646FD4"/>
<path opacity="0.2" d="M151.557 273.274L150.604 256.937L156.323 250.501L151.557 273.274Z" fill="black"/>
</svg>
