<svg width="251" height="51" viewBox="0 0 251 51" fill="none" xmlns="http://www.w3.org/2000/svg">
<path d="M1.76003 11.1C2.0667 11.6333 2.39336 12.1066 2.74003 12.52C3.10003 12.92 3.49336 13.2333 3.92003 13.46C4.3467 13.6733 4.8267 13.78 5.36003 13.78C6.00003 13.78 6.52003 13.6066 6.92003 13.26C7.32003 12.9133 7.52003 12.4666 7.52003 11.92C7.52003 11.4 7.39336 10.9866 7.14003 10.68C6.8867 10.36 6.53336 10.0933 6.08003 9.87998C5.64003 9.65331 5.1267 9.43331 4.54003 9.21998C4.19336 9.09998 3.8067 8.93998 3.38003 8.73998C2.95336 8.52664 2.5467 8.26664 2.16003 7.95998C1.77336 7.63998 1.45336 7.25331 1.20003 6.79998C0.946696 6.33331 0.820029 5.77331 0.820029 5.11997C0.820029 4.37331 1.01336 3.71997 1.40003 3.15997C1.7867 2.58664 2.3067 2.14664 2.96003 1.83998C3.6267 1.51998 4.38003 1.35998 5.22003 1.35998C6.0467 1.35998 6.7667 1.50664 7.38003 1.79997C7.99336 2.09331 8.5067 2.46664 8.92003 2.91998C9.3467 3.37331 9.68003 3.84664 9.92003 4.33998L8.00003 5.41998C7.8267 5.07331 7.6067 4.75331 7.34003 4.45997C7.07336 4.15331 6.76003 3.91331 6.40003 3.73997C6.05336 3.55331 5.6467 3.45997 5.18003 3.45997C4.5267 3.45997 4.0467 3.61331 3.74003 3.91997C3.43336 4.21331 3.28003 4.55998 3.28003 4.95998C3.28003 5.31998 3.3867 5.64664 3.60003 5.93998C3.8267 6.21998 4.17336 6.48664 4.64003 6.73998C5.1067 6.99331 5.71336 7.25331 6.46003 7.51998C6.87336 7.66664 7.2867 7.85331 7.70003 8.07998C8.1267 8.30664 8.51336 8.59331 8.86003 8.93998C9.2067 9.27331 9.48003 9.66664 9.68003 10.12C9.89336 10.5733 10 11.1066 10 11.72C10 12.3733 9.87336 12.96 9.62003 13.48C9.3667 14 9.02003 14.44 8.58003 14.8C8.14003 15.1466 7.64003 15.4133 7.08003 15.6C6.53336 15.8 5.96003 15.9 5.36003 15.9C4.53336 15.9 3.7667 15.74 3.06003 15.42C2.3667 15.0866 1.76003 14.6466 1.24003 14.1C0.720029 13.5533 0.306696 12.96 2.93404e-05 12.32L1.76003 11.1ZM10.9621 6.39998H16.1821V8.29998H10.9621V6.39998ZM12.5021 3.19998H14.6421V15.6H12.5021V3.19998ZM19.0317 12.74C19.0317 13.0466 19.1051 13.3133 19.2517 13.54C19.3984 13.7533 19.5984 13.9133 19.8517 14.02C20.1184 14.1266 20.4184 14.18 20.7517 14.18C21.1784 14.18 21.5651 14.0933 21.9117 13.92C22.2717 13.7466 22.5584 13.4933 22.7717 13.16C22.9984 12.8133 23.1117 12.4133 23.1117 11.96L23.4317 13.16C23.4317 13.7466 23.2584 14.24 22.9117 14.64C22.5784 15.0266 22.1517 15.32 21.6317 15.52C21.1251 15.7066 20.6051 15.8 20.0717 15.8C19.4984 15.8 18.9651 15.6866 18.4717 15.46C17.9784 15.2333 17.5851 14.9 17.2917 14.46C16.9984 14.02 16.8517 13.4866 16.8517 12.86C16.8517 11.9666 17.1651 11.26 17.7917 10.74C18.4184 10.2066 19.3051 9.93998 20.4517 9.93998C21.0651 9.93998 21.5917 10.0066 22.0317 10.14C22.4851 10.2733 22.8584 10.4333 23.1517 10.62C23.4451 10.7933 23.6517 10.9533 23.7717 11.1V12.2C23.3584 11.9066 22.9184 11.6933 22.4517 11.56C21.9851 11.4266 21.4917 11.36 20.9717 11.36C20.5184 11.36 20.1517 11.42 19.8717 11.54C19.5917 11.6466 19.3784 11.8 19.2317 12C19.0984 12.2 19.0317 12.4466 19.0317 12.74ZM18.3517 8.79998L17.4717 7.27998C17.8851 7.02664 18.4184 6.77998 19.0717 6.53998C19.7384 6.29998 20.4984 6.17998 21.3517 6.17998C22.1117 6.17998 22.7784 6.29331 23.3517 6.51998C23.9384 6.74664 24.3984 7.07331 24.7317 7.49997C25.0651 7.91331 25.2317 8.42664 25.2317 9.03998V15.6H23.1117V9.45998C23.1117 9.16664 23.0584 8.92664 22.9517 8.73998C22.8584 8.55331 22.7251 8.39998 22.5517 8.27998C22.3784 8.15998 22.1717 8.07331 21.9317 8.01998C21.6917 7.96664 21.4317 7.93998 21.1517 7.93998C20.7251 7.93998 20.3184 7.99331 19.9317 8.09997C19.5584 8.19331 19.2317 8.31331 18.9517 8.45998C18.6851 8.59331 18.4851 8.70664 18.3517 8.79998ZM29.8899 6.39998V15.6H27.7499V6.39998H29.8899ZM32.6299 8.69998C32.4299 8.53998 32.2432 8.41998 32.0699 8.33998C31.8965 8.25998 31.6765 8.21998 31.4099 8.21998C31.0499 8.21998 30.7565 8.31331 30.5299 8.49998C30.3032 8.68664 30.1365 8.94664 30.0299 9.27998C29.9365 9.59998 29.8899 9.97998 29.8899 10.42L29.1699 9.99998C29.1699 9.26664 29.3032 8.61998 29.5699 8.05998C29.8499 7.48664 30.2032 7.03331 30.6299 6.69998C31.0699 6.36664 31.5232 6.19998 31.9899 6.19998C32.3232 6.19998 32.6365 6.25331 32.9299 6.35998C33.2232 6.45331 33.4699 6.62664 33.6699 6.87998L32.6299 8.69998ZM33.8722 6.39998H39.0922V8.29998H33.8722V6.39998ZM35.4122 3.19998H37.5522V15.6H35.4122V3.19998ZM49.358 7.07998L48.398 15.6H45.958L47.878 0.899975L53.618 10.4L59.378 0.899975L61.298 15.6H58.858L57.878 7.07998L53.618 14.3L49.358 7.07998ZM64.7739 12.74C64.7739 13.0466 64.8473 13.3133 64.9939 13.54C65.1406 13.7533 65.3406 13.9133 65.5939 14.02C65.8606 14.1266 66.1606 14.18 66.4939 14.18C66.9206 14.18 67.3073 14.0933 67.6539 13.92C68.0139 13.7466 68.3006 13.4933 68.5139 13.16C68.7406 12.8133 68.8539 12.4133 68.8539 11.96L69.1739 13.16C69.1739 13.7466 69.0006 14.24 68.6539 14.64C68.3206 15.0266 67.8939 15.32 67.3739 15.52C66.8673 15.7066 66.3473 15.8 65.8139 15.8C65.2406 15.8 64.7073 15.6866 64.2139 15.46C63.7206 15.2333 63.3273 14.9 63.0339 14.46C62.7406 14.02 62.5939 13.4866 62.5939 12.86C62.5939 11.9666 62.9073 11.26 63.5339 10.74C64.1606 10.2066 65.0473 9.93998 66.1939 9.93998C66.8073 9.93998 67.3339 10.0066 67.7739 10.14C68.2273 10.2733 68.6006 10.4333 68.8939 10.62C69.1873 10.7933 69.3939 10.9533 69.5139 11.1V12.2C69.1006 11.9066 68.6606 11.6933 68.1939 11.56C67.7273 11.4266 67.2339 11.36 66.7139 11.36C66.2606 11.36 65.8939 11.42 65.6139 11.54C65.3339 11.6466 65.1206 11.8 64.9739 12C64.8406 12.2 64.7739 12.4466 64.7739 12.74ZM64.0939 8.79998L63.2139 7.27998C63.6273 7.02664 64.1606 6.77998 64.8139 6.53998C65.4806 6.29998 66.2406 6.17998 67.0939 6.17998C67.8539 6.17998 68.5206 6.29331 69.0939 6.51998C69.6806 6.74664 70.1406 7.07331 70.4739 7.49997C70.8073 7.91331 70.9739 8.42664 70.9739 9.03998V15.6H68.8539V9.45998C68.8539 9.16664 68.8006 8.92664 68.6939 8.73998C68.6006 8.55331 68.4673 8.39998 68.2939 8.27998C68.1206 8.15998 67.9139 8.07331 67.6739 8.01998C67.4339 7.96664 67.1739 7.93998 66.8939 7.93998C66.4673 7.93998 66.0606 7.99331 65.6739 8.09997C65.3006 8.19331 64.9739 8.31331 64.6939 8.45998C64.4273 8.59331 64.2273 8.70664 64.0939 8.79998ZM79.4121 9.99998C79.4121 9.31998 79.2721 8.80664 78.9921 8.45998C78.7121 8.11331 78.2787 7.93998 77.6921 7.93998C77.2921 7.93998 76.9387 8.02664 76.6321 8.19998C76.3254 8.35998 76.0854 8.59998 75.9121 8.91998C75.7387 9.22664 75.6521 9.58664 75.6521 9.99998V15.6H73.4921V6.39998H75.6521V7.81998C75.9454 7.27331 76.3187 6.86664 76.7721 6.59998C77.2387 6.33331 77.7921 6.19998 78.4321 6.19998C79.4721 6.19998 80.2654 6.51998 80.8121 7.15998C81.3587 7.78664 81.6321 8.65331 81.6321 9.75998V15.6H79.4121V9.99998ZM85.7505 12.74C85.7505 13.0466 85.8238 13.3133 85.9705 13.54C86.1172 13.7533 86.3172 13.9133 86.5705 14.02C86.8372 14.1266 87.1372 14.18 87.4705 14.18C87.8972 14.18 88.2838 14.0933 88.6305 13.92C88.9905 13.7466 89.2772 13.4933 89.4905 13.16C89.7172 12.8133 89.8305 12.4133 89.8305 11.96L90.1505 13.16C90.1505 13.7466 89.9772 14.24 89.6305 14.64C89.2972 15.0266 88.8705 15.32 88.3505 15.52C87.8438 15.7066 87.3238 15.8 86.7905 15.8C86.2172 15.8 85.6838 15.6866 85.1905 15.46C84.6972 15.2333 84.3038 14.9 84.0105 14.46C83.7172 14.02 83.5705 13.4866 83.5705 12.86C83.5705 11.9666 83.8838 11.26 84.5105 10.74C85.1372 10.2066 86.0238 9.93998 87.1705 9.93998C87.7838 9.93998 88.3105 10.0066 88.7505 10.14C89.2038 10.2733 89.5772 10.4333 89.8705 10.62C90.1638 10.7933 90.3705 10.9533 90.4905 11.1V12.2C90.0772 11.9066 89.6372 11.6933 89.1705 11.56C88.7038 11.4266 88.2105 11.36 87.6905 11.36C87.2372 11.36 86.8705 11.42 86.5905 11.54C86.3105 11.6466 86.0972 11.8 85.9505 12C85.8172 12.2 85.7505 12.4466 85.7505 12.74ZM85.0705 8.79998L84.1905 7.27998C84.6038 7.02664 85.1372 6.77998 85.7905 6.53998C86.4572 6.29998 87.2172 6.17998 88.0705 6.17998C88.8305 6.17998 89.4972 6.29331 90.0705 6.51998C90.6572 6.74664 91.1172 7.07331 91.4505 7.49997C91.7838 7.91331 91.9505 8.42664 91.9505 9.03998V15.6H89.8305V9.45998C89.8305 9.16664 89.7772 8.92664 89.6705 8.73998C89.5772 8.55331 89.4438 8.39998 89.2705 8.27998C89.0972 8.15998 88.8905 8.07331 88.6505 8.01998C88.4105 7.96664 88.1505 7.93998 87.8705 7.93998C87.4438 7.93998 87.0372 7.99331 86.6505 8.09997C86.2772 8.19331 85.9505 8.31331 85.6705 8.45998C85.4038 8.59331 85.2038 8.70664 85.0705 8.79998ZM93.9486 16.22H96.0886C96.102 16.6333 96.2153 17.0066 96.4286 17.34C96.6553 17.6733 96.962 17.9333 97.3486 18.12C97.7353 18.3066 98.182 18.4 98.6886 18.4C99.142 18.4 99.5753 18.2933 99.9886 18.08C100.402 17.8666 100.735 17.54 100.989 17.1C101.255 16.66 101.389 16.0933 101.389 15.4V6.39998H103.509V15.4C103.509 16.5066 103.282 17.42 102.829 18.14C102.389 18.86 101.809 19.3933 101.089 19.74C100.369 20.1 99.5886 20.28 98.7486 20.28C97.7486 20.28 96.8953 20.1066 96.1886 19.76C95.482 19.4266 94.9353 18.9533 94.5486 18.34C94.1753 17.7266 93.9753 17.02 93.9486 16.22ZM93.7686 10.96C93.7686 9.93331 93.9753 9.07331 94.3886 8.37997C94.802 7.67331 95.3486 7.13331 96.0286 6.75997C96.722 6.38664 97.462 6.19998 98.2486 6.19998C99.022 6.19998 99.6953 6.39331 100.269 6.77998C100.855 7.15331 101.315 7.69331 101.649 8.39998C101.995 9.10664 102.169 9.95998 102.169 10.96C102.169 11.9466 101.995 12.7933 101.649 13.5C101.315 14.2066 100.855 14.7533 100.269 15.14C99.6953 15.5133 99.022 15.7 98.2486 15.7C97.462 15.7 96.722 15.5133 96.0286 15.14C95.3486 14.7666 94.802 14.2266 94.3886 13.52C93.9753 12.8133 93.7686 11.96 93.7686 10.96ZM96.0086 10.96C96.0086 11.5733 96.1353 12.0933 96.3886 12.52C96.642 12.9466 96.9753 13.2733 97.3886 13.5C97.8153 13.7133 98.2753 13.82 98.7686 13.82C99.182 13.82 99.5886 13.7133 99.9886 13.5C100.402 13.2866 100.735 12.9666 100.989 12.54C101.255 12.1 101.389 11.5733 101.389 10.96C101.389 10.48 101.309 10.0666 101.149 9.71998C101.002 9.35998 100.802 9.05998 100.549 8.81998C100.295 8.56664 100.009 8.37998 99.6886 8.25998C99.382 8.13998 99.0753 8.07998 98.7686 8.07998C98.2753 8.07998 97.8153 8.19331 97.3886 8.41998C96.9753 8.63331 96.642 8.95331 96.3886 9.37998C96.1353 9.80664 96.0086 10.3333 96.0086 10.96ZM110.187 15.8C109.254 15.8 108.427 15.6 107.707 15.2C107.001 14.8 106.454 14.24 106.067 13.52C105.681 12.8 105.487 11.96 105.487 11C105.487 10.0266 105.681 9.17998 106.067 8.45998C106.467 7.73998 107.027 7.18664 107.747 6.79998C108.467 6.39998 109.314 6.19998 110.287 6.19998C111.261 6.19998 112.087 6.38664 112.767 6.75997C113.447 7.13331 113.967 7.67331 114.327 8.37997C114.701 9.07331 114.887 9.91331 114.887 10.9C114.887 11.0066 114.881 11.12 114.867 11.24C114.867 11.36 114.861 11.4466 114.847 11.5H106.767V10.02H113.007L112.347 10.94C112.387 10.86 112.427 10.7533 112.467 10.62C112.521 10.4733 112.547 10.3533 112.547 10.26C112.547 9.76664 112.447 9.33998 112.247 8.97997C112.061 8.61998 111.794 8.33998 111.447 8.13998C111.114 7.93998 110.721 7.83998 110.267 7.83998C109.721 7.83998 109.254 7.95998 108.867 8.19998C108.481 8.43998 108.187 8.78664 107.987 9.23998C107.787 9.69331 107.681 10.2533 107.667 10.92C107.667 11.5866 107.767 12.1533 107.967 12.62C108.167 13.0733 108.461 13.42 108.847 13.66C109.247 13.9 109.727 14.02 110.287 14.02C110.874 14.02 111.387 13.9 111.827 13.66C112.267 13.42 112.634 13.0533 112.927 12.56L114.787 13.32C114.307 14.1466 113.687 14.7666 112.927 15.18C112.167 15.5933 111.254 15.8 110.187 15.8ZM130.825 1.59997H133.525L128.765 9.69998V15.6H126.365V9.71998L121.625 1.59997H124.305L127.565 7.59998L130.825 1.59997ZM132.265 11C132.265 10.0533 132.478 9.21998 132.905 8.49998C133.345 7.77998 133.938 7.21998 134.685 6.81998C135.431 6.40664 136.278 6.19998 137.225 6.19998C138.171 6.19998 139.011 6.40664 139.745 6.81998C140.491 7.21998 141.085 7.77998 141.525 8.49998C141.965 9.21998 142.185 10.0533 142.185 11C142.185 11.9333 141.965 12.7666 141.525 13.5C141.085 14.22 140.491 14.7866 139.745 15.2C139.011 15.6 138.171 15.8 137.225 15.8C136.278 15.8 135.431 15.6 134.685 15.2C133.938 14.7866 133.345 14.22 132.905 13.5C132.478 12.7666 132.265 11.9333 132.265 11ZM134.485 11C134.485 11.5733 134.605 12.08 134.845 12.52C135.085 12.9466 135.411 13.2866 135.825 13.54C136.238 13.78 136.705 13.9 137.225 13.9C137.731 13.9 138.191 13.78 138.605 13.54C139.031 13.2866 139.365 12.9466 139.605 12.52C139.845 12.08 139.965 11.5733 139.965 11C139.965 10.4266 139.845 9.91998 139.605 9.47998C139.365 9.03998 139.031 8.69998 138.605 8.45998C138.191 8.21998 137.731 8.09997 137.225 8.09997C136.705 8.09997 136.238 8.21998 135.825 8.45998C135.411 8.69998 135.085 9.03998 134.845 9.47998C134.605 9.91998 134.485 10.4266 134.485 11ZM146.454 12C146.454 12.6533 146.594 13.16 146.874 13.52C147.154 13.88 147.581 14.06 148.154 14.06C148.568 14.06 148.928 13.98 149.234 13.82C149.541 13.6466 149.781 13.4066 149.954 13.1C150.128 12.78 150.214 12.4133 150.214 12V6.39998H152.374V15.6H150.214V14.18C149.921 14.7133 149.541 15.12 149.074 15.4C148.621 15.6666 148.074 15.8 147.434 15.8C146.408 15.8 145.614 15.48 145.054 14.84C144.508 14.2 144.234 13.3333 144.234 12.24V6.39998H146.454V12ZM157.273 6.39998V15.6H155.133V6.39998H157.273ZM160.013 8.69998C159.813 8.53998 159.626 8.41998 159.453 8.33998C159.279 8.25998 159.059 8.21998 158.793 8.21998C158.433 8.21998 158.139 8.31331 157.913 8.49998C157.686 8.68664 157.519 8.94664 157.413 9.27998C157.319 9.59998 157.273 9.97998 157.273 10.42L156.553 9.99998C156.553 9.26664 156.686 8.61998 156.953 8.05998C157.233 7.48664 157.586 7.03331 158.013 6.69998C158.453 6.36664 158.906 6.19998 159.373 6.19998C159.706 6.19998 160.019 6.25331 160.313 6.35998C160.606 6.45331 160.853 6.62664 161.053 6.87998L160.013 8.69998ZM167.311 3.77998V1.59997H177.071V3.77998H173.371V15.6H170.991V3.77998H167.311ZM177.977 12.74C177.977 13.0466 178.05 13.3133 178.197 13.54C178.344 13.7533 178.544 13.9133 178.797 14.02C179.064 14.1266 179.364 14.18 179.697 14.18C180.124 14.18 180.51 14.0933 180.857 13.92C181.217 13.7466 181.504 13.4933 181.717 13.16C181.944 12.8133 182.057 12.4133 182.057 11.96L182.377 13.16C182.377 13.7466 182.204 14.24 181.857 14.64C181.524 15.0266 181.097 15.32 180.577 15.52C180.07 15.7066 179.55 15.8 179.017 15.8C178.444 15.8 177.91 15.6866 177.417 15.46C176.924 15.2333 176.53 14.9 176.237 14.46C175.944 14.02 175.797 13.4866 175.797 12.86C175.797 11.9666 176.11 11.26 176.737 10.74C177.364 10.2066 178.25 9.93998 179.397 9.93998C180.01 9.93998 180.537 10.0066 180.977 10.14C181.43 10.2733 181.804 10.4333 182.097 10.62C182.39 10.7933 182.597 10.9533 182.717 11.1V12.2C182.304 11.9066 181.864 11.6933 181.397 11.56C180.93 11.4266 180.437 11.36 179.917 11.36C179.464 11.36 179.097 11.42 178.817 11.54C178.537 11.6466 178.324 11.8 178.177 12C178.044 12.2 177.977 12.4466 177.977 12.74ZM177.297 8.79998L176.417 7.27998C176.83 7.02664 177.364 6.77998 178.017 6.53998C178.684 6.29998 179.444 6.17998 180.297 6.17998C181.057 6.17998 181.724 6.29331 182.297 6.51998C182.884 6.74664 183.344 7.07331 183.677 7.49997C184.01 7.91331 184.177 8.42664 184.177 9.03998V15.6H182.057V9.45998C182.057 9.16664 182.004 8.92664 181.897 8.73998C181.804 8.55331 181.67 8.39998 181.497 8.27998C181.324 8.15998 181.117 8.07331 180.877 8.01998C180.637 7.96664 180.377 7.93998 180.097 7.93998C179.67 7.93998 179.264 7.99331 178.877 8.09997C178.504 8.19331 178.177 8.31331 177.897 8.45998C177.63 8.59331 177.43 8.70664 177.297 8.79998ZM187.115 12.58C187.409 12.9 187.702 13.18 187.995 13.42C188.302 13.6466 188.609 13.82 188.915 13.94C189.222 14.0466 189.529 14.1 189.835 14.1C190.222 14.1 190.522 14.0133 190.735 13.84C190.962 13.6666 191.075 13.4266 191.075 13.12C191.075 12.8533 190.989 12.6266 190.815 12.44C190.642 12.24 190.402 12.0733 190.095 11.94C189.789 11.7933 189.429 11.6466 189.015 11.5C188.602 11.34 188.189 11.1533 187.775 10.94C187.375 10.7133 187.042 10.42 186.775 10.06C186.522 9.69998 186.395 9.24664 186.395 8.69998C186.395 8.13998 186.535 7.67331 186.815 7.29998C187.109 6.92664 187.495 6.65331 187.975 6.47997C188.469 6.29331 188.995 6.19998 189.555 6.19998C190.062 6.19998 190.535 6.27331 190.975 6.41998C191.429 6.56664 191.835 6.75998 192.195 6.99998C192.555 7.23998 192.862 7.51331 193.115 7.81998L191.915 9.09998C191.609 8.73998 191.242 8.44664 190.815 8.21998C190.389 7.99331 189.949 7.87998 189.495 7.87998C189.189 7.87998 188.935 7.94664 188.735 8.07998C188.535 8.21331 188.435 8.40664 188.435 8.65998C188.435 8.87331 188.522 9.06664 188.695 9.23998C188.882 9.39998 189.122 9.54664 189.415 9.67998C189.722 9.81331 190.062 9.95331 190.435 10.1C190.942 10.3 191.409 10.52 191.835 10.76C192.262 11 192.602 11.2933 192.855 11.64C193.122 11.9866 193.255 12.44 193.255 13C193.255 13.8666 192.955 14.5666 192.355 15.1C191.769 15.62 190.969 15.88 189.955 15.88C189.329 15.88 188.749 15.7866 188.215 15.6C187.695 15.4 187.235 15.1466 186.835 14.84C186.449 14.52 186.122 14.1866 185.855 13.84L187.115 12.58ZM195.092 -2.5034e-05H197.212V15.6H195.092V-2.5034e-05ZM200.592 6.39998H203.232L199.272 10.2L203.632 15.6H201.012L196.612 10.2L200.592 6.39998ZM223.91 10.98L227.19 1.59997H229.93L224.21 16.34L219.89 6.43997L215.57 16.34L209.85 1.59997H212.59L215.91 10.98L219.89 0.899975L223.91 10.98ZM231.381 2.73998C231.381 2.36664 231.514 2.05331 231.781 1.79997C232.061 1.54664 232.381 1.41997 232.741 1.41997C233.127 1.41997 233.447 1.54664 233.701 1.79997C233.967 2.05331 234.101 2.36664 234.101 2.73998C234.101 3.09997 233.967 3.41331 233.701 3.67998C233.447 3.93331 233.127 4.05998 232.741 4.05998C232.381 4.05998 232.061 3.93331 231.781 3.67998C231.514 3.41331 231.381 3.09997 231.381 2.73998ZM231.681 6.39998H233.801V15.6H231.681V6.39998ZM235.493 6.39998H240.713V8.29998H235.493V6.39998ZM237.033 3.19998H239.173V15.6H237.033V3.19998ZM244.363 -2.5034e-05V15.6H242.203V-2.5034e-05H244.363ZM248.123 9.99998C248.123 9.31998 247.983 8.80664 247.703 8.45998C247.436 8.11331 247.003 7.93998 246.403 7.93998C246.003 7.93998 245.65 8.02664 245.343 8.19998C245.036 8.37331 244.796 8.61331 244.623 8.91998C244.45 9.22664 244.363 9.58664 244.363 9.99998H243.843C243.843 9.26664 243.976 8.61331 244.243 8.03998C244.51 7.46664 244.883 7.00664 245.363 6.65998C245.856 6.31331 246.45 6.13998 247.143 6.13998C247.823 6.13998 248.396 6.27331 248.863 6.53998C249.343 6.80664 249.703 7.20664 249.943 7.73998C250.183 8.25998 250.303 8.91331 250.303 9.69998V15.6H248.123V9.99998Z" fill="#363636"/>
<path d="M96.0227 41.168L94.9427 50.6H91.3667L93.8627 32.96L100.895 43.808L107.927 32.96L110.423 50.6H106.847L105.767 41.168L100.895 49.04L96.0227 41.168ZM111.412 39.56H118.228V42.176H111.412V39.56ZM113.308 35.72H116.308V50.6H113.308V35.72ZM119.138 45.08C119.138 43.928 119.402 42.92 119.93 42.056C120.474 41.192 121.202 40.52 122.114 40.04C123.042 39.56 124.09 39.32 125.258 39.32C126.426 39.32 127.466 39.56 128.378 40.04C129.306 40.52 130.034 41.192 130.562 42.056C131.106 42.92 131.378 43.928 131.378 45.08C131.378 46.216 131.106 47.224 130.562 48.104C130.034 48.968 129.306 49.64 128.378 50.12C127.466 50.6 126.426 50.84 125.258 50.84C124.09 50.84 123.042 50.6 122.114 50.12C121.202 49.64 120.474 48.968 119.93 48.104C119.402 47.224 119.138 46.216 119.138 45.08ZM122.306 45.08C122.306 45.704 122.434 46.256 122.69 46.736C122.962 47.2 123.322 47.568 123.77 47.84C124.218 48.096 124.714 48.224 125.258 48.224C125.802 48.224 126.298 48.096 126.746 47.84C127.194 47.568 127.546 47.2 127.802 46.736C128.074 46.256 128.21 45.704 128.21 45.08C128.21 44.456 128.074 43.904 127.802 43.424C127.546 42.944 127.194 42.576 126.746 42.32C126.298 42.064 125.802 41.936 125.258 41.936C124.714 41.936 124.218 42.064 123.77 42.32C123.322 42.576 122.962 42.944 122.69 43.424C122.434 43.904 122.306 44.456 122.306 45.08ZM142.039 31.88H145.159V50.6H142.039V31.88ZM132.967 45.08C132.967 43.848 133.215 42.808 133.711 41.96C134.207 41.096 134.863 40.44 135.679 39.992C136.495 39.544 137.359 39.32 138.271 39.32C139.199 39.32 140.015 39.552 140.719 40.016C141.439 40.48 141.999 41.144 142.399 42.008C142.815 42.856 143.023 43.88 143.023 45.08C143.023 46.264 142.815 47.288 142.399 48.152C141.999 49.016 141.439 49.68 140.719 50.144C140.015 50.608 139.199 50.84 138.271 50.84C137.359 50.84 136.495 50.616 135.679 50.168C134.863 49.72 134.207 49.064 133.711 48.2C133.215 47.336 132.967 46.296 132.967 45.08ZM136.183 45.08C136.183 45.736 136.319 46.304 136.591 46.784C136.863 47.264 137.231 47.632 137.695 47.888C138.159 48.144 138.655 48.272 139.183 48.272C139.647 48.272 140.095 48.152 140.527 47.912C140.975 47.656 141.335 47.288 141.607 46.808C141.895 46.328 142.039 45.752 142.039 45.08C142.039 44.408 141.895 43.832 141.607 43.352C141.335 42.872 140.975 42.512 140.527 42.272C140.095 42.016 139.647 41.888 139.183 41.888C138.655 41.888 138.159 42.016 137.695 42.272C137.231 42.528 136.863 42.896 136.591 43.376C136.319 43.856 136.183 44.424 136.183 45.08ZM147.404 45.08C147.404 43.928 147.668 42.92 148.196 42.056C148.74 41.192 149.468 40.52 150.38 40.04C151.308 39.56 152.356 39.32 153.524 39.32C154.692 39.32 155.732 39.56 156.644 40.04C157.572 40.52 158.3 41.192 158.828 42.056C159.372 42.92 159.644 43.928 159.644 45.08C159.644 46.216 159.372 47.224 158.828 48.104C158.3 48.968 157.572 49.64 156.644 50.12C155.732 50.6 154.692 50.84 153.524 50.84C152.356 50.84 151.308 50.6 150.38 50.12C149.468 49.64 148.74 48.968 148.196 48.104C147.668 47.224 147.404 46.216 147.404 45.08ZM150.572 45.08C150.572 45.704 150.7 46.256 150.956 46.736C151.228 47.2 151.588 47.568 152.036 47.84C152.484 48.096 152.98 48.224 153.524 48.224C154.068 48.224 154.564 48.096 155.012 47.84C155.46 47.568 155.812 47.2 156.068 46.736C156.34 46.256 156.476 45.704 156.476 45.08C156.476 44.456 156.34 43.904 156.068 43.424C155.812 42.944 155.46 42.576 155.012 42.32C154.564 42.064 154.068 41.936 153.524 41.936C152.98 41.936 152.484 42.064 152.036 42.32C151.588 42.576 151.228 42.944 150.956 43.424C150.7 43.904 150.572 44.456 150.572 45.08Z" fill="#9BA3EB"/>
</svg>
