<svg width="50" height="50" viewBox="0 0 50 50" fill="none" xmlns="http://www.w3.org/2000/svg">
<circle cx="25" cy="25" r="25" fill="#F8F8F6"/>
<path d="M45.125 25C45.125 36.109 36.1191 45.125 25 45.125C13.8809 45.125 4.875 36.109 4.875 25C4.875 13.8809 13.8809 4.87499 25 4.87499C36.1191 4.87499 45.125 13.8809 45.125 25Z" fill="#283544"/>
<path d="M34.433 19.9075C34.3232 19.9716 31.7089 21.3236 31.7089 24.3213C31.8321 27.74 35.008 28.9389 35.0625 28.9389C35.008 29.003 34.583 30.5722 33.3241 32.217C32.325 33.6339 31.2161 35.0625 29.5321 35.0625C27.9303 35.0625 27.3553 34.1182 25.5071 34.1182C23.5223 34.1182 22.9607 35.0625 21.441 35.0625C19.7571 35.0625 18.566 33.5574 17.5125 32.1538C16.1437 30.3167 14.9803 27.4338 14.9392 24.6657C14.9116 23.1989 15.2133 21.757 15.9794 20.5323C17.0607 18.8226 18.991 17.6619 21.0991 17.6236C22.7143 17.5729 24.1518 18.657 25.1375 18.657C26.0821 18.657 27.8482 17.6236 29.8464 17.6236C30.7089 17.6245 33.0089 17.8666 34.433 19.9075ZM25.0009 17.3308C24.7134 15.9912 25.5071 14.6517 26.2464 13.7972C27.1911 12.7639 28.683 12.0625 29.9696 12.0625C30.0518 13.402 29.5312 14.7158 28.6009 15.6726C27.7661 16.7059 26.3285 17.4839 25.0009 17.3308Z" fill="white"/>
</svg>
