<svg width="50" height="50" viewBox="0 0 50 50" fill="none" xmlns="http://www.w3.org/2000/svg">
<circle cx="25" cy="25" r="25" fill="#F8F8F6"/>
<path d="M45 25.1222C45 14.009 36.0457 5 25 5C13.9543 5 5 14.009 5 25.1222C5 35.1658 12.3137 43.4904 21.875 45V30.9388H16.7969V25.1222H21.875V20.6891C21.875 15.6459 24.8609 12.8603 29.4293 12.8603C31.6175 12.8603 33.9063 13.2533 33.9063 13.2533V18.2052H31.3843C28.8998 18.2052 28.125 19.7563 28.125 21.3476V25.1222H33.6719L32.7852 30.9388H28.125V45C37.6863 43.4904 45 35.1658 45 25.1222Z" fill="#1877F2"/>
</svg>
