<svg width="50" height="50" viewBox="0 0 50 50" fill="none" xmlns="http://www.w3.org/2000/svg">
<circle cx="25" cy="25" r="25" fill="#F8F8F6"/>
<path d="M44.1895 24.9372C44.1895 23.3185 44.0554 22.1373 43.7654 20.9123H24.9038V28.2184H35.9751C35.752 30.0341 34.5466 32.7685 31.868 34.6059L31.8305 34.8505L37.7941 39.3781L38.2073 39.4185C42.0019 35.9841 44.1895 30.931 44.1895 24.9372Z" fill="#4285F4"/>
<path d="M24.9025 44.1875C30.3265 44.1875 34.88 42.4374 38.206 39.4187L31.8667 34.606C30.1703 35.7654 27.8935 36.5748 24.9025 36.5748C19.5901 36.5748 15.0812 33.1405 13.4739 28.3936L13.2383 28.4132L7.03721 33.1164L6.95612 33.3373C10.2596 39.7686 17.0453 44.1875 24.9025 44.1875Z" fill="#34A853"/>
<path d="M13.4751 28.3937C13.051 27.1687 12.8056 25.8561 12.8056 24.4999C12.8056 23.1436 13.051 21.8312 13.4528 20.6062L13.4416 20.3453L7.16272 15.5666L6.95729 15.6624C5.59574 18.3311 4.81448 21.3281 4.81448 24.4999C4.81448 27.6718 5.59574 30.6686 6.95729 33.3374L13.4751 28.3937Z" fill="#FBBC05"/>
<path d="M24.9026 12.4249C28.6749 12.4249 31.2195 14.0218 32.6704 15.3563L38.3401 9.93125C34.858 6.75938 30.3267 4.8125 24.9026 4.8125C17.0454 4.8125 10.2597 9.23121 6.95612 15.6624L13.4516 20.6062C15.0812 15.8594 19.5901 12.4249 24.9026 12.4249Z" fill="#EB4335"/>
</svg>
