<svg width="39" height="35" viewBox="0 0 39 35" fill="none" xmlns="http://www.w3.org/2000/svg">
<path fill-rule="evenodd" clip-rule="evenodd" d="M19.1196 2.98956C15.0499 -0.567048 9.03119 -1.29486 4.35724 2.69866C-0.698451 7.01836 -1.433 14.2934 2.56492 19.4379C4.08248 21.3907 7.04444 24.3244 9.89096 27.0112C12.7708 29.7294 15.644 32.298 17.0609 33.5528C17.0698 33.5607 17.0788 33.5687 17.088 33.5768C17.2212 33.6949 17.387 33.8419 17.5459 33.9616C17.7363 34.1049 18.0095 34.2829 18.3744 34.3917C18.8595 34.5365 19.381 34.5365 19.8661 34.3917C20.231 34.2829 20.5042 34.1049 20.6946 33.9616C20.8536 33.8419 21.0194 33.6949 21.1526 33.5768C21.1618 33.5687 21.1708 33.5607 21.1796 33.5528C22.5965 32.298 25.4697 29.7294 28.3496 27.0112C31.1961 24.3244 34.158 21.3907 35.6756 19.4379C39.6582 14.3132 39.0371 6.98201 33.8652 2.68341C29.1392 -1.2446 23.1847 -0.568402 19.1196 2.98956Z" fill="#7990F8"/>
</svg>
