<svg width="130" height="134" viewBox="0 0 130 134" fill="none" xmlns="http://www.w3.org/2000/svg">
<path d="M19.7308 125.5L0.5 106.269L19.7308 87.0385" fill="url(#paint0_linear_2_2)" fill-opacity="0.5"/>
<path d="M19.7308 125.5L0.5 106.269L19.7308 87.0385" stroke="#000001" stroke-linecap="round" stroke-linejoin="round"/>
<path d="M48.5767 125.5L67.8074 106.269L48.5767 87.0385" fill="url(#paint1_linear_2_2)" fill-opacity="0.5"/>
<path d="M48.5767 125.5L67.8074 106.269L48.5767 87.0385" stroke="#000001" stroke-linecap="round" stroke-linejoin="round"/>
<g filter="url(#filter0_d_2_2)">
<path d="M19.7307 67.8077V10.1154C19.7307 7.56523 20.7438 5.11952 22.547 3.31628C24.3502 1.51305 26.7959 0.5 29.3461 0.5H77.423L125.5 48.5769V115.885C125.5 118.435 124.487 120.88 122.684 122.684C120.88 124.487 118.435 125.5 115.884 125.5H87.0383" fill="url(#paint2_linear_2_2)" fill-opacity="0.5" shape-rendering="crispEdges"/>
<path d="M19.7307 67.8077V10.1154C19.7307 7.56523 20.7438 5.11952 22.547 3.31628C24.3502 1.51305 26.7959 0.5 29.3461 0.5H77.423L125.5 48.5769V115.885C125.5 118.435 124.487 120.88 122.684 122.684C120.88 124.487 118.435 125.5 115.884 125.5H87.0383" stroke="#000001" stroke-linecap="round" stroke-linejoin="round" shape-rendering="crispEdges"/>
</g>
<g filter="url(#filter1_d_2_2)">
<path d="M77.4232 0.5V48.5769H125.5" fill="url(#paint3_linear_2_2)" fill-opacity="0.5" shape-rendering="crispEdges"/>
<path d="M77.4232 0.5V48.5769H125.5" stroke="#000001" stroke-linecap="round" stroke-linejoin="round" shape-rendering="crispEdges"/>
<path d="M77.4232 0.5V48.5769H125.5" stroke="#040000" stroke-linecap="round" stroke-linejoin="round" shape-rendering="crispEdges"/>
</g>
<defs>
<filter id="filter0_d_2_2" x="15.2307" y="0" width="114.769" height="134" filterUnits="userSpaceOnUse" color-interpolation-filters="sRGB">
<feFlood flood-opacity="0" result="BackgroundImageFix"/>
<feColorMatrix in="SourceAlpha" type="matrix" values="0 0 0 0 0 0 0 0 0 0 0 0 0 0 0 0 0 0 127 0" result="hardAlpha"/>
<feOffset dy="4"/>
<feGaussianBlur stdDeviation="2"/>
<feComposite in2="hardAlpha" operator="out"/>
<feColorMatrix type="matrix" values="0 0 0 0 0 0 0 0 0 0 0 0 0 0 0 0 0 0 0.25 0"/>
<feBlend mode="normal" in2="BackgroundImageFix" result="effect1_dropShadow_2_2"/>
<feBlend mode="normal" in="SourceGraphic" in2="effect1_dropShadow_2_2" result="shape"/>
</filter>
<filter id="filter1_d_2_2" x="72.9232" y="0" width="57.0769" height="57.0769" filterUnits="userSpaceOnUse" color-interpolation-filters="sRGB">
<feFlood flood-opacity="0" result="BackgroundImageFix"/>
<feColorMatrix in="SourceAlpha" type="matrix" values="0 0 0 0 0 0 0 0 0 0 0 0 0 0 0 0 0 0 127 0" result="hardAlpha"/>
<feOffset dy="4"/>
<feGaussianBlur stdDeviation="2"/>
<feComposite in2="hardAlpha" operator="out"/>
<feColorMatrix type="matrix" values="0 0 0 0 0 0 0 0 0 0 0 0 0 0 0 0 0 0 0.25 0"/>
<feBlend mode="normal" in2="BackgroundImageFix" result="effect1_dropShadow_2_2"/>
<feBlend mode="normal" in="SourceGraphic" in2="effect1_dropShadow_2_2" result="shape"/>
</filter>
<linearGradient id="paint0_linear_2_2" x1="10.1154" y1="87.0385" x2="10.1154" y2="125.5" gradientUnits="userSpaceOnUse">
<stop stop-color="white"/>
<stop offset="0.0001" stop-color="#605DEF"/>
<stop offset="0.505208" stop-color="#78B0F1"/>
<stop offset="1" stop-color="#A6F8FF"/>
</linearGradient>
<linearGradient id="paint1_linear_2_2" x1="58.192" y1="87.0385" x2="58.192" y2="125.5" gradientUnits="userSpaceOnUse">
<stop stop-color="white"/>
<stop offset="0.0001" stop-color="#605DEF"/>
<stop offset="0.505208" stop-color="#78B0F1"/>
<stop offset="1" stop-color="#A6F8FF"/>
</linearGradient>
<linearGradient id="paint2_linear_2_2" x1="72.6153" y1="0.5" x2="72.6153" y2="125.5" gradientUnits="userSpaceOnUse">
<stop stop-color="white"/>
<stop offset="0.0001" stop-color="#605DEF"/>
<stop offset="0.505208" stop-color="#78B0F1"/>
<stop offset="1" stop-color="#A6F8FF"/>
</linearGradient>
<linearGradient id="paint3_linear_2_2" x1="101.462" y1="0.5" x2="101.462" y2="48.5769" gradientUnits="userSpaceOnUse">
<stop stop-color="white"/>
<stop offset="0.0001" stop-color="#605DEF"/>
<stop offset="0.505208" stop-color="#78B0F1"/>
<stop offset="1" stop-color="#A6F8FF"/>
</linearGradient>
</defs>
</svg>
