<svg width="40" height="39" viewBox="0 0 40 39" fill="none" xmlns="http://www.w3.org/2000/svg">
<path fill-rule="evenodd" clip-rule="evenodd" d="M28.7596 2.15018C27.0941 0.218053 24.3687 -0.690229 21.6535 0.605545C18.4966 2.11205 17.1161 5.72976 18.4553 8.9076C19.129 10.5062 20.9516 13.4218 22.1534 15.2891C22.1628 15.3036 22.1721 15.3181 22.1814 15.3326C22.3843 15.648 22.589 15.966 22.7885 16.2263C23.0145 16.5212 23.3025 16.8363 23.7109 17.0905C24.288 17.4496 24.9843 17.6362 25.6637 17.6138C26.1445 17.5979 26.5514 17.4689 26.8946 17.3265C27.1975 17.2009 27.5338 17.0278 27.8672 16.8561C27.8825 16.8482 27.8978 16.8403 27.9132 16.8324C29.8876 15.8162 32.9239 14.2025 34.3066 13.1549C37.0354 11.0876 37.7274 7.24957 35.6744 4.34665C33.9463 1.90315 31.1642 1.30951 28.7596 2.15018Z" fill="#BC5EAD"/>
<path d="M29.0613 25.7823C29.0613 27.1585 28.151 28.3225 26.8961 28.7116L27.703 28.6742C28.5848 28.6742 29.4421 28.3969 30.1468 27.8818L35.0669 24.2922C36.2949 23.3967 38.0138 23.5156 39.0992 24.5715C40.3048 25.7443 40.3048 27.6441 39.0992 28.8148L34.8776 32.9215C33.7412 34.0269 32.2912 34.7817 30.715 35.0888L24.748 36.2497C23.5648 36.4795 22.345 36.4517 21.174 36.1665L15.7773 34.855C15.1317 34.6965 14.4698 34.6173 13.8039 34.6173C13.0969 34.6173 12.7434 34.6173 12.4598 34.516C11.9685 34.3407 11.5819 33.9541 11.4065 33.4628C11.3053 33.1792 11.3053 32.8257 11.3053 32.1187V26.1545C11.3053 25.6573 11.3053 25.4088 11.3691 25.1797C11.4256 24.9768 11.5186 24.7858 11.6434 24.6161C11.7843 24.4246 11.9799 24.2712 12.3711 23.9645L14.4332 22.3478C14.4332 22.3478 17.8504 20.75 19.7382 20.75C20.5203 20.75 21.2982 20.8452 22.0578 21.0335L26.7255 22.1939C28.0981 22.5341 29.0613 23.7613 29.0613 25.1687V25.7823Z" fill="#BC5EAD"/>
<path fill-rule="evenodd" clip-rule="evenodd" d="M4.30215 20.75C4.31748 20.75 4.33282 20.75 4.34818 20.75C4.36355 20.75 4.3789 20.75 4.39423 20.75C4.75955 20.75 5.11545 20.7499 5.41823 20.7706C5.74934 20.7932 6.14193 20.8462 6.549 21.0148C7.40134 21.3678 8.07852 22.045 8.43157 22.8974C8.60018 23.3044 8.65318 23.697 8.67577 24.0281C8.69643 24.3309 8.6964 24.6868 8.69636 25.0521C8.69636 25.0675 8.69636 25.0828 8.69636 25.0982L8.69636 33.8406C8.6964 34.2059 8.69643 34.5618 8.67577 34.8646C8.65318 35.1957 8.60018 35.5883 8.43157 35.9953C8.07852 36.8477 7.40134 37.5249 6.549 37.8779C6.14193 38.0465 5.74933 38.0995 5.41823 38.1221C5.11545 38.1428 4.75956 38.1427 4.39424 38.1427H4.30213C3.9368 38.1427 3.58091 38.1428 3.27813 38.1221C2.94703 38.0995 2.55443 38.0465 2.14737 37.8779C1.29503 37.5249 0.617845 36.8477 0.264794 35.9953C0.0961827 35.5883 0.0431808 35.1957 0.0205895 34.8646C-6.88862e-05 34.5618 -3.3432e-05 34.2059 3.05934e-06 33.8406L6.06573e-06 25.0982C6.06573e-06 25.0828 4.5107e-06 25.0675 3.05934e-06 25.0521C-3.3432e-05 24.6868 -6.88862e-05 24.3309 0.0205896 24.0281C0.0431809 23.697 0.0961829 23.3044 0.264794 22.8974C0.617845 22.045 1.29503 21.3678 2.14737 21.0148C2.55443 20.8462 2.94703 20.7932 3.27814 20.7706C3.58092 20.7499 3.93682 20.75 4.30215 20.75Z" fill="#BC5EAD"/>
</svg>
