<svg width="57" height="16" viewBox="0 0 57 16" fill="none" xmlns="http://www.w3.org/2000/svg">
<path d="M3.88003 7.73998L2.98003 15.6H2.93404e-05L2.08003 0.899975L7.94003 9.93998L13.8 0.899975L15.88 15.6H12.9L12 7.73998L7.94003 14.3L3.88003 7.73998ZM16.7042 6.39998H22.3842V8.57998H16.7042V6.39998ZM18.2842 3.19998H20.7842V15.6H18.2842V3.19998ZM23.1432 11C23.1432 10.04 23.3632 9.19998 23.8032 8.47998C24.2565 7.75998 24.8632 7.19998 25.6232 6.79998C26.3965 6.39998 27.2698 6.19998 28.2432 6.19998C29.2165 6.19998 30.0832 6.39998 30.8432 6.79998C31.6165 7.19998 32.2232 7.75998 32.6632 8.47998C33.1165 9.19998 33.3432 10.04 33.3432 11C33.3432 11.9466 33.1165 12.7866 32.6632 13.52C32.2232 14.24 31.6165 14.8 30.8432 15.2C30.0832 15.6 29.2165 15.8 28.2432 15.8C27.2698 15.8 26.3965 15.6 25.6232 15.2C24.8632 14.8 24.2565 14.24 23.8032 13.52C23.3632 12.7866 23.1432 11.9466 23.1432 11ZM25.7832 11C25.7832 11.52 25.8898 11.98 26.1032 12.38C26.3298 12.7666 26.6298 13.0733 27.0032 13.3C27.3765 13.5133 27.7898 13.62 28.2432 13.62C28.6965 13.62 29.1098 13.5133 29.4832 13.3C29.8565 13.0733 30.1498 12.7666 30.3632 12.38C30.5898 11.98 30.7032 11.52 30.7032 11C30.7032 10.48 30.5898 10.02 30.3632 9.61998C30.1498 9.21998 29.8565 8.91331 29.4832 8.69998C29.1098 8.48664 28.6965 8.37997 28.2432 8.37997C27.7898 8.37997 27.3765 8.48664 27.0032 8.69998C26.6298 8.91331 26.3298 9.21998 26.1032 9.61998C25.8898 10.02 25.7832 10.48 25.7832 11ZM42.2266 -2.5034e-05H44.8266V15.6H42.2266V-2.5034e-05ZM34.6666 11C34.6666 9.97331 34.8733 9.10664 35.2866 8.39998C35.6999 7.67998 36.2466 7.13331 36.9266 6.75997C37.6066 6.38664 38.3266 6.19998 39.0866 6.19998C39.8599 6.19998 40.5399 6.39331 41.1266 6.77998C41.7266 7.16664 42.1933 7.71998 42.5266 8.43998C42.8733 9.14664 43.0466 9.99998 43.0466 11C43.0466 11.9866 42.8733 12.84 42.5266 13.56C42.1933 14.28 41.7266 14.8333 41.1266 15.22C40.5399 15.6066 39.8599 15.8 39.0866 15.8C38.3266 15.8 37.6066 15.6133 36.9266 15.24C36.2466 14.8666 35.6999 14.32 35.2866 13.6C34.8733 12.88 34.6666 12.0133 34.6666 11ZM37.3466 11C37.3466 11.5466 37.4599 12.02 37.6866 12.42C37.9133 12.82 38.2199 13.1266 38.6066 13.34C38.9933 13.5533 39.4066 13.66 39.8466 13.66C40.2333 13.66 40.6066 13.56 40.9666 13.36C41.3399 13.1466 41.6399 12.84 41.8666 12.44C42.1066 12.04 42.2266 11.56 42.2266 11C42.2266 10.44 42.1066 9.95998 41.8666 9.55998C41.6399 9.15998 41.3399 8.85998 40.9666 8.65998C40.6066 8.44664 40.2333 8.33998 39.8466 8.33998C39.4066 8.33998 38.9933 8.44664 38.6066 8.65998C38.2199 8.87331 37.9133 9.17997 37.6866 9.57998C37.4599 9.97998 37.3466 10.4533 37.3466 11ZM46.6978 11C46.6978 10.04 46.9178 9.19998 47.3578 8.47998C47.8112 7.75998 48.4178 7.19998 49.1778 6.79998C49.9512 6.39998 50.8245 6.19998 51.7978 6.19998C52.7712 6.19998 53.6378 6.39998 54.3978 6.79998C55.1712 7.19998 55.7778 7.75998 56.2178 8.47998C56.6712 9.19998 56.8978 10.04 56.8978 11C56.8978 11.9466 56.6712 12.7866 56.2178 13.52C55.7778 14.24 55.1712 14.8 54.3978 15.2C53.6378 15.6 52.7712 15.8 51.7978 15.8C50.8245 15.8 49.9512 15.6 49.1778 15.2C48.4178 14.8 47.8112 14.24 47.3578 13.52C46.9178 12.7866 46.6978 11.9466 46.6978 11ZM49.3378 11C49.3378 11.52 49.4445 11.98 49.6578 12.38C49.8845 12.7666 50.1845 13.0733 50.5578 13.3C50.9312 13.5133 51.3445 13.62 51.7978 13.62C52.2512 13.62 52.6645 13.5133 53.0378 13.3C53.4112 13.0733 53.7045 12.7666 53.9178 12.38C54.1445 11.98 54.2578 11.52 54.2578 11C54.2578 10.48 54.1445 10.02 53.9178 9.61998C53.7045 9.21998 53.4112 8.91331 53.0378 8.69998C52.6645 8.48664 52.2512 8.37997 51.7978 8.37997C51.3445 8.37997 50.9312 8.48664 50.5578 8.69998C50.1845 8.91331 49.8845 9.21998 49.6578 9.61998C49.4445 10.02 49.3378 10.48 49.3378 11Z" fill="#9BA3EB"/>
</svg>
