<svg width="39" height="35" viewBox="0 0 39 35" fill="none" xmlns="http://www.w3.org/2000/svg">
<path fill-rule="evenodd" clip-rule="evenodd" d="M1.38632e-06 7.23827C-2.81753e-05 6.32145 -5.36744e-05 5.53044 0.0531731 4.87898C0.109353 4.19137 0.233391 3.50745 0.568712 2.84935C1.06896 1.86755 1.86718 1.06933 2.84898 0.569082C3.50708 0.233761 4.191 0.109723 4.87861 0.053543C5.53009 0.00031488 6.32104 0.000341711 7.23789 0.000372812L14.1692 0.000184964C15.2016 -0.00117828 16.1095 -0.0023773 16.9442 0.285553C17.6754 0.537741 18.3413 0.949313 18.8939 1.49049C19.5247 2.10836 19.9296 2.92091 20.3901 3.84489L21.946 6.95708H28.248C29.6481 6.95706 30.8036 6.95704 31.7449 7.03395C32.7225 7.11382 33.6212 7.28525 34.4653 7.71536C35.7744 8.38236 36.8387 9.44666 37.5057 10.7557C37.9358 11.5998 38.1072 12.4985 38.1871 13.4762C38.264 14.4174 38.264 15.5729 38.2639 16.973V24.7695C38.264 26.1696 38.264 27.325 38.1871 28.2663C38.1072 29.244 37.9358 30.1426 37.5057 30.9868C36.8387 32.2958 35.7744 33.3601 34.4653 34.0271C33.6212 34.4572 32.7225 34.6287 31.7449 34.7085C30.8036 34.7855 29.6481 34.7854 28.248 34.7854H10.016C8.61592 34.7854 7.46038 34.7855 6.51909 34.7085C5.54145 34.6287 4.64277 34.4572 3.79864 34.0271C2.48958 33.3601 1.42528 32.2958 0.75828 30.9868C0.328174 30.1426 0.156744 29.244 0.0768677 28.2663C-3.76576e-05 27.325 -2.00045e-05 26.1695 1.38632e-06 24.7695V7.23827ZM13.9529 3.47892C15.3277 3.47892 15.6002 3.50161 15.81 3.57397C16.0537 3.65804 16.2757 3.79523 16.4599 3.97562C16.6184 4.13091 16.7606 4.36449 17.3754 5.59409L18.0569 6.95708L3.47867 6.95708C3.47944 6.14834 3.48476 5.59551 3.52016 5.16224C3.55877 4.68975 3.6243 4.51457 3.66811 4.42857C3.83486 4.10131 4.10094 3.83523 4.4282 3.66848C4.5142 3.62467 4.68938 3.55914 5.16187 3.52053C5.65467 3.48027 6.30216 3.47892 7.30494 3.47892H13.9529Z" fill="#908986"/>
</svg>
