<svg width="56" height="56" viewBox="0 0 56 56" fill="none" xmlns="http://www.w3.org/2000/svg">
<path d="M27.9998 51.3333C40.8865 51.3333 51.3332 40.8866 51.3332 28C51.3332 15.1133 40.8865 4.66663 27.9998 4.66663C15.1132 4.66663 4.6665 15.1133 4.6665 28C4.6665 40.8866 15.1132 51.3333 27.9998 51.3333Z" stroke="white" stroke-width="3.5" stroke-linecap="round" stroke-linejoin="round"/>
<path d="M28 42C35.732 42 42 35.732 42 28C42 20.268 35.732 14 28 14C20.268 14 14 20.268 14 28C14 35.732 20.268 42 28 42Z" stroke="white" stroke-width="3.5" stroke-linecap="round" stroke-linejoin="round"/>
<path d="M28.0002 32.6667C30.5775 32.6667 32.6668 30.5774 32.6668 28C32.6668 25.4227 30.5775 23.3334 28.0002 23.3334C25.4228 23.3334 23.3335 25.4227 23.3335 28C23.3335 30.5774 25.4228 32.6667 28.0002 32.6667Z" stroke="white" stroke-width="3.5" stroke-linecap="round" stroke-linejoin="round"/>
</svg>
