<svg width="238" height="37" viewBox="0 0 238 37" fill="none" xmlns="http://www.w3.org/2000/svg">
<path d="M27.5 0.650003V7.55H17.2V35.65H10.3V7.55H1.41561e-07V0.650003H27.5ZM46.7422 36.3C44.3755 36.3 42.1505 35.8333 40.0672 34.9C37.9839 33.95 36.1505 32.6417 34.5672 30.975C32.9839 29.3083 31.7422 27.3833 30.8422 25.2C29.9422 23 29.4922 20.65 29.4922 18.15C29.4922 15.65 29.9422 13.3083 30.8422 11.125C31.7422 8.925 32.9839 6.99167 34.5672 5.325C36.1505 3.65834 37.9839 2.35834 40.0672 1.425C42.1505 0.475003 44.3755 2.38419e-06 46.7422 2.38419e-06C49.1255 2.38419e-06 51.3589 0.475003 53.4422 1.425C55.5255 2.35834 57.3589 3.65834 58.9422 5.325C60.5255 6.99167 61.7589 8.925 62.6422 11.125C63.5422 13.3083 63.9922 15.65 63.9922 18.15C63.9922 20.65 63.5422 23 62.6422 25.2C61.7589 27.3833 60.5255 29.3083 58.9422 30.975C57.3589 32.6417 55.5255 33.95 53.4422 34.9C51.3589 35.8333 49.1255 36.3 46.7422 36.3ZM46.7422 29.4C48.1589 29.4 49.4922 29.1083 50.7422 28.525C51.9922 27.925 53.0922 27.1083 54.0422 26.075C54.9922 25.0417 55.7339 23.85 56.2672 22.5C56.8172 21.15 57.0922 19.7 57.0922 18.15C57.0922 16.6 56.8172 15.15 56.2672 13.8C55.7339 12.4333 54.9922 11.2417 54.0422 10.225C53.0922 9.19167 51.9922 8.38334 50.7422 7.8C49.4922 7.2 48.1589 6.9 46.7422 6.9C45.3255 6.9 43.9922 7.2 42.7422 7.8C41.4922 8.38334 40.3922 9.19167 39.4422 10.225C38.4922 11.2583 37.7422 12.45 37.1922 13.8C36.6589 15.15 36.3922 16.6 36.3922 18.15C36.3922 19.7 36.6589 21.1583 37.1922 22.525C37.7422 23.875 38.4922 25.0667 39.4422 26.1C40.3922 27.1167 41.4922 27.925 42.7422 28.525C43.9922 29.1083 45.3255 29.4 46.7422 29.4ZM68.3828 35.65V0.650003H79.9828C82.3995 0.650003 84.6578 1.10834 86.7578 2.025C88.8745 2.925 90.7328 4.18334 92.3328 5.80001C93.9495 7.4 95.2078 9.25834 96.1078 11.375C97.0245 13.475 97.4828 15.7333 97.4828 18.15C97.4828 20.5667 97.0245 22.8333 96.1078 24.95C95.2078 27.05 93.9495 28.9083 92.3328 30.525C90.7328 32.125 88.8745 33.3833 86.7578 34.3C84.6578 35.2 82.3995 35.65 79.9828 35.65H68.3828ZM75.2828 28.75H79.9828C81.4161 28.75 82.7661 28.475 84.0328 27.925C85.3161 27.375 86.4495 26.6167 87.4328 25.65C88.4161 24.6833 89.1828 23.5583 89.7328 22.275C90.2995 20.9917 90.5828 19.6167 90.5828 18.15C90.5828 16.6833 90.2995 15.3167 89.7328 14.05C89.1828 12.7667 88.4161 11.6417 87.4328 10.675C86.4661 9.69167 85.3411 8.925 84.0578 8.375C82.7911 7.825 81.4328 7.55 79.9828 7.55H75.2828V28.75ZM117.738 36.3C115.372 36.3 113.147 35.8333 111.063 34.9C108.98 33.95 107.147 32.6417 105.563 30.975C103.98 29.3083 102.738 27.3833 101.838 25.2C100.938 23 100.488 20.65 100.488 18.15C100.488 15.65 100.938 13.3083 101.838 11.125C102.738 8.925 103.98 6.99167 105.563 5.325C107.147 3.65834 108.98 2.35834 111.063 1.425C113.147 0.475003 115.372 2.38419e-06 117.738 2.38419e-06C120.122 2.38419e-06 122.355 0.475003 124.438 1.425C126.522 2.35834 128.355 3.65834 129.938 5.325C131.522 6.99167 132.755 8.925 133.638 11.125C134.538 13.3083 134.988 15.65 134.988 18.15C134.988 20.65 134.538 23 133.638 25.2C132.755 27.3833 131.522 29.3083 129.938 30.975C128.355 32.6417 126.522 33.95 124.438 34.9C122.355 35.8333 120.122 36.3 117.738 36.3ZM117.738 29.4C119.155 29.4 120.488 29.1083 121.738 28.525C122.988 27.925 124.088 27.1083 125.038 26.075C125.988 25.0417 126.73 23.85 127.263 22.5C127.813 21.15 128.088 19.7 128.088 18.15C128.088 16.6 127.813 15.15 127.263 13.8C126.73 12.4333 125.988 11.2417 125.038 10.225C124.088 9.19167 122.988 8.38334 121.738 7.8C120.488 7.2 119.155 6.9 117.738 6.9C116.322 6.9 114.988 7.2 113.738 7.8C112.488 8.38334 111.388 9.19167 110.438 10.225C109.488 11.2583 108.738 12.45 108.188 13.8C107.655 15.15 107.388 16.6 107.388 18.15C107.388 19.7 107.655 21.1583 108.188 22.525C108.738 23.875 109.488 25.0667 110.438 26.1C111.388 27.1167 112.488 27.925 113.738 28.525C114.988 29.1083 116.322 29.4 117.738 29.4ZM139.379 35.65V0.650003H146.279V28.75H160.379V35.65H139.379ZM166.643 35.65V0.650003H173.543V35.65H166.643ZM193.022 36.3C191.055 36.3 189.172 35.9917 187.372 35.375C185.589 34.7583 184.022 33.8667 182.672 32.7C181.339 31.5333 180.38 30.15 179.797 28.55L186.272 26.15C186.472 26.7167 186.889 27.25 187.522 27.75C188.155 28.2333 188.947 28.6333 189.897 28.95C190.847 29.25 191.889 29.4 193.022 29.4C194.105 29.4 195.122 29.2417 196.072 28.925C197.039 28.5917 197.814 28.1333 198.397 27.55C198.997 26.9667 199.297 26.2833 199.297 25.5C199.297 24.7167 198.989 24.0667 198.372 23.55C197.755 23.0333 196.964 22.625 195.997 22.325C195.03 22.0083 194.039 21.7667 193.022 21.6C190.505 21.2333 188.247 20.6417 186.247 19.825C184.264 18.9917 182.697 17.85 181.547 16.4C180.397 14.9333 179.822 13.075 179.822 10.825C179.822 8.65834 180.43 6.76667 181.647 5.15C182.88 3.53334 184.497 2.275 186.497 1.375C188.514 0.475004 190.689 0.0250036 193.022 0.0250036C194.955 0.0250036 196.822 0.333337 198.622 0.950005C200.422 1.56667 201.989 2.45834 203.322 3.625C204.672 4.79167 205.639 6.19167 206.222 7.825L199.747 10.175C199.547 9.60834 199.13 9.08334 198.497 8.6C197.864 8.11667 197.072 7.725 196.122 7.425C195.172 7.125 194.139 6.975 193.022 6.975C191.955 6.95834 190.939 7.11667 189.972 7.45C189.022 7.78334 188.239 8.24167 187.622 8.825C187.022 9.40834 186.722 10.075 186.722 10.825C186.722 11.8083 187.005 12.55 187.572 13.05C188.155 13.55 188.922 13.9083 189.872 14.125C190.822 14.3417 191.872 14.5333 193.022 14.7C195.389 15.05 197.572 15.675 199.572 16.575C201.572 17.4583 203.172 18.6417 204.372 20.125C205.589 21.5917 206.197 23.3833 206.197 25.5C206.197 27.6667 205.589 29.5583 204.372 31.175C203.155 32.7917 201.547 34.05 199.547 34.95C197.547 35.85 195.372 36.3 193.022 36.3ZM237.217 0.650003V7.55H226.917V35.65H220.017V7.55H209.717V0.650003H237.217Z" fill="url(#paint0_linear_3_7)"/>
<defs>
<linearGradient id="paint0_linear_3_7" x1="102.5" y1="-31.85" x2="185.5" y2="72.65" gradientUnits="userSpaceOnUse">
<stop stop-color="#605DEF"/>
<stop offset="0.479167" stop-color="#78B0F1"/>
<stop offset="1" stop-color="#A6F8FF"/>
</linearGradient>
</defs>
</svg>
