<svg width="188" height="37" viewBox="0 0 188 37" fill="none" xmlns="http://www.w3.org/2000/svg">
<path d="M27.5 0.650001V7.55H17.2V35.65H10.3V7.55H1.41561e-07V0.650001H27.5ZM46.7422 36.3C44.3755 36.3 42.1505 35.8333 40.0672 34.9C37.9839 33.95 36.1505 32.6417 34.5672 30.975C32.9839 29.3083 31.7422 27.3833 30.8422 25.2C29.9422 23 29.4922 20.65 29.4922 18.15C29.4922 15.65 29.9422 13.3083 30.8422 11.125C31.7422 8.925 32.9839 6.99167 34.5672 5.325C36.1505 3.65833 37.9839 2.35833 40.0672 1.425C42.1505 0.475001 44.3755 4.76837e-07 46.7422 4.76837e-07C49.1255 4.76837e-07 51.3589 0.475001 53.4422 1.425C55.5255 2.35833 57.3589 3.65833 58.9422 5.325C60.5255 6.99167 61.7589 8.925 62.6422 11.125C63.5422 13.3083 63.9922 15.65 63.9922 18.15C63.9922 20.65 63.5422 23 62.6422 25.2C61.7589 27.3833 60.5255 29.3083 58.9422 30.975C57.3589 32.6417 55.5255 33.95 53.4422 34.9C51.3589 35.8333 49.1255 36.3 46.7422 36.3ZM46.7422 29.4C48.1589 29.4 49.4922 29.1083 50.7422 28.525C51.9922 27.925 53.0922 27.1083 54.0422 26.075C54.9922 25.0417 55.7339 23.85 56.2672 22.5C56.8172 21.15 57.0922 19.7 57.0922 18.15C57.0922 16.6 56.8172 15.15 56.2672 13.8C55.7339 12.4333 54.9922 11.2417 54.0422 10.225C53.0922 9.19167 51.9922 8.38334 50.7422 7.8C49.4922 7.2 48.1589 6.9 46.7422 6.9C45.3255 6.9 43.9922 7.2 42.7422 7.8C41.4922 8.38334 40.3922 9.19167 39.4422 10.225C38.4922 11.2583 37.7422 12.45 37.1922 13.8C36.6589 15.15 36.3922 16.6 36.3922 18.15C36.3922 19.7 36.6589 21.1583 37.1922 22.525C37.7422 23.875 38.4922 25.0667 39.4422 26.1C40.3922 27.1167 41.4922 27.925 42.7422 28.525C43.9922 29.1083 45.3255 29.4 46.7422 29.4ZM68.3828 35.65V0.650001H79.9828C82.3995 0.650001 84.6578 1.10833 86.7578 2.025C88.8745 2.925 90.7328 4.18334 92.3328 5.8C93.9495 7.4 95.2078 9.25834 96.1078 11.375C97.0245 13.475 97.4828 15.7333 97.4828 18.15C97.4828 20.5667 97.0245 22.8333 96.1078 24.95C95.2078 27.05 93.9495 28.9083 92.3328 30.525C90.7328 32.125 88.8745 33.3833 86.7578 34.3C84.6578 35.2 82.3995 35.65 79.9828 35.65H68.3828ZM75.2828 28.75H79.9828C81.4161 28.75 82.7661 28.475 84.0328 27.925C85.3161 27.375 86.4495 26.6167 87.4328 25.65C88.4161 24.6833 89.1828 23.5583 89.7328 22.275C90.2995 20.9917 90.5828 19.6167 90.5828 18.15C90.5828 16.6833 90.2995 15.3167 89.7328 14.05C89.1828 12.7667 88.4161 11.6417 87.4328 10.675C86.4661 9.69167 85.3411 8.925 84.0578 8.375C82.7911 7.825 81.4328 7.55 79.9828 7.55H75.2828V28.75ZM117.738 36.3C115.372 36.3 113.147 35.8333 111.063 34.9C108.98 33.95 107.147 32.6417 105.563 30.975C103.98 29.3083 102.738 27.3833 101.838 25.2C100.938 23 100.488 20.65 100.488 18.15C100.488 15.65 100.938 13.3083 101.838 11.125C102.738 8.925 103.98 6.99167 105.563 5.325C107.147 3.65833 108.98 2.35833 111.063 1.425C113.147 0.475001 115.372 4.76837e-07 117.738 4.76837e-07C120.122 4.76837e-07 122.355 0.475001 124.438 1.425C126.522 2.35833 128.355 3.65833 129.938 5.325C131.522 6.99167 132.755 8.925 133.638 11.125C134.538 13.3083 134.988 15.65 134.988 18.15C134.988 20.65 134.538 23 133.638 25.2C132.755 27.3833 131.522 29.3083 129.938 30.975C128.355 32.6417 126.522 33.95 124.438 34.9C122.355 35.8333 120.122 36.3 117.738 36.3ZM117.738 29.4C119.155 29.4 120.488 29.1083 121.738 28.525C122.988 27.925 124.088 27.1083 125.038 26.075C125.988 25.0417 126.73 23.85 127.263 22.5C127.813 21.15 128.088 19.7 128.088 18.15C128.088 16.6 127.813 15.15 127.263 13.8C126.73 12.4333 125.988 11.2417 125.038 10.225C124.088 9.19167 122.988 8.38334 121.738 7.8C120.488 7.2 119.155 6.9 117.738 6.9C116.322 6.9 114.988 7.2 113.738 7.8C112.488 8.38334 111.388 9.19167 110.438 10.225C109.488 11.2583 108.738 12.45 108.188 13.8C107.655 15.15 107.388 16.6 107.388 18.15C107.388 19.7 107.655 21.1583 108.188 22.525C108.738 23.875 109.488 25.0667 110.438 26.1C111.388 27.1167 112.488 27.925 113.738 28.525C114.988 29.1083 116.322 29.4 117.738 29.4ZM139.477 10.65H146.377V35.65H139.477V10.65ZM142.977 7.775C141.977 7.775 141.135 7.44167 140.452 6.775C139.768 6.10834 139.427 5.28334 139.427 4.3C139.427 3.31667 139.768 2.49167 140.452 1.825C141.135 1.15834 141.968 0.825003 142.952 0.825003C143.935 0.825003 144.76 1.15834 145.427 1.825C146.11 2.49167 146.452 3.31667 146.452 4.3C146.452 5.28334 146.118 6.10834 145.452 6.775C144.802 7.44167 143.977 7.775 142.977 7.775ZM159.154 36.1C157.871 36 156.637 35.7333 155.454 35.3C154.271 34.85 153.212 34.25 152.279 33.5C151.362 32.7333 150.646 31.8167 150.129 30.75L155.929 28.25C156.112 28.5167 156.387 28.8083 156.754 29.125C157.121 29.425 157.562 29.6917 158.079 29.925C158.612 30.1583 159.229 30.275 159.929 30.275C160.446 30.275 160.946 30.2167 161.429 30.1C161.912 29.9667 162.304 29.7583 162.604 29.475C162.904 29.175 163.054 28.7833 163.054 28.3C163.054 27.7667 162.862 27.3583 162.479 27.075C162.096 26.7917 161.629 26.5833 161.079 26.45C160.546 26.3 160.029 26.175 159.529 26.075C157.996 25.8083 156.546 25.3333 155.179 24.65C153.829 23.95 152.729 23.05 151.879 21.95C151.029 20.85 150.604 19.5333 150.604 18C150.604 16.3167 151.046 14.8667 151.929 13.65C152.812 12.4167 153.962 11.4667 155.379 10.8C156.796 10.1333 158.329 9.8 159.979 9.8C161.929 9.8 163.737 10.2083 165.404 11.025C167.071 11.8417 168.412 12.9917 169.429 14.475L163.979 17.7C163.762 17.3833 163.479 17.0833 163.129 16.8C162.796 16.5 162.404 16.25 161.954 16.05C161.521 15.8333 161.054 15.7083 160.554 15.675C159.904 15.625 159.312 15.6667 158.779 15.8C158.246 15.9167 157.821 16.1417 157.504 16.475C157.204 16.8083 157.054 17.2583 157.054 17.825C157.054 18.375 157.296 18.7833 157.779 19.05C158.262 19.3 158.821 19.4917 159.454 19.625C160.087 19.7417 160.646 19.8833 161.129 20.05C162.579 20.5167 163.937 21.1167 165.204 21.85C166.487 22.5667 167.521 23.45 168.304 24.5C169.087 25.55 169.454 26.7833 169.404 28.2C169.404 29.85 168.912 31.3 167.929 32.55C166.946 33.7833 165.671 34.725 164.104 35.375C162.554 36.0083 160.904 36.25 159.154 36.1ZM187.256 17.55H182.756V35.65H175.856V17.55H172.406V10.65H175.856V2.8H182.756V10.65H187.256V17.55Z" fill="url(#paint0_linear_3_7)"/>
<defs>
<linearGradient id="paint0_linear_3_7" x1="102.5" y1="-31.85" x2="185.5" y2="72.65" gradientUnits="userSpaceOnUse">
<stop stop-color="#605DEF"/>
<stop offset="0.479167" stop-color="#78B0F1"/>
<stop offset="1" stop-color="#A6F8FF"/>
</linearGradient>
</defs>
</svg>
