<svg width="32" height="39" viewBox="0 0 32 39" fill="none" xmlns="http://www.w3.org/2000/svg">
<path fill-rule="evenodd" clip-rule="evenodd" d="M24.069 1.38631e-06H7.2379C6.32108 -2.81751e-05 5.53007 -5.36744e-05 4.87861 0.0531731C4.191 0.109353 3.50708 0.233391 2.84898 0.568712C1.86718 1.06896 1.06896 1.86718 0.568712 2.84898C0.233391 3.50708 0.109353 4.191 0.0531729 4.87861C-5.4047e-05 5.53008 -2.83677e-05 6.32101 1.40088e-06 7.23784V31.0261C-2.83677e-05 31.9429 -5.4047e-05 32.7339 0.0531729 33.3853C0.109353 34.073 0.233391 34.7569 0.568712 35.415C1.06896 36.3968 1.86718 37.195 2.84898 37.6952C3.50708 38.0306 4.191 38.1546 4.87861 38.2108C5.53008 38.264 6.32102 38.264 7.23786 38.264H24.069C24.9858 38.264 25.7768 38.264 26.4283 38.2108C27.1159 38.1546 27.7998 38.0306 28.4579 37.6952C29.4397 37.195 30.2379 36.3968 30.7382 35.415C31.0735 34.7569 31.1975 34.073 31.2537 33.3853C31.3069 32.7339 31.3069 31.9429 31.3069 31.0261V7.23786C31.3069 6.32102 31.3069 5.53008 31.2537 4.87861C31.1975 4.191 31.0735 3.50708 30.7382 2.84898C30.2379 1.86718 29.4397 1.06896 28.4579 0.568712C27.7998 0.233391 27.1159 0.109353 26.4283 0.0531731C25.7768 -5.36744e-05 24.9858 -2.81751e-05 24.069 1.38631e-06ZM15.6534 26.0891C14.2126 26.0891 13.0445 27.2571 13.0445 28.698C13.0445 30.1388 14.2126 31.3069 15.6534 31.3069C17.0943 31.3069 18.2623 30.1388 18.2623 28.698C18.2623 27.2571 17.0943 26.0891 15.6534 26.0891Z" fill="#46CF8B"/>
</svg>
